<svg xmlns="http://www.w3.org/2000/svg" width="49.724" height="59.765" viewBox="0 0 49.724 59.765"><g transform="translate(0.751 0.75)"><g transform="translate(0)"><path d="M88,50.617l-6.113-7.859a8.848,8.848,0,0,0,4.836-3.58c1.44-2.488.789-5.525.159-8.458a23.1,23.1,0,0,1-.68-4.6,23.1,23.1,0,0,1,.68-4.6c.626-2.935,1.281-5.97-.159-8.454-1.491-2.576-4.492-3.529-7.4-4.449a21.514,21.514,0,0,1-4.176-1.635A20.409,20.409,0,0,1,71.81,4.262c-2.154-2-4.6-4.262-7.7-4.262S58.555,2.263,56.4,4.261a20.413,20.413,0,0,1-3.345,2.713A21.508,21.508,0,0,1,48.88,8.606c-2.9.92-5.9,1.874-7.4,4.449-1.44,2.488-.789,5.525-.159,8.458a23.1,23.1,0,0,1,.679,4.6,23.1,23.1,0,0,1-.68,4.6c-.626,2.935-1.281,5.97.159,8.454a8.848,8.848,0,0,0,4.841,3.579l-6.118,7.859a1,1,0,0,0,.918,1.613l7.183-.9,1.773,6.2a1,1,0,0,0,.775.71,1.025,1.025,0,0,0,.191.018,1,1,0,0,0,.794-.388l6.415-8.252a9.289,9.289,0,0,0,5.851,2.612,9.289,9.289,0,0,0,5.851-2.612l6.415,8.249a1,1,0,0,0,.794.391,1.024,1.024,0,0,0,.191-.018,1,1,0,0,0,.775-.71l1.773-6.2,7.183.9A1,1,0,0,0,88,50.617ZM51.468,55.082,50,49.952a1,1,0,0,0-1.09-.72l-5.626.7,5.042-6.482.556.178a21.507,21.507,0,0,1,4.171,1.631A20.408,20.408,0,0,1,56.4,47.975l.346.319Zm12.638-4.853c-2.321,0-4.272-1.808-6.34-3.725a22.144,22.144,0,0,0-3.706-2.981,23.293,23.293,0,0,0-4.574-1.808c-2.655-.843-5.163-1.638-6.265-3.541-1.051-1.817-.508-4.35.067-7.032a24.6,24.6,0,0,0,.725-5.023A24.591,24.591,0,0,0,43.29,21.1c-.576-2.681-1.118-5.214-.067-7.032,1.105-1.9,3.609-2.7,6.265-3.541A23.3,23.3,0,0,0,54.06,8.715a22.143,22.143,0,0,0,3.7-2.981c2.068-1.917,4.02-3.725,6.341-3.725s4.272,1.808,6.34,3.725a22.144,22.144,0,0,0,3.706,2.981,23.292,23.292,0,0,0,4.574,1.808c2.655.843,5.163,1.638,6.265,3.541,1.051,1.817.508,4.35-.067,7.032a24.6,24.6,0,0,0-.725,5.023,24.59,24.59,0,0,0,.724,5.023c.576,2.681,1.118,5.214.067,7.032-1.105,1.9-3.609,2.7-6.265,3.541a23.3,23.3,0,0,0-4.573,1.808,22.142,22.142,0,0,0-3.7,2.981C68.378,48.42,66.426,50.229,64.106,50.229Zm15.2-1a1,1,0,0,0-1.09.72l-1.471,5.129L71.465,48.3l.346-.319a20.413,20.413,0,0,1,3.345-2.713,21.508,21.508,0,0,1,4.175-1.631l.556-.178,5.043,6.482Z" transform="translate(-39.995)" fill="#1a9d9f" stroke="#1a9d9f" stroke-width="1.5"/></g><g transform="translate(12.133 13.86)"><path d="M160.184,118.438a2.009,2.009,0,0,0-1.623-.827h-6.15l-1.909-5.854a2.009,2.009,0,0,0-3.817,0l-1.9,5.854h-6.155a2.009,2.009,0,0,0-1.183,3.634l4.979,3.616-1.9,5.854a2.009,2.009,0,0,0,3.092,2.246l4.982-3.615,4.98,3.616a2.009,2.009,0,0,0,3.092-2.246l-1.9-5.855,4.979-3.616A2.009,2.009,0,0,0,160.184,118.438Zm-7.193,5.228a1,1,0,0,0-.365,1.124l2.128,6.548-5.57-4.046a1,1,0,0,0-1.18,0l-5.57,4.046,2.127-6.548a1,1,0,0,0-.365-1.123l-5.569-4.046h6.884a1,1,0,0,0,.955-.694l2.128-6.548,2.128,6.547a1,1,0,0,0,.955.694h6.884Z" transform="translate(-136.616 -110.376)" fill="#1a9d9f" stroke="#1a9d9f" stroke-width="0.6"/></g></g></svg>