<svg xmlns="http://www.w3.org/2000/svg" width="26.04" height="22.628" viewBox="0 0 26.04 22.628">
  <g id="Group_10281" data-name="Group 10281" transform="translate(0 0)">
    <g id="Group_10280" data-name="Group 10280" transform="translate(0 0)">
      <path id="Path_14292" data-name="Path 14292" d="M260.751,164.775a1.063,1.063,0,0,0-1.471-.376l-3.568,2.066L254.8,167v4.945l.845.5c.031,0,.031.031.063.031l3.505,2.034a.963.963,0,0,0,.595.188,1.055,1.055,0,0,0,1.064-1.064v-4.194l.031-4.131A.819.819,0,0,0,260.751,164.775Z" transform="translate(-234.867 -153.101)" fill="#01a8ab"/>
      <path id="Path_14293" data-name="Path 14293" d="M5.039,31.88A5.039,5.039,0,1,0,0,26.841,5.036,5.036,0,0,0,5.039,31.88Zm0-7.1a2.066,2.066,0,1,1-2.066,2.066A2.025,2.025,0,0,1,5.039,24.775Z" transform="translate(0 -21.802)" fill="#01a8ab"/>
      <path id="Path_14294" data-name="Path 14294" d="M31.086,150.515a6,6,0,0,1-2.692.657,5.852,5.852,0,0,1-3.255-.97H21.571a5.852,5.852,0,0,1-3.255.97,5.615,5.615,0,0,1-2.692-.657,2.447,2.447,0,0,0-1.221,2.1v7.637a2.545,2.545,0,0,0,2.535,2.535H29.8a2.545,2.545,0,0,0,2.535-2.535v-7.637A2.545,2.545,0,0,0,31.086,150.515Z" transform="translate(-13.277 -140.155)" fill="#01a8ab"/>
      <path id="Path_14295" data-name="Path 14295" d="M133.843,31.88a5.039,5.039,0,1,0-5.039-5.039A5.036,5.036,0,0,0,133.843,31.88Zm0-7.1a2.066,2.066,0,1,1-2.066,2.066A2.064,2.064,0,0,1,133.843,24.775Z" transform="translate(-118.726 -21.802)" fill="#01a8ab"/>
    </g>
  </g>
</svg>
