<svg id="Component_6_1" data-name="Component 6 – 1" xmlns="http://www.w3.org/2000/svg" width="339.412" height="59.749" viewBox="0 0 339.412 59.749">
  <g id="Component_5_1" data-name="Component 5 – 1">
    <g id="Group_11349" data-name="Group 11349">
      <circle id="Ellipse_491" data-name="Ellipse 491" cx="21.124" cy="21.124" r="21.124" transform="translate(0 29.874) rotate(-45)" fill="#dd7e1f"/>
      <path id="Path_15986" data-name="Path 15986" d="M-334.617,63.072c.487.041.97.092,1.447.166v41.756c-.477.073-.96.125-1.447.166Zm15.064,33.78a21.167,21.167,0,0,0,1.447-2.186v-21.1a21.188,21.188,0,0,0-1.447-2.186Zm-8.6-32.185c-.473-.2-.957-.38-1.447-.547v39.993c.49-.167.974-.346,1.447-.547Zm5.021,3.023c-.467-.378-.948-.739-1.447-1.076v35.006c.5-.338.98-.7,1.447-1.077Zm-15.064-4.617c-.487.041-.97.092-1.447.166v41.756c.477.073.96.125,1.447.166ZM-354.7,94.666a21.115,21.115,0,0,0,1.447,2.186V71.379a21.136,21.136,0,0,0-1.447,2.186Zm5.021,5.876c.467.378.948.739,1.447,1.077V66.613c-.5.337-.98.7-1.447,1.076Zm6.468-36.423c-.49.167-.974.346-1.447.547v38.9c.473.2.957.38,1.447.547Z" transform="translate(366.278 -54.241)" fill="#c96e1c"/>
      <circle id="Ellipse_492" data-name="Ellipse 492" cx="21.124" cy="21.124" r="21.124" transform="translate(8.75 8.193)" fill="#f2cd19"/>
      <path id="Path_15987" data-name="Path 15987" d="M-346.023,54.236a21.123,21.123,0,0,1,21.121,20.9c0-.074,0-.147,0-.221a21.124,21.124,0,0,0-21.124-21.124,21.124,21.124,0,0,0-21.124,21.124c0,.074,0,.148,0,.221A21.123,21.123,0,0,1-346.023,54.236Z" transform="translate(375.897 -45.6)" fill="#e9f408"/>
      <path id="Path_15988" data-name="Path 15988" d="M-325.469,70.045c-.1-.412-.2-.819-.325-1.221l-15.828,4.241,14.188-8.191c-.2-.371-.416-.734-.638-1.091l-14.182,8.188,11.57-11.57q-.435-.459-.9-.892l-11.568,11.568,8.177-14.163q-.538-.331-1.1-.63l-8.176,14.161,4.228-15.78q-.6-.178-1.222-.321l-4.227,15.774V53.807c-.186,0-.372-.014-.559-.014-.236,0-.47.01-.7.018V70.118l-4.218-15.742c-.411.1-.819.206-1.22.328l4.218,15.741-8.142-14.1c-.371.2-.733.417-1.09.64l8.138,14.095-11.5-11.5q-.459.435-.892.9l11.5,11.5-14.076-8.127q-.331.537-.632,1.095l14.076,8.126-15.693-4.2c-.12.4-.227.81-.323,1.222l15.689,4.2h-16.236c-.006.211-.016.42-.016.632s.01.421.016.632H-350.9l-15.689,4.2c.1.412.2.82.323,1.222l15.693-4.2L-364.643,84.9q.3.558.632,1.095l14.076-8.127-11.5,11.5q.432.461.892.9l11.5-11.5-8.138,14.1c.357.223.719.439,1.09.64l8.142-14.1-4.218,15.741c.4.122.809.229,1.22.328l4.218-15.742V96.024c.234.008.468.018.7.018.187,0,.373-.009.559-.014V79.717l4.227,15.774c.412-.1.82-.2,1.222-.321l-4.228-15.78,8.176,14.16q.558-.3,1.1-.629l-8.177-14.163,11.568,11.568q.461-.432.9-.892l-11.57-11.57,14.182,8.188c.222-.357.437-.72.638-1.091l-14.188-8.191,15.828,4.241c.121-.4.228-.81.325-1.221L-341.3,75.549h16.381c.006-.21.016-.42.016-.632s-.01-.421-.016-.632H-341.3Z" transform="translate(375.897 -45.6)" fill="#e9f408"/>
      <circle id="Ellipse_493" data-name="Ellipse 493" cx="19.105" cy="19.105" r="19.105" transform="translate(2.856 29.761) rotate(-45)" fill="#e9f408"/>
      <circle id="Ellipse_494" data-name="Ellipse 494" cx="19.105" cy="19.105" r="19.105" transform="translate(10.77 10.213)" fill="#eaa813"/>
      <g id="Group_11346" data-name="Group 11346" transform="translate(14.205 13.958)">
        <path id="Path_15989" data-name="Path 15989" d="M-327.458,112.133a15.688,15.688,0,0,1-15.67-15.67,15.687,15.687,0,0,1,15.67-15.67,15.688,15.688,0,0,1,15.67,15.67A15.688,15.688,0,0,1-327.458,112.133Zm0-30.527a14.874,14.874,0,0,0-14.857,14.857,14.874,14.874,0,0,0,14.857,14.857A14.874,14.874,0,0,0-312.6,96.463,14.874,14.874,0,0,0-327.458,81.606Z" transform="translate(343.128 -80.793)" fill="#dd7e1f"/>
      </g>
      <g id="Group_11347" data-name="Group 11347" transform="translate(14.205 13.648)">
        <path id="Path_15990" data-name="Path 15990" d="M-327.458,109.151a15.687,15.687,0,0,1-15.67-15.67,15.687,15.687,0,0,1,15.67-15.669,15.688,15.688,0,0,1,15.67,15.669A15.688,15.688,0,0,1-327.458,109.151Zm0-30.527a14.874,14.874,0,0,0-14.857,14.857,14.874,14.874,0,0,0,14.857,14.858A14.874,14.874,0,0,0-312.6,93.481,14.874,14.874,0,0,0-327.458,78.624Z" transform="translate(343.128 -77.812)" fill="#f2cd19"/>
      </g>
      <path id="Path_15991" data-name="Path 15991" d="M-339.149,63.305c10.324,0,18.73,8.926,19.088,19.163.008-.225.017-.45.017-.677a19.1,19.1,0,0,0-19.1-19.1,19.1,19.1,0,0,0-19.1,19.1c0,.227.009.452.017.677C-357.88,72.231-349.474,63.305-339.149,63.305Z" transform="translate(369.024 -52.473)" fill="#dd7e1f"/>
      <path id="Path_1" data-name="Path 1" d="M-298.988,125.148a4.443,4.443,0,0,0,2.763-4.107v-.219a4.441,4.441,0,0,0-4.435-4.435h-6.449V118.1h6.448a2.727,2.727,0,0,1,2.723,2.723v.218a2.727,2.727,0,0,1-2.723,2.723h-1.252l.839,1.306h0l5.547,8.636h2.035Z" transform="translate(329.493 -94.347)" fill="#dd7e1f"/>
      <path id="Path_15992" data-name="Path 15992" d="M-306.436,112.65l-.674.711,1.2.544,6.755.51,1.67,2.218.064,1.415-.242,1.44-1.428.782-2.151-.242-.673.707,1.869,1.009,4.7,8.259,1.849.673.676-.715-6.068-9.014,2.294-1.88-.166-4.193-2.256-1.976-6.513-.166Z" transform="translate(329.494 -91.32)" fill="#dd7e1f"/>
      <path id="Path_1-2" data-name="Path 1" d="M-295.988,120.43a4.442,4.442,0,0,0,2.763-4.107V116.1a4.441,4.441,0,0,0-4.435-4.435h-6.449v1.709h6.448a2.727,2.727,0,0,1,2.723,2.723v.219a2.726,2.726,0,0,1-2.723,2.723h-1.252l.839,1.306h0l5.547,8.636h2.035Z" transform="translate(327.175 -90.333)" fill="#f2cd19"/>
      <g id="Group_11348" data-name="Group 11348" transform="translate(23.066 21.337)">
        <path id="Path_15993" data-name="Path 15993" d="M-277.892,139.855a2.719,2.719,0,0,1-2.083.973h-1.252l.212.33h.8A2.722,2.722,0,0,0-277.892,139.855Z" transform="translate(286.423 -133.454)" fill="#e9f408"/>
        <path id="Path_15994" data-name="Path 15994" d="M-297.9,112a4.441,4.441,0,0,1,4.435,4.435v.218a4.434,4.434,0,0,1-.723,2.419,4.439,4.439,0,0,0,.958-2.749V116.1a4.441,4.441,0,0,0-4.435-4.435h-6.449V112Z" transform="translate(304.109 -111.67)" fill="#e9f408"/>
        <path id="Path_15995" data-name="Path 15995" d="M-269.042,150.992c-.112.057-.226.112-.345.16l5.285,8.226h.447Z" transform="translate(277.272 -142.062)" fill="#e9f408"/>
      </g>
    </g>
    <g id="Group_11356" data-name="Group 11356" transform="translate(274.567 30.218)">
      <g id="Group_11353" data-name="Group 11353" transform="translate(0 0)">
        <path id="Path_15996" data-name="Path 15996" d="M-143.024,289.125h-4.841a50.809,50.809,0,0,0-15.15-1.995,50.806,50.806,0,0,0-15.15,1.995h-4.841v3.626h.01c0,.037-.01.074-.01.112,0,3.166,8.95,5.732,19.99,5.732s19.991-2.566,19.991-5.732c0-.038-.007-.074-.01-.112h.01Z" transform="translate(183.005 -283.393)" fill="#dd7e1f"/>
        <path id="Path_15997" data-name="Path 15997" d="M-157.882,287.18c.46.011.918.025,1.369.045v11.331c-.451.02-.909.034-1.369.045Zm14.255,9.167q.748-.283,1.369-.594v-5.726q-.623-.309-1.369-.593Zm-8.134-8.734c-.448-.054-.906-.1-1.369-.148v10.853c.464-.045.922-.094,1.369-.148Zm4.752.82q-.663-.153-1.369-.292v9.5q.707-.137,1.369-.292Zm-14.256-1.253c-.46.011-.918.025-1.369.045v11.331c.451.02.909.034,1.369.045Zm-15.625,8.573q.623.309,1.369.594v-6.912q-.748.283-1.369.593Zm4.752,1.595q.663.154,1.369.292v-9.5q-.707.138-1.369.292Zm6.121-9.884c-.464.045-.922.094-1.369.148v10.556c.448.055.906.1,1.369.148Z" transform="translate(179.565 -283.421)" fill="#c96e1c"/>
        <g id="Group_11352" data-name="Group 11352">
          <ellipse id="Ellipse_495" data-name="Ellipse 495" cx="19.991" cy="5.732" rx="19.991" ry="5.732" transform="translate(0)" fill="#f2cd19"/>
          <path id="Path_15998" data-name="Path 15998" d="M-163.014,278.705c10.97,0,19.875,2.534,19.987,5.672,0-.02,0-.04,0-.06,0-3.166-8.95-5.732-19.99-5.732s-19.991,2.566-19.991,5.732c0,.02,0,.04,0,.06C-182.89,281.239-173.985,278.705-163.014,278.705Z" transform="translate(183.005 -278.585)" fill="#e9f408"/>
          <path id="Path_15999" data-name="Path 15999" d="M-143.564,283a3.831,3.831,0,0,0-.308-.332l-14.979,1.151,13.426-2.223c-.19-.1-.393-.2-.6-.3l-13.421,2.222,10.949-3.14q-.411-.125-.847-.242l-10.947,3.139,7.738-3.843q-.509-.09-1.037-.171l-7.737,3.842,4-4.282q-.571-.049-1.157-.087l-4,4.28v-4.426c-.176,0-.352,0-.529,0-.224,0-.445,0-.667,0v4.425l-3.992-4.272c-.389.027-.775.056-1.155.089l3.991,4.271-7.706-3.827c-.351.055-.693.113-1.031.174l7.7,3.825-10.88-3.12q-.434.118-.844.243l10.878,3.119-13.32-2.205c-.209.1-.409.2-.6.3l13.32,2.205-14.85-1.141a3.617,3.617,0,0,0-.306.331l14.847,1.141H-182.99c-.006.057-.015.114-.015.171s.01.115.015.171h15.364l-14.847,1.141a3.613,3.613,0,0,0,.306.331l14.85-1.141-13.32,2.205c.189.1.389.2.6.3l13.32-2.205-10.878,3.119q.409.125.844.243l10.88-3.12-7.7,3.825c.338.06.681.119,1.031.174l7.706-3.827-3.991,4.272c.38.033.765.062,1.155.089l3.992-4.272v4.425c.222,0,.443.005.667.005.177,0,.353,0,.529,0V285.62l4,4.281q.585-.039,1.157-.087l-4-4.282,7.737,3.843q.528-.081,1.037-.171l-7.738-3.843,10.947,3.139q.436-.117.847-.242l-10.949-3.139,13.421,2.222c.21-.1.413-.2.6-.3l-13.426-2.223,14.979,1.151a3.705,3.705,0,0,0,.308-.332l-14.977-1.151h15.5c.006-.057.015-.114.015-.171s-.01-.114-.015-.171h-15.5Z" transform="translate(183.005 -278.585)" fill="#e9f408"/>
          <ellipse id="Ellipse_496" data-name="Ellipse 496" cx="18.079" cy="5.184" rx="18.079" ry="5.184" transform="translate(1.911 0.668)" fill="#e9f408"/>
          <ellipse id="Ellipse_497" data-name="Ellipse 497" cx="18.079" cy="5.184" rx="18.079" ry="5.184" transform="translate(1.911 0.548)" fill="#eaa813"/>
          <g id="Group_11350" data-name="Group 11350" transform="translate(5.162 1.664)">
            <path id="Path_16000" data-name="Path 16000" d="M-156.373,290.893c-8.177,0-14.829-1.907-14.829-4.252s6.652-4.252,14.829-4.252,14.829,1.907,14.829,4.252S-148.2,290.893-156.373,290.893Zm0-8.284c-7.753,0-14.06,1.809-14.06,4.032s6.307,4.032,14.06,4.032,14.06-1.809,14.06-4.032S-148.621,282.609-156.373,282.609Z" transform="translate(171.202 -282.389)" fill="#dd7e1f"/>
          </g>
          <g id="Group_11351" data-name="Group 11351" transform="translate(5.162 1.48)">
            <path id="Path_16001" data-name="Path 16001" d="M-156.373,290.473c-8.177,0-14.829-1.907-14.829-4.252s6.652-4.252,14.829-4.252,14.829,1.907,14.829,4.252S-148.2,290.473-156.373,290.473Zm0-8.284c-7.753,0-14.06,1.809-14.06,4.032s6.307,4.032,14.06,4.032,14.06-1.809,14.06-4.032S-148.621,282.189-156.373,282.189Z" transform="translate(171.202 -281.969)" fill="#f2cd19"/>
          </g>
          <path id="Path_16002" data-name="Path 16002" d="M-160.556,280.205c9.77,0,17.725,2.223,18.063,5a1.511,1.511,0,0,0,.016-.184c0-2.863-8.094-5.184-18.08-5.184s-18.079,2.321-18.079,5.184a1.52,1.52,0,0,0,.016.184C-178.281,282.428-170.326,280.205-160.556,280.205Z" transform="translate(180.546 -279.29)" fill="#dd7e1f"/>
        </g>
      </g>
      <path id="Path_1-3" data-name="Path 1" d="M-142.335,287.8c1.661-.221,2.747-.748,2.749-1.334V286.4c0-.795-1.977-1.439-4.413-1.44h-6.417v.555H-144c1.5,0,2.708.4,2.71.884v.071c0,.488-1.214.884-2.71.884h-1.246l.834.424h0l5.519,2.8h2.025Z" transform="translate(164.669 -282.171)" fill="#dd7e1f"/>
      <path id="Path_16003" data-name="Path 16003" d="M-138.027,289.913l-.566-.107v.274l.63.143,5.851,3.056,1.9.029v-.274l-3.464-1.318Z" transform="translate(158.018 -284.898)" fill="#dd7e1f"/>
      <g id="Group_11355" data-name="Group 11355" transform="translate(14.254 2.514)">
        <path id="Path_1-4" data-name="Path 1" d="M-142.335,287.176c1.661-.221,2.747-.748,2.749-1.334v-.071c0-.795-1.977-1.439-4.413-1.44h-6.417v.555H-144c1.5,0,2.708.4,2.71.884v.071c0,.488-1.214.884-2.71.884h-1.246l.834.424h0l5.519,2.8h2.025Z" transform="translate(150.415 -284.332)" fill="#f2cd19"/>
        <g id="Group_11354" data-name="Group 11354">
          <path id="Path_16004" data-name="Path 16004" d="M-135.274,289.084a6.076,6.076,0,0,1-2.073.316h-1.246l.21.107h.8A5.376,5.376,0,0,0-135.274,289.084Z" transform="translate(143.764 -287.006)" fill="#e9f408"/>
          <path id="Path_16005" data-name="Path 16005" d="M-144.232,284.439c2.436,0,4.409.645,4.413,1.44v.071c0,.286-.262.557-.719.786.6-.249.952-.561.954-.893v-.071c0-.795-1.977-1.439-4.413-1.44h-6.417v.107Z" transform="translate(150.415 -284.332)" fill="#e9f408"/>
          <path id="Path_16006" data-name="Path 16006" d="M-132.134,290.961c-.112.019-.225.036-.343.052l5.259,2.671h.445Z" transform="translate(140.323 -288.062)" fill="#e9f408"/>
        </g>
      </g>
    </g>
    <g id="Group_11598" data-name="Group 11598" transform="translate(299.82 24.509) rotate(8)">
      <g id="Group_11353-2" data-name="Group 11353" transform="translate(0 0)">
        <path id="Path_15996-2" data-name="Path 15996" d="M-143.024,289.125h-4.841a50.809,50.809,0,0,0-15.15-1.995,50.806,50.806,0,0,0-15.15,1.995h-4.841v3.626h.01c0,.037-.01.074-.01.112,0,3.166,8.95,5.732,19.99,5.732s19.991-2.566,19.991-5.732c0-.038-.007-.074-.01-.112h.01Z" transform="translate(183.005 -283.393)" fill="#dd7e1f"/>
        <path id="Path_15997-2" data-name="Path 15997" d="M-157.882,287.18c.46.011.918.025,1.369.045v11.331c-.451.02-.909.034-1.369.045Zm14.255,9.167q.748-.283,1.369-.594v-5.726q-.623-.309-1.369-.593Zm-8.134-8.734c-.448-.054-.906-.1-1.369-.148v10.853c.464-.045.922-.094,1.369-.148Zm4.752.82q-.663-.153-1.369-.292v9.5q.707-.137,1.369-.292Zm-14.256-1.253c-.46.011-.918.025-1.369.045v11.331c.451.02.909.034,1.369.045Zm-15.625,8.573q.623.309,1.369.594v-6.912q-.748.283-1.369.593Zm4.752,1.595q.663.154,1.369.292v-9.5q-.707.138-1.369.292Zm6.121-9.884c-.464.045-.922.094-1.369.148v10.556c.448.055.906.1,1.369.148Z" transform="translate(179.565 -283.421)" fill="#c96e1c"/>
        <g id="Group_11352-2" data-name="Group 11352">
          <ellipse id="Ellipse_495-2" data-name="Ellipse 495" cx="19.991" cy="5.732" rx="19.991" ry="5.732" transform="translate(0)" fill="#f2cd19"/>
          <path id="Path_15998-2" data-name="Path 15998" d="M-163.014,278.705c10.97,0,19.875,2.534,19.987,5.672,0-.02,0-.04,0-.06,0-3.166-8.95-5.732-19.99-5.732s-19.991,2.566-19.991,5.732c0,.02,0,.04,0,.06C-182.89,281.239-173.985,278.705-163.014,278.705Z" transform="translate(183.005 -278.585)" fill="#e9f408"/>
          <path id="Path_15999-2" data-name="Path 15999" d="M-143.564,283a3.831,3.831,0,0,0-.308-.332l-14.979,1.151,13.426-2.223c-.19-.1-.393-.2-.6-.3l-13.421,2.222,10.949-3.14q-.411-.125-.847-.242l-10.947,3.139,7.738-3.843q-.509-.09-1.037-.171l-7.737,3.842,4-4.282q-.571-.049-1.157-.087l-4,4.28v-4.426c-.176,0-.352,0-.529,0-.224,0-.445,0-.667,0v4.425l-3.992-4.272c-.389.027-.775.056-1.155.089l3.991,4.271-7.706-3.827c-.351.055-.693.113-1.031.174l7.7,3.825-10.88-3.12q-.434.118-.844.243l10.878,3.119-13.32-2.205c-.209.1-.409.2-.6.3l13.32,2.205-14.85-1.141a3.617,3.617,0,0,0-.306.331l14.847,1.141H-182.99c-.006.057-.015.114-.015.171s.01.115.015.171h15.364l-14.847,1.141a3.613,3.613,0,0,0,.306.331l14.85-1.141-13.32,2.205c.189.1.389.2.6.3l13.32-2.205-10.878,3.119q.409.125.844.243l10.88-3.12-7.7,3.825c.338.06.681.119,1.031.174l7.706-3.827-3.991,4.272c.38.033.765.062,1.155.089l3.992-4.272v4.425c.222,0,.443.005.667.005.177,0,.353,0,.529,0V285.62l4,4.281q.585-.039,1.157-.087l-4-4.282,7.737,3.843q.528-.081,1.037-.171l-7.738-3.843,10.947,3.139q.436-.117.847-.242l-10.949-3.139,13.421,2.222c.21-.1.413-.2.6-.3l-13.426-2.223,14.979,1.151a3.705,3.705,0,0,0,.308-.332l-14.977-1.151h15.5c.006-.057.015-.114.015-.171s-.01-.114-.015-.171h-15.5Z" transform="translate(183.005 -278.585)" fill="#e9f408"/>
          <ellipse id="Ellipse_496-2" data-name="Ellipse 496" cx="18.079" cy="5.184" rx="18.079" ry="5.184" transform="translate(1.911 0.668)" fill="#e9f408"/>
          <ellipse id="Ellipse_497-2" data-name="Ellipse 497" cx="18.079" cy="5.184" rx="18.079" ry="5.184" transform="translate(1.911 0.548)" fill="#eaa813"/>
          <g id="Group_11350-2" data-name="Group 11350" transform="translate(5.162 1.664)">
            <path id="Path_16000-2" data-name="Path 16000" d="M-156.373,290.893c-8.177,0-14.829-1.907-14.829-4.252s6.652-4.252,14.829-4.252,14.829,1.907,14.829,4.252S-148.2,290.893-156.373,290.893Zm0-8.284c-7.753,0-14.06,1.809-14.06,4.032s6.307,4.032,14.06,4.032,14.06-1.809,14.06-4.032S-148.621,282.609-156.373,282.609Z" transform="translate(171.202 -282.389)" fill="#dd7e1f"/>
          </g>
          <g id="Group_11351-2" data-name="Group 11351" transform="translate(5.162 1.48)">
            <path id="Path_16001-2" data-name="Path 16001" d="M-156.373,290.473c-8.177,0-14.829-1.907-14.829-4.252s6.652-4.252,14.829-4.252,14.829,1.907,14.829,4.252S-148.2,290.473-156.373,290.473Zm0-8.284c-7.753,0-14.06,1.809-14.06,4.032s6.307,4.032,14.06,4.032,14.06-1.809,14.06-4.032S-148.621,282.189-156.373,282.189Z" transform="translate(171.202 -281.969)" fill="#f2cd19"/>
          </g>
          <path id="Path_16002-2" data-name="Path 16002" d="M-160.556,280.205c9.77,0,17.725,2.223,18.063,5a1.511,1.511,0,0,0,.016-.184c0-2.863-8.094-5.184-18.08-5.184s-18.079,2.321-18.079,5.184a1.52,1.52,0,0,0,.016.184C-178.281,282.428-170.326,280.205-160.556,280.205Z" transform="translate(180.546 -279.29)" fill="#dd7e1f"/>
        </g>
      </g>
      <path id="Path_1-5" data-name="Path 1" d="M-142.335,287.8c1.661-.221,2.747-.748,2.749-1.334V286.4c0-.795-1.977-1.439-4.413-1.44h-6.417v.555H-144c1.5,0,2.708.4,2.71.884v.071c0,.488-1.214.884-2.71.884h-1.246l.834.424h0l5.519,2.8h2.025Z" transform="translate(164.669 -282.171)" fill="#dd7e1f"/>
      <path id="Path_16003-2" data-name="Path 16003" d="M-138.027,289.913l-.566-.107v.274l.63.143,5.851,3.056,1.9.029v-.274l-3.464-1.318Z" transform="translate(158.018 -284.898)" fill="#dd7e1f"/>
      <g id="Group_11355-2" data-name="Group 11355" transform="translate(14.254 2.514)">
        <path id="Path_1-6" data-name="Path 1" d="M-142.335,287.176c1.661-.221,2.747-.748,2.749-1.334v-.071c0-.795-1.977-1.439-4.413-1.44h-6.417v.555H-144c1.5,0,2.708.4,2.71.884v.071c0,.488-1.214.884-2.71.884h-1.246l.834.424h0l5.519,2.8h2.025Z" transform="translate(150.415 -284.332)" fill="#f2cd19"/>
        <g id="Group_11354-2" data-name="Group 11354">
          <path id="Path_16004-2" data-name="Path 16004" d="M-135.274,289.084a6.076,6.076,0,0,1-2.073.316h-1.246l.21.107h.8A5.376,5.376,0,0,0-135.274,289.084Z" transform="translate(143.764 -287.006)" fill="#e9f408"/>
          <path id="Path_16005-2" data-name="Path 16005" d="M-144.232,284.439c2.436,0,4.409.645,4.413,1.44v.071c0,.286-.262.557-.719.786.6-.249.952-.561.954-.893v-.071c0-.795-1.977-1.439-4.413-1.44h-6.417v.107Z" transform="translate(150.415 -284.332)" fill="#e9f408"/>
          <path id="Path_16006-2" data-name="Path 16006" d="M-132.134,290.961c-.112.019-.225.036-.343.052l5.259,2.671h.445Z" transform="translate(140.323 -288.062)" fill="#e9f408"/>
        </g>
      </g>
    </g>
  </g>
</svg>
