<svg id="_1660141" data-name="1660141" xmlns="http://www.w3.org/2000/svg" width="25.659" height="22.652" viewBox="0 0 25.659 22.652">
  <path id="Path_14422" data-name="Path 14422" d="M24.865,14.607,17.3,2.479a5.264,5.264,0,0,0-8.934,0L.8,14.607a5.263,5.263,0,0,0,4.467,8.045H20.4a5.263,5.263,0,0,0,4.467-8.045ZM20.4,21.148H5.262A3.76,3.76,0,0,1,2.071,15.4L9.638,3.275a3.76,3.76,0,0,1,6.383,0L23.589,15.4A3.76,3.76,0,0,1,20.4,21.148Zm0,0" transform="translate(0 0)" fill="#fff"/>
  <path id="Path_14423" data-name="Path 14423" d="M71.739,61.065a2.257,2.257,0,0,0-3.832,0L60.339,73.193a2.256,2.256,0,0,0,1.916,3.446H77.39a2.256,2.256,0,0,0,1.916-3.446ZM70.574,73.581h-1.5v-1.5h1.5Zm0-3.007h-1.5V65.262h1.5Zm0,0" transform="translate(-56.993 -56.993)" fill="#fff"/>
</svg>
