<svg id="_1660141" data-name="1660141" xmlns="http://www.w3.org/2000/svg" width="20.217" height="17.848" viewBox="0 0 20.217 17.848">
  <path id="Path_14422" data-name="Path 14422" d="M19.591,11.509,13.629,1.953a4.147,4.147,0,0,0-7.039,0L.627,11.509a4.147,4.147,0,0,0,3.52,6.338H16.071a4.147,4.147,0,0,0,3.52-6.338Zm-3.52,5.154H4.146a2.962,2.962,0,0,1-2.515-4.527L7.594,2.58a2.962,2.962,0,0,1,5.029,0l5.962,9.556a2.962,2.962,0,0,1-2.515,4.527Zm0,0" transform="translate(0 0)" fill="#e40119"/>
  <path id="Path_14423" data-name="Path 14423" d="M69.249,60.839a1.778,1.778,0,0,0-3.019,0l-5.962,9.556a1.778,1.778,0,0,0,1.51,2.715H73.7a1.778,1.778,0,0,0,1.51-2.715ZM68.331,70.7H67.147V69.516h1.185Zm0-2.369H67.147V64.146h1.185Zm0,0" transform="translate(-57.631 -57.631)" fill="#e40119"/>
</svg>
