<svg id="Component_1_1" data-name="Component 1 – 1" xmlns="http://www.w3.org/2000/svg" width="26" height="26" viewBox="0 0 26 26">
  <path id="Subtraction_5" data-name="Subtraction 5" d="M13,26A13,13,0,0,1,3.808,3.808,13,13,0,1,1,22.192,22.192,12.915,12.915,0,0,1,13,26ZM13,1.832A11.169,11.169,0,1,0,24.17,13,11.182,11.182,0,0,0,13,1.832Z" transform="translate(0 0)" fill="#5e6778"/>
  <g id="Group_11055" data-name="Group 11055" transform="translate(8.361 7.401)">
    <g id="_566247" data-name="566247" transform="translate(0)">
      <g id="Group_10596" data-name="Group 10596" transform="translate(0)">
        <g id="Group_10595" data-name="Group 10595">
          <path id="Path_14430" data-name="Path 14430" d="M30.154,1.1H29.6V0H28.5V1.1H24.09V0h-1.1V1.1h-.551a1.1,1.1,0,0,0-1.1,1.1l-.006,7.718a1.1,1.1,0,0,0,1.1,1.1h7.718a1.1,1.1,0,0,0,1.1-1.1V2.205A1.1,1.1,0,0,0,30.154,1.1Zm0,8.821H22.436V3.859h7.718Z" transform="translate(-21.333)" fill="#5e6778"/>
          <rect id="Rectangle_1174" data-name="Rectangle 1174" width="5.513" height="1.103" transform="translate(2.205 4.962)" fill="#5e6778"/>
          <rect id="Rectangle_1175" data-name="Rectangle 1175" width="3.859" height="1.103" transform="translate(2.205 7.167)" fill="#5e6778"/>
        </g>
      </g>
    </g>
  </g>
</svg>
