<svg xmlns="http://www.w3.org/2000/svg" width="17.415" height="22.386" viewBox="0 0 17.415 22.386">
  <g id="_1345874" data-name="1345874" transform="translate(0)">
    <path id="Path_14788" data-name="Path 14788" d="M126.816,1.351h3.741v.63h1.351V1.263A1.264,1.264,0,0,0,130.646,0h-3.919a1.264,1.264,0,0,0-1.262,1.263v.718h1.351Zm0,0" transform="translate(-119.979 0)" fill="#fff"/>
    <path id="Path_14789" data-name="Path 14789" d="M53.77,167.75H41.086a.6.6,0,0,0-.593.643l1.06,13.112a1.408,1.408,0,0,0,1.4,1.3H51.9a1.408,1.408,0,0,0,1.4-1.3l1.06-13.112a.6.6,0,0,0-.593-.643ZM44.157,181.4h-.042a.675.675,0,0,1-.674-.634l-.665-10.765a.676.676,0,1,1,1.349-.083l.664,10.765A.676.676,0,0,1,44.157,181.4Zm3.954-.674a.676.676,0,0,1-1.351,0V169.964a.676.676,0,0,1,1.351,0ZM52.079,170l-.634,10.765a.675.675,0,0,1-.674.636h-.04a.676.676,0,0,1-.635-.714l.634-10.765a.676.676,0,0,1,1.349.08Zm0,0" transform="translate(-38.72 -160.416)" fill="#fff"/>
    <path id="Path_14790" data-name="Path 14790" d="M17.386,78.129l-.444-1.33a.859.859,0,0,0-.815-.587H1.288a.859.859,0,0,0-.815.587l-.444,1.33a.558.558,0,0,0,.529.734h16.3a.55.55,0,0,0,.3-.085.556.556,0,0,0,.234-.648Zm0,0" transform="translate(0 -72.879)" fill="#fff"/>
  </g>
</svg>
