<svg xmlns="http://www.w3.org/2000/svg" width="24.699" height="24.699" viewBox="0 0 24.699 24.699">
  <path id="Path_14444" data-name="Path 14444" d="M24.571,10.219a.507.507,0,0,0-.338-.2l-2.943-.45a9.689,9.689,0,0,0-.659-1.576q.289-.4.868-1.134t.82-1.069a.619.619,0,0,0,.128-.37.518.518,0,0,0-.113-.354,21.973,21.973,0,0,0-2.653-2.734.62.62,0,0,0-.4-.161.522.522,0,0,0-.386.145L16.611,4.036a9.939,9.939,0,0,0-1.447-.6L14.714.482a.477.477,0,0,0-.185-.346A.607.607,0,0,0,14.134,0h-3.57a.541.541,0,0,0-.579.45,26.257,26.257,0,0,0-.466,2.991,9.2,9.2,0,0,0-1.463.611L5.837,2.332a.684.684,0,0,0-.418-.161q-.354,0-1.52,1.15A16.023,16.023,0,0,0,2.316,5.049a.677.677,0,0,0-.145.37.6.6,0,0,0,.161.386q1.077,1.3,1.721,2.219A7.93,7.93,0,0,0,3.425,9.5l-2.991.45a.485.485,0,0,0-.305.209.618.618,0,0,0-.129.37V14.1a.607.607,0,0,0,.129.378.506.506,0,0,0,.338.2l2.943.434a7.942,7.942,0,0,0,.659,1.592q-.289.4-.868,1.134T2.38,18.91a.621.621,0,0,0-.129.37.629.629,0,0,0,.112.37,21.188,21.188,0,0,0,2.653,2.7.554.554,0,0,0,.4.177.579.579,0,0,0,.4-.144l2.268-1.721a9.975,9.975,0,0,0,1.447.6l.45,2.959a.478.478,0,0,0,.185.346.606.606,0,0,0,.394.136h3.57a.541.541,0,0,0,.579-.45,26.347,26.347,0,0,0,.466-2.991,9.184,9.184,0,0,0,1.463-.611l2.219,1.737a.785.785,0,0,0,.418.144q.354,0,1.511-1.142a16.233,16.233,0,0,0,1.592-1.737.537.537,0,0,0,.145-.37.619.619,0,0,0-.161-.4q-1.157-1.415-1.72-2.219a10.309,10.309,0,0,0,.627-1.463l2.975-.45a.49.49,0,0,0,.321-.209.621.621,0,0,0,.128-.37V10.6A.6.6,0,0,0,24.571,10.219Zm-9.31,5.041a3.965,3.965,0,0,1-2.911,1.206A4.118,4.118,0,0,1,8.233,12.35,4.117,4.117,0,0,1,12.35,8.233a4.118,4.118,0,0,1,4.117,4.117A3.965,3.965,0,0,1,15.261,15.26Z" fill="#fff"/>
</svg>
