<svg xmlns="http://www.w3.org/2000/svg" width="28" height="28" viewBox="0 0 28 28"><g transform="translate(0.237)"><circle cx="14" cy="14" r="14" transform="translate(-0.237)" fill="#00c4c0"/><g transform="translate(0.763 1)" fill="#06797f" stroke="#fbfbfb" stroke-width="1"><circle cx="13" cy="13" r="13" stroke="none"/><circle cx="13" cy="13" r="12.5" fill="none"/></g><g transform="translate(4.764 9)"><g transform="translate(0)"><path d="M17.624,125.335c-.158-.177-3.971-4.335-8.746-4.335S.291,125.158.132,125.335a.52.52,0,0,0,0,.694c.159.177,3.971,4.335,8.746,4.335s8.587-4.158,8.746-4.335A.52.52,0,0,0,17.624,125.335Zm-8.746,3.989a3.642,3.642,0,1,1,3.642-3.642A3.646,3.646,0,0,1,8.878,129.324Z" transform="translate(0.001 -121)" fill="#fdfdfd"/></g><g transform="translate(6.277 2.081)"><g transform="translate(0 0)"><path d="M184.121,182.561a1.556,1.556,0,0,1,.655-1.267A2.568,2.568,0,0,0,183.6,181a2.6,2.6,0,1,0,2.557,3.04A1.552,1.552,0,0,1,184.121,182.561Z" transform="translate(-181 -181)" fill="#fdfdfd"/></g></g></g></g></svg>