<svg id="eye" xmlns="http://www.w3.org/2000/svg" width="15.861" height="8.364" viewBox="0 0 15.861 8.364">
  <g id="Group_10275" data-name="Group 10275">
    <g id="Group_10274" data-name="Group 10274">
      <path id="Path_14283" data-name="Path 14283" d="M15.742,124.872C15.6,124.714,12.2,121,7.93,121S.26,124.714.118,124.872a.465.465,0,0,0,0,.62c.142.158,3.547,3.872,7.812,3.872s7.671-3.714,7.812-3.872A.465.465,0,0,0,15.742,124.872ZM7.93,128.435a3.253,3.253,0,1,1,3.253-3.253A3.257,3.257,0,0,1,7.93,128.435Z" transform="translate(0.001 -121)" fill="#00c4c0"/>
    </g>
  </g>
  <g id="Group_10277" data-name="Group 10277" transform="translate(5.607 1.859)">
    <g id="Group_10276" data-name="Group 10276" transform="translate(0 0)">
      <path id="Path_14284" data-name="Path 14284" d="M183.788,182.394a1.39,1.39,0,0,1,.585-1.132,2.293,2.293,0,0,0-1.05-.262,2.323,2.323,0,1,0,2.284,2.715A1.386,1.386,0,0,1,183.788,182.394Z" transform="translate(-181 -181)" fill="#00c4c0"/>
    </g>
  </g>
</svg>
