<svg xmlns="http://www.w3.org/2000/svg" width="30.047" height="29.547" viewBox="0 0 30.047 29.547"><path d="M26,0H4.051A4.016,4.016,0,0,0,0,3.982V25.565a4.016,4.016,0,0,0,4.049,3.982H14.876l.018-10.558H12.1a.653.653,0,0,1-.658-.645l-.013-3.4a.653.653,0,0,1,.658-.65h2.784V11c0-3.816,2.37-5.894,5.832-5.894h2.841a.653.653,0,0,1,.658.647v2.87a.653.653,0,0,1-.658.647H21.806c-1.883,0-2.247.88-2.247,2.171v2.847H23.7a.651.651,0,0,1,.654.723l-.41,3.4a.654.654,0,0,1-.654.571H19.577l-.018,10.558H26a4.016,4.016,0,0,0,4.049-3.981V3.982A4.016,4.016,0,0,0,26,0Z" transform="translate(-0.002)" fill="#fff"/></svg>