<svg id="_1946360" data-name="1946360" xmlns="http://www.w3.org/2000/svg" width="17.783" height="17.013" viewBox="0 0 17.783 17.013">
  <path id="_1946360-2" data-name="1946360" d="M17.736,6.427a1.258,1.258,0,0,0-1.1-.781l-4.6-.669L9.975.806A1.258,1.258,0,0,0,8.892,0,1.258,1.258,0,0,0,7.808.806L5.75,4.976l-4.6.669a1.258,1.258,0,0,0-1.1.781A1.258,1.258,0,0,0,.478,7.705l3.331,3.246-.786,4.584a1.325,1.325,0,0,0,.232,1.129,1,1,0,0,0,.778.348,1.606,1.606,0,0,0,.743-.2l4.117-2.164,4.117,2.164a1.6,1.6,0,0,0,.742.2h0a1,1,0,0,0,.778-.348,1.324,1.324,0,0,0,.232-1.129l-.786-4.584,3.33-3.246a1.258,1.258,0,0,0,.431-1.279Zm0,0" transform="translate(0 -0.001)" fill="#fdce1e"/>
</svg>
