<svg id="Group_10599" data-name="Group 10599" xmlns="http://www.w3.org/2000/svg" width="14.474" height="19.033" viewBox="0 0 14.474 19.033">
  <path id="Path_14398" data-name="Path 14398" d="M131.507,38.422c2.116,0,3.832-2.084,3.832-4.654s-.563-4.654-3.832-4.654-3.832,2.084-3.832,4.654S129.391,38.422,131.507,38.422Z" transform="translate(-124.27 -29.114)" fill="#5e6778"/>
  <path id="Path_14399" data-name="Path 14399" d="M83.1,203.257c-.071-4.478-.656-5.754-5.131-6.561a3.144,3.144,0,0,1-4.2,0c-4.426.8-5.047,2.056-5.128,6.416-.007.356-.01.375-.011.333,0,.077,0,.221,0,.47,0,0,1.065,2.148,7.237,2.148s7.237-2.148,7.237-2.148c0-.16,0-.272,0-.348A2.8,2.8,0,0,1,83.1,203.257Z" transform="translate(-68.631 -187.031)" fill="#5e6778"/>
</svg>
