<svg xmlns="http://www.w3.org/2000/svg" width="27.232" height="21.387" viewBox="0 0 27.232 21.387"><path d="M146.353,13.014l-4.516-.638L139.827,8.4l-2.011,3.973-4.516.638,3.271,3.128-.766,4.372,4.021-2.074,4.021,2.074-.766-4.372Zm0,0" transform="translate(-126.211 -7.982)" fill="#fff"/><path d="M92.913,138.813A5.569,5.569,0,0,1,95.1,141.59l-1.5.542a3.993,3.993,0,0,0-7.532,0l-1.5-.542a5.569,5.569,0,0,1,2.186-2.777c-3.67-1.6-6.255-6-6.255-11.313h1.6a12.3,12.3,0,0,0,2.25,7.372,6.853,6.853,0,0,0,5.489,3c4.34,0,7.739-4.548,7.739-10.372h1.6c0,5.314-2.585,9.717-6.255,11.313Zm0,0" transform="translate(-76.218 -120.745)" fill="#edf1f4"/><path d="M259.079,138.816a5.569,5.569,0,0,1,2.186,2.777l-1.5.542A3.992,3.992,0,0,0,256,139.471v-1.6c4.34,0,7.739-4.548,7.739-10.372h1.6c0,5.313-2.585,9.717-6.255,11.313Zm0,0" transform="translate(-242.383 -120.748)" fill="#fff"/><path d="M321.36,268.357c-.629,0-2.13-.037-4.262-2.393,1.449-1.6,2.757-2.393,4.262-2.393.629,0,2.13.038,4.263,2.393C324.173,267.564,322.864,268.357,321.36,268.357Zm0,0" transform="translate(-300.232 -249.578)" fill="#edf1f4"/><path d="M381.156,148.6c.269-2.141.886-3.542,2.118-4.405.515-.36,1.743-1.189,4.842-.485-.269,2.142-.863,3.543-2.1,4.406C384.547,149.149,382.782,148.976,381.156,148.6Zm0,0" transform="translate(-360.883 -135.833)" fill="#edf1f4"/><path d="M394.562,8.226c-.838-1.991-1-3.512-.368-4.875.266-.57.934-1.914,3.97-2.851.838,1.99,1,3.511.368,4.874-.266.57-.935,1.913-3.97,2.852Zm0,0" transform="translate(-372.862 -0.5)" fill="#edf1f4"/><g transform="translate(0 0)"><path d="M38.863,268.357c-.629,0-2.13-.037-4.262-2.393,1.449-1.6,2.757-2.393,4.262-2.393.628,0,2.13.038,4.263,2.393C41.676,267.564,40.367,268.357,38.863,268.357Zm0,0" transform="translate(-32.761 -249.578)" fill="#fff"/><path d="M2.039,147.949C1.524,147.589.4,146.7,0,143.543c2.1-.478,3.6-.378,4.838.485.515.36,1.723,1.252,2.118,4.405-.166.015-2.875.945-4.917-.484Zm0,0" transform="translate(0 -135.665)" fill="#fff"/><path d="M26.482,8.226c-2.063-.638-3.335-1.488-3.97-2.852-.266-.57-.865-1.946.368-4.874,2.062.636,3.335,1.488,3.97,2.851.266.57.865,1.946-.368,4.875Zm0,0" transform="translate(-20.953 -0.5)" fill="#fff"/></g><path d="M259.255,16.141l.766,4.372L256,18.439V8.4l2.011,3.973,4.516.638Zm0,0" transform="translate(-242.384 -7.982)" fill="#edf1f4"/></svg>