<svg xmlns="http://www.w3.org/2000/svg" width="50.769" height="60.06" viewBox="0 0 50.769 60.06"><g transform="translate(0 0)"><g transform="translate(0 0)"><g transform="translate(0 0)"><path d="M52.709,221.248,39.592,245.96l11.911-1.1,5.765,10.482L70.385,230.63Z" transform="translate(-39.592 -195.281)" fill="#e2e4f2"/><g transform="translate(19.976 25.966)"><path d="M227.476,221.248l13.117,24.712-11.911-1.1-5.765,10.482L209.8,230.63Z" transform="translate(-209.8 -221.248)" fill="#e2e4f2"/></g><ellipse cx="21.916" cy="21.916" rx="21.916" ry="21.916" transform="translate(3.468 0)" fill="#b4b8d2"/><path d="M138.228,84.726a15.643,15.643,0,1,1,15.644-15.642A15.662,15.662,0,0,1,138.228,84.726Z" transform="translate(-112.844 -47.168)" fill="#fff"/><g transform="translate(11.81 10.183)"><path d="M146.253,104.694a2.025,2.025,0,0,0-.505.772,2.142,2.142,0,0,0-.167.916c.023.336.16.706.178,1.038,0,.043-.008.084-.006.126a15.7,15.7,0,0,1-1.615-2.638,1.535,1.535,0,0,1,.107-.518,5.618,5.618,0,0,1,.486-.719,2.716,2.716,0,0,0,.278-.815,3.3,3.3,0,0,0,.073-.931c-.026-.017-.054-.034-.081-.053a1.9,1.9,0,0,0-.642.586,1.952,1.952,0,0,0-.353.792c-.049.31,0,.676-.054.978a1.688,1.688,0,0,1-.051.165,15.877,15.877,0,0,1-.945-2.843,1.536,1.536,0,0,1,.235-.56,5.019,5.019,0,0,1,.608-.537,2.305,2.305,0,0,0,.421-.684,2.838,2.838,0,0,0,.24-.851l-.068-.068a1.71,1.71,0,0,0-.719.389,1.743,1.743,0,0,0-.488.646c-.107.272-.131.622-.244.884a1.354,1.354,0,0,1-.111.19,16,16,0,0,1-.285-2.916,1.5,1.5,0,0,1,.385-.58,4.665,4.665,0,0,1,.674-.347,1.984,1.984,0,0,0,.522-.539,2.583,2.583,0,0,0,.379-.751l-.051-.083a1.7,1.7,0,0,0-1.322.682c-.152.231-.238.552-.394.77a1.194,1.194,0,0,1-.182.193,16.3,16.3,0,0,1,.355-2.852l.028-.043a1.467,1.467,0,0,1,.533-.539,4.228,4.228,0,0,1,.689-.16,1.664,1.664,0,0,0,.584-.391,2.4,2.4,0,0,0,.492-.638c-.011-.03-.021-.062-.032-.094a1.365,1.365,0,0,0-.723,0,1.343,1.343,0,0,0-.625.331c-.184.186-.327.473-.513.638a1.122,1.122,0,0,1-.261.177,16.136,16.136,0,0,1,1-2.747c.008.011.017.021.024.032.036-.038.073-.073.109-.111a1.319,1.319,0,0,1,.6-.389,3.846,3.846,0,0,1,.657.013,1.445,1.445,0,0,0,.612-.244,2.277,2.277,0,0,0,.584-.518c0-.034-.006-.068-.008-.1a1.186,1.186,0,0,0-.657-.165,1.171,1.171,0,0,0-.638.177c-.207.139-.4.385-.6.5a.956.956,0,0,1-.31.12c0-.021,0-.039.008-.06a16.1,16.1,0,0,1,2.61-3.562,16.379,16.379,0,0,0-2.554,3.17c0-.034.017-.073.017-.107a4.346,4.346,0,0,0,.006-.715,2.312,2.312,0,0,0-.528-1.249l-.107.039a3.246,3.246,0,0,0-.447,1.66,2.531,2.531,0,0,0,.143.676,1.737,1.737,0,0,0,.3.592c.019.026.038.051.058.077a16.157,16.157,0,0,0-1.012,2.366c0-.008,0-.017,0-.026a6.636,6.636,0,0,0-.188-.738,2.765,2.765,0,0,0-.834-1.2l-.094.062a3.506,3.506,0,0,0-.017,1.812,2.85,2.85,0,0,0,.317.674,2.042,2.042,0,0,0,.456.556.109.109,0,0,1,.015.013,16.383,16.383,0,0,0-.436,2.445,6.1,6.1,0,0,0-.359-.7,3.273,3.273,0,0,0-1.136-1.095c-.026.026-.053.053-.079.081a3.849,3.849,0,0,0,.441,1.874,3.277,3.277,0,0,0,.494.635,2.283,2.283,0,0,0,.558.447,16.6,16.6,0,0,0,.116,2.441,7.032,7.032,0,0,0-.509-.6,3.922,3.922,0,0,0-1.425-.918l-.06.1a4.2,4.2,0,0,0,.924,1.835,3.6,3.6,0,0,0,.667.554,2.415,2.415,0,0,0,.612.312,16.5,16.5,0,0,0,.657,2.345c-.212-.169-.421-.342-.64-.486a4.554,4.554,0,0,0-1.7-.67c-.013.036-.024.071-.038.107a4.652,4.652,0,0,0,1.416,1.69,4.085,4.085,0,0,0,.832.432,2.675,2.675,0,0,0,.637.175,16.366,16.366,0,0,0,1.191,2.156c-.252-.12-.5-.248-.753-.342a5.467,5.467,0,0,0-1.932-.357l-.011.116a5.2,5.2,0,0,0,1.908,1.433,4.714,4.714,0,0,0,.984.269,3.035,3.035,0,0,0,.637.041,16.9,16.9,0,0,0,1.14,1.307l.644-.644a16.2,16.2,0,0,1-1.3-1.418,1.687,1.687,0,0,1-.006-.466,5.626,5.626,0,0,1,.3-.877,3.266,3.266,0,0,0,.085-.922,3.813,3.813,0,0,0-.131-.986A.736.736,0,0,0,146.253,104.694Z" transform="translate(-140.216 -86.768)" fill="#b4b8d2"/><path d="M311.56,104.722a2.023,2.023,0,0,1,.505.772,2.142,2.142,0,0,1,.167.916c-.023.336-.16.706-.178,1.038,0,.043.008.084.006.126a15.7,15.7,0,0,0,1.615-2.638,1.536,1.536,0,0,0-.107-.518,5.614,5.614,0,0,0-.486-.719,2.716,2.716,0,0,1-.278-.815,3.3,3.3,0,0,1-.073-.931c.026-.017.055-.034.081-.053a1.9,1.9,0,0,1,.642.586,1.953,1.953,0,0,1,.353.792c.049.31,0,.676.054.978a1.667,1.667,0,0,0,.051.165,15.874,15.874,0,0,0,.945-2.843,1.535,1.535,0,0,0-.235-.56,5.013,5.013,0,0,0-.608-.537,2.3,2.3,0,0,1-.421-.684,2.838,2.838,0,0,1-.24-.851l.068-.068a1.711,1.711,0,0,1,.719.389,1.744,1.744,0,0,1,.488.646c.107.272.131.622.244.884a1.359,1.359,0,0,0,.111.19,16,16,0,0,0,.285-2.916,1.505,1.505,0,0,0-.385-.58,4.665,4.665,0,0,0-.674-.347,1.986,1.986,0,0,1-.522-.539,2.584,2.584,0,0,1-.379-.751l.051-.083a1.7,1.7,0,0,1,1.322.682c.152.231.238.552.394.77a1.187,1.187,0,0,0,.182.193,16.29,16.29,0,0,0-.355-2.852l-.028-.043a1.468,1.468,0,0,0-.533-.539,4.226,4.226,0,0,0-.689-.16,1.664,1.664,0,0,1-.584-.391,2.4,2.4,0,0,1-.492-.638c.011-.03.021-.062.032-.094a1.365,1.365,0,0,1,.723,0,1.343,1.343,0,0,1,.625.33c.184.186.327.473.513.638a1.121,1.121,0,0,0,.261.176,15.688,15.688,0,0,0-1-2.745c-.008.011-.017.021-.024.032-.036-.038-.073-.073-.109-.111a1.319,1.319,0,0,0-.6-.389,3.849,3.849,0,0,0-.657.013,1.444,1.444,0,0,1-.612-.244,2.279,2.279,0,0,1-.584-.518c0-.034.006-.068.008-.1a1.186,1.186,0,0,1,.657-.165,1.171,1.171,0,0,1,.638.176c.207.139.4.385.6.5a.955.955,0,0,0,.31.12c0-.019-.006-.039-.008-.058a16.091,16.091,0,0,0-2.61-3.562,16.374,16.374,0,0,1,2.554,3.17c0-.034-.017-.073-.017-.107a4.353,4.353,0,0,1-.006-.715A2.312,2.312,0,0,1,313.8,87.9l.107.039a3.247,3.247,0,0,1,.447,1.66,2.534,2.534,0,0,1-.143.676,1.738,1.738,0,0,1-.3.592c-.019.026-.038.051-.058.077a16.155,16.155,0,0,1,1.012,2.366c0-.008,0-.017,0-.026a5.788,5.788,0,0,1,.184-.742,2.764,2.764,0,0,1,.834-1.2l.1.06A3.527,3.527,0,0,1,316,93.209a2.85,2.85,0,0,1-.317.674,2.041,2.041,0,0,1-.456.556.108.108,0,0,0-.015.013,16.391,16.391,0,0,1,.436,2.445,6.1,6.1,0,0,1,.359-.7,3.273,3.273,0,0,1,1.136-1.095l.079.079a3.848,3.848,0,0,1-.441,1.874,3.275,3.275,0,0,1-.494.635,2.283,2.283,0,0,1-.558.447,16.587,16.587,0,0,1-.116,2.441,7.021,7.021,0,0,1,.509-.6,3.921,3.921,0,0,1,1.425-.918c.021.032.039.064.06.1a4.2,4.2,0,0,1-.924,1.835,3.606,3.606,0,0,1-.667.554,2.418,2.418,0,0,1-.612.312,16.514,16.514,0,0,1-.657,2.345c.212-.169.421-.342.64-.486a4.555,4.555,0,0,1,1.7-.67c.013.036.024.071.038.107a4.651,4.651,0,0,1-1.416,1.69,4.083,4.083,0,0,1-.832.432,2.676,2.676,0,0,1-.637.175,16.368,16.368,0,0,1-1.191,2.156c.252-.12.5-.248.753-.342a5.469,5.469,0,0,1,1.932-.357c0,.039.008.077.011.116a5.2,5.2,0,0,1-1.908,1.433,4.712,4.712,0,0,1-.984.269,3.032,3.032,0,0,1-.637.041,16.881,16.881,0,0,1-1.14,1.307l-.644-.644a16.192,16.192,0,0,0,1.3-1.418,1.684,1.684,0,0,0,.006-.466,5.622,5.622,0,0,0-.3-.877,3.267,3.267,0,0,1-.084-.922,3.815,3.815,0,0,1,.131-.986C311.5,104.744,311.53,104.733,311.56,104.722Z" transform="translate(-290.448 -86.796)" fill="#b4b8d2"/></g></g></g><text transform="translate(25.446 29.645)" fill="#b4b8d2" font-size="21" font-family="Poppins-Medium, Poppins" font-weight="500"><tspan x="-6.058" y="0">2</tspan></text></g></svg>