<svg xmlns="http://www.w3.org/2000/svg" width="26.726" height="23.777" viewBox="0 0 26.726 23.777">
  <path id="heart" d="M24.606,2.327A7.187,7.187,0,0,0,19.26,0a6.723,6.723,0,0,0-4.2,1.45,8.591,8.591,0,0,0-1.7,1.773,8.587,8.587,0,0,0-1.7-1.773A6.722,6.722,0,0,0,7.466,0,7.187,7.187,0,0,0,2.12,2.327,8.354,8.354,0,0,0,0,8.032a9.947,9.947,0,0,0,2.651,6.511,56.523,56.523,0,0,0,6.635,6.228c.919.784,1.962,1.672,3.044,2.618a1.569,1.569,0,0,0,2.066,0c1.082-.946,2.125-1.835,3.045-2.619a56.491,56.491,0,0,0,6.635-6.228,9.946,9.946,0,0,0,2.65-6.511,8.353,8.353,0,0,0-2.12-5.7Zm0,0" transform="translate(0)" fill="#06777e"/>
</svg>
