<svg xmlns="http://www.w3.org/2000/svg" width="27.685" height="24.852" viewBox="0 0 27.685 24.852"><path d="M23.648,2.236A6.907,6.907,0,0,0,18.511,0a6.462,6.462,0,0,0-4.036,1.393,8.257,8.257,0,0,0-1.632,1.7,8.252,8.252,0,0,0-1.632-1.7A6.461,6.461,0,0,0,7.176,0,6.907,6.907,0,0,0,2.038,2.236,8.029,8.029,0,0,0,0,7.719a9.56,9.56,0,0,0,2.548,6.258,54.323,54.323,0,0,0,6.377,5.985c.884.753,1.885,1.607,2.925,2.516a1.508,1.508,0,0,0,1.985,0c1.04-.909,2.042-1.763,2.926-2.517a54.292,54.292,0,0,0,6.377-5.985,9.559,9.559,0,0,0,2.547-6.258,8.028,8.028,0,0,0-2.038-5.483Zm0,0" transform="translate(1 1)" fill="none" stroke="#06797f" stroke-width="2"/></svg>