<svg xmlns="http://www.w3.org/2000/svg" width="58.602" height="52.203" viewBox="0 0 58.602 52.203"><path d="M29,51.6a3.4,3.4,0,0,1-2.242-.843c-2.343-2.049-4.6-3.974-6.6-5.673l-.01-.009C14.31,40.1,9.264,35.8,5.753,31.563,1.828,26.827,0,22.337,0,17.431A18.129,18.129,0,0,1,4.6,5.05,15.6,15.6,0,0,1,16.2,0a14.589,14.589,0,0,1,9.113,3.146A18.645,18.645,0,0,1,29,6.993a18.647,18.647,0,0,1,3.685-3.847A14.589,14.589,0,0,1,41.8,0,15.6,15.6,0,0,1,53.4,5.05,18.128,18.128,0,0,1,58,17.431c0,4.905-1.828,9.4-5.752,14.131-3.511,4.237-8.557,8.537-14.4,13.516-2,1.7-4.259,3.63-6.608,5.683A3.4,3.4,0,0,1,29,51.6ZM16.2,3.4A12.237,12.237,0,0,0,7.1,7.353,14.747,14.747,0,0,0,3.4,17.431c0,4.126,1.533,7.815,4.971,11.963,3.323,4.01,8.265,8.222,13.988,13.1l.011.009c2,1.705,4.269,3.638,6.629,5.7,2.375-2.068,4.646-4,6.651-5.712,5.722-4.877,10.664-9.088,13.987-13.1,3.438-4.148,4.971-7.838,4.971-11.963A14.747,14.747,0,0,0,50.9,7.353,12.236,12.236,0,0,0,41.8,3.4a11.269,11.269,0,0,0-7.035,2.436,16.487,16.487,0,0,0-3.921,4.537,2.145,2.145,0,0,1-3.684,0,16.472,16.472,0,0,0-3.921-4.537A11.268,11.268,0,0,0,16.2,3.4Zm0,0" transform="translate(0.3 0.3)" fill="#1a9d9f" stroke="#1a9d9f" stroke-width="0.6"/></svg>