<svg xmlns="http://www.w3.org/2000/svg" width="22.907" height="20.75" viewBox="0 0 22.907 20.75"><g transform="translate(0 -0.501)"><path d="M294.188,241.5a4.984,4.984,0,1,0,4.984,4.984A4.99,4.99,0,0,0,294.188,241.5Zm1.438,5.655h-.767v.767a.671.671,0,0,1-1.342,0v-.767h-.767a.671.671,0,1,1,0-1.342h.767v-.767a.671.671,0,1,1,1.342,0v.767h.767a.671.671,0,0,1,0,1.342Zm0,0" transform="translate(-276.265 -230.217)" fill="#edf1f4"/><path d="M53.184,10.469A4.984,4.984,0,1,0,48.2,5.485,4.99,4.99,0,0,0,53.184,10.469Zm0,0" transform="translate(-46.044 0)" fill="#fff"/><path d="M13.039,222.918a7.2,7.2,0,0,0-1.881-1.882,6.314,6.314,0,0,1-8.036,0A7.139,7.139,0,0,0,0,226.935v2.516a2.471,2.471,0,0,0,2.468,2.468h9.345a2.457,2.457,0,0,0,1.58-.573,6.314,6.314,0,0,1-.353-8.428Zm0,0" transform="translate(0 -210.668)" fill="#fff"/></g></svg>