<svg xmlns="http://www.w3.org/2000/svg" width="29.059" height="29.059" viewBox="0 0 29.059 29.059"><g transform="translate(0 9.315)"><path d="M1.49,25.5A1.49,1.49,0,0,1,0,24.006v-7.45a1.49,1.49,0,1,1,2.98,0v7.45A1.491,1.491,0,0,1,1.49,25.5Z" transform="translate(0 -15.066)" fill="#bd25b4"/></g><g transform="translate(4.346 5.588)"><path d="M8.52,26.921a1.49,1.49,0,0,1-1.49-1.49v-14.9a1.49,1.49,0,0,1,2.98,0v14.9A1.49,1.49,0,0,1,8.52,26.921Z" transform="translate(-7.03 -9.038)" fill="#bd25b4"/></g><g transform="translate(8.693 7.451)"><path d="M15.55,26.208a1.49,1.49,0,0,1-1.49-1.49V13.542a1.49,1.49,0,0,1,2.981,0V24.718A1.491,1.491,0,0,1,15.55,26.208Z" transform="translate(-14.06 -12.052)" fill="#bd25b4"/></g><g transform="translate(13.039 3.726)"><path d="M22.58,27.634a1.49,1.49,0,0,1-1.49-1.49V7.516a1.49,1.49,0,1,1,2.98,0V26.143A1.49,1.49,0,0,1,22.58,27.634Z" transform="translate(-21.09 -6.026)" fill="#bd25b4"/></g><g transform="translate(17.385)"><path d="M29.609,29.059a1.49,1.49,0,0,1-1.49-1.49V1.49a1.49,1.49,0,1,1,2.98,0V27.569A1.49,1.49,0,0,1,29.609,29.059Z" transform="translate(-28.119)" fill="#bd25b4"/></g><g transform="translate(21.733 5.588)"><path d="M36.641,26.921a1.49,1.49,0,0,1-1.49-1.49v-14.9a1.49,1.49,0,0,1,2.98,0v14.9A1.49,1.49,0,0,1,36.641,26.921Z" transform="translate(-35.151 -9.038)" fill="#bd25b4"/></g><g transform="translate(26.079 11.177)"><path d="M43.67,24.783a1.49,1.49,0,0,1-1.49-1.489V19.568a1.49,1.49,0,1,1,2.98,0v3.726A1.49,1.49,0,0,1,43.67,24.783Z" transform="translate(-42.18 -18.078)" fill="#bd25b4"/></g></svg>