<svg xmlns="http://www.w3.org/2000/svg" width="20.955" height="27.261" viewBox="0 0 20.955 27.261">
  <g id="Group_10588" data-name="Group 10588" transform="translate(0.9 0.9)">
    <path id="Path_14429" data-name="Path 14429" d="M85.578,0A9.742,9.742,0,0,0,76,9.879a10.1,10.1,0,0,0,1.429,5.194l7.6,10A.786.786,0,0,0,86.4,25.06l7.409-10.12a10.117,10.117,0,0,0,1.35-5.061A9.742,9.742,0,0,0,85.578,0Zm0,14.829a4.879,4.879,0,0,1-4.8-4.95,4.8,4.8,0,1,1,9.6,0A4.876,4.876,0,0,1,85.578,14.829Z" transform="translate(-76)" fill="#fff" stroke="#5e6778" stroke-width="1.8"/>
  </g>
</svg>
