<svg xmlns="http://www.w3.org/2000/svg" width="16.723" height="13.139" viewBox="0 0 16.723 13.139"><g transform="translate(0 -59.013)"><g transform="translate(0 59.013)"><path d="M31.661,328.633a1.429,1.429,0,0,0,.979-.369L27.9,323.526l-.328.236q-.532.392-.863.611a5.319,5.319,0,0,1-.882.448,2.688,2.688,0,0,1-1.027.229h-.019a2.687,2.687,0,0,1-1.027-.229,5.3,5.3,0,0,1-.882-.448q-.331-.219-.863-.611l-.327-.237-4.739,4.739a1.43,1.43,0,0,0,.979.369Z" transform="translate(-16.432 -315.494)" fill="#fff"/><path d="M.943,199.367A4.946,4.946,0,0,1,0,198.555v7.208l4.176-4.176Q2.923,200.713.943,199.367Z" transform="translate(0 -194.318)" fill="#fff"/><path d="M416.55,199.367q-1.907,1.29-3.241,2.222l4.174,4.174v-7.209A5.149,5.149,0,0,1,416.55,199.367Z" transform="translate(-400.761 -194.318)" fill="#fff"/><path d="M15.235,59.013H1.5A1.333,1.333,0,0,0,.393,59.5a1.883,1.883,0,0,0-.387,1.213,2.181,2.181,0,0,0,.513,1.274,4.63,4.63,0,0,0,1.092,1.078q.317.224,1.913,1.33c.574.4,1.074.745,1.5,1.044.366.255.681.476.942.659l.139.1.257.185q.3.219.5.355t.485.3a2.83,2.83,0,0,0,.537.252,1.485,1.485,0,0,0,.467.084h.019a1.485,1.485,0,0,0,.467-.084,2.824,2.824,0,0,0,.537-.252q.285-.168.485-.3t.5-.355l.257-.185.14-.1.944-.656,3.423-2.377a4.439,4.439,0,0,0,1.138-1.148,2.469,2.469,0,0,0,.457-1.409,1.505,1.505,0,0,0-1.493-1.493Z" transform="translate(-0.006 -59.013)" fill="#fff"/></g></g></svg>