<svg xmlns="http://www.w3.org/2000/svg" width="22.918" height="25.219" viewBox="0 0 22.918 25.219"><g transform="translate(-22.563 -24.301)"><path d="M34.019,49.52a4.3,4.3,0,0,0,4.212-3.439H29.808A4.3,4.3,0,0,0,34.019,49.52Z" fill="#057b7f"/><path d="M45.462,43.1a1.234,1.234,0,0,0-.031-.559,1.974,1.974,0,0,0-.046-.229A2.065,2.065,0,0,0,45.24,42c-.032-.061-.055-.126-.093-.184a2.084,2.084,0,0,0-.275-.313c-.032-.03-.053-.069-.086-.1a7.656,7.656,0,0,1-1.157-1.212c-.016-.021-.03-.045-.046-.067-.148-.2-.288-.4-.416-.61-.031-.052-.057-.106-.087-.158-.105-.183-.207-.367-.3-.557-.04-.085-.072-.173-.109-.26-.068-.16-.137-.319-.194-.483-.043-.123-.076-.249-.112-.374s-.079-.26-.11-.392c-.039-.164-.066-.33-.094-.5-.016-.094-.035-.188-.047-.283-.026-.208-.042-.418-.051-.629-.005-.12-.019-.238-.019-.359v-3.2A8.024,8.024,0,0,0,34.024,24.3h0A8.023,8.023,0,0,0,26,32.325v3.2c0,.12-.014.239-.02.359-.009.211-.025.422-.051.63-.012.094-.031.187-.046.28-.028.167-.056.334-.094.5-.032.133-.072.262-.11.392s-.07.251-.112.374c-.058.164-.126.323-.194.483-.037.087-.069.175-.109.26-.09.19-.192.374-.3.557-.03.052-.055.106-.087.158-.126.208-.266.409-.412.606-.018.023-.032.048-.05.072A7.731,7.731,0,0,1,23.258,41.4c-.034.029-.055.068-.087.1a2.022,2.022,0,0,0-.274.313A1.874,1.874,0,0,0,22.8,42a2.059,2.059,0,0,0-.144.309,1.978,1.978,0,0,0-.047.229,2.151,2.151,0,0,0-.049.31,2.085,2.085,0,0,0,.018.249,1.853,1.853,0,0,0,.018.247c0,.022.015.042.022.064s0,.037.007.056c.021.067.051.128.078.192.006.015.012.031.019.047a2.118,2.118,0,0,0,.148.269c.008.013.015.026.024.038a1.952,1.952,0,0,0,.192.241l.026.031a2.13,2.13,0,0,0,.23.206c.01.008.019.017.03.025a2.234,2.234,0,0,0,.262.167c.011.005.021.013.032.018a2,2,0,0,0,.29.123c.011,0,.021.009.032.012a2.08,2.08,0,0,0,.332.078l.013,0a2.168,2.168,0,0,0,.353.02H43.355a2.181,2.181,0,0,0,.353-.02l.012,0a2.055,2.055,0,0,0,.332-.078c.011,0,.021-.009.032-.012a2.063,2.063,0,0,0,.291-.123c.011-.005.02-.013.031-.018a2.166,2.166,0,0,0,.263-.167l.029-.025a1.956,1.956,0,0,0,.23-.206l.027-.031a2.05,2.05,0,0,0,.192-.241c.008-.012.015-.025.023-.038a2,2,0,0,0,.148-.269c.007-.016.013-.032.02-.047.027-.064.057-.125.078-.192.005-.019,0-.037.007-.056s.016-.042.022-.064A2.036,2.036,0,0,0,45.462,43.1ZM34.02,27.74c0-.011,0-.023,0-.034,0,.011,0,.023,0,.034s0,.025,0,.037C34.022,27.765,34.02,27.753,34.02,27.74Z" fill="#057b7f"/></g></svg>