<svg xmlns="http://www.w3.org/2000/svg" width="15.394" height="20.029" viewBox="0 0 15.394 20.029"><path d="M70.615,8.089h-.39V6.262A6.227,6.227,0,0,0,64.193,0c-.092,0-.275,0-.366,0A6.227,6.227,0,0,0,57.8,6.262V8.089h-.39a1.267,1.267,0,0,0-1.092,1.387v9.161a1.273,1.273,0,0,0,1.092,1.392h13.21a1.273,1.273,0,0,0,1.092-1.392V9.476A1.267,1.267,0,0,0,70.615,8.089Zm-5.368,5.958v2.768a.591.591,0,0,1-.583.585h-1.31a.591.591,0,0,1-.583-.585V14.047a1.676,1.676,0,0,1,1.055-2.852c.091,0,.275,0,.366,0a1.676,1.676,0,0,1,1.055,2.852Zm2.4-5.958H60.368V6.262a3.643,3.643,0,1,1,7.285,0V8.089Z" transform="translate(-56.313 0)" fill="#fff"/></svg>