<svg xmlns="http://www.w3.org/2000/svg" width="28" height="28" viewBox="0 0 28 28"><circle cx="14" cy="14" r="14" fill="#00c4c0"/><g transform="translate(1 1)" fill="#06797f" stroke="#fbfbfb" stroke-width="1"><circle cx="13" cy="13" r="13" stroke="none"/><circle cx="13" cy="13" r="12.5" fill="none"/></g><g transform="translate(7.857 8.501)"><path d="M130.029,34.832a2.644,2.644,0,0,0,2.354-2.859c0-1.579-.346-2.859-2.354-2.859s-2.354,1.28-2.354,2.859A2.644,2.644,0,0,0,130.029,34.832Z" transform="translate(-123.151 -29.114)" fill="#fff"/><path d="M77.518,200.727c-.044-2.751-.4-3.534-3.152-4.031a1.931,1.931,0,0,1-2.578,0c-2.719.491-3.1,1.263-3.15,3.941,0,.219-.006.23-.007.2,0,.048,0,.136,0,.289,0,0,.654,1.319,4.446,1.319s4.446-1.319,4.446-1.319c0-.1,0-.167,0-.214A1.732,1.732,0,0,1,77.518,200.727Z" transform="translate(-66.199 -190.759)" fill="#fff"/><path d="M262.566,49.662a2.147,2.147,0,0,0,1.912-2.322c0-1.282-.281-2.322-1.912-2.322a2.726,2.726,0,0,0-.713.085,4.686,4.686,0,0,1,.428,2.211,3.921,3.921,0,0,1-.587,2.093A1.638,1.638,0,0,0,262.566,49.662Z" transform="translate(-252.422 -44.455)" fill="#fff"/><path d="M287.507,184.4c-.035-2.234-.327-2.871-2.56-3.274a1.339,1.339,0,0,1-1.047.4l-.089,0a2.937,2.937,0,0,1,1.2.93,5.459,5.459,0,0,1,.689,3.191c1.5-.3,1.81-.917,1.81-.917,0-.081,0-.136,0-.174A1.34,1.34,0,0,1,287.507,184.4Z" transform="translate(-273.757 -175.739)" fill="#fff"/><path d="M49.867,49.663a1.638,1.638,0,0,0,.872-.256,3.92,3.92,0,0,1-.587-2.093A4.687,4.687,0,0,1,50.58,45.1a2.725,2.725,0,0,0-.713-.085c-1.631,0-1.912,1.04-1.912,2.322A2.147,2.147,0,0,0,49.867,49.663Z" transform="translate(-46.256 -44.455)" fill="#fff"/><path d="M3.7,181.522l-.089,0a1.338,1.338,0,0,1-1.047-.4c-2.233.4-2.524,1.039-2.56,3.274a1.355,1.355,0,0,1,0,.154c0,.038,0,.093,0,.174,0,0,.308.62,1.81.917a5.459,5.459,0,0,1,.689-3.191A2.937,2.937,0,0,1,3.7,181.522Z" transform="translate(0 -175.738)" fill="#fff"/></g></svg>