<svg xmlns="http://www.w3.org/2000/svg" width="16.23" height="19.453" viewBox="0 0 16.23 19.453"><g transform="translate(0 0)" opacity="0.13"><path d="M91.717,9.371A4.533,4.533,0,0,0,95.03,8,4.533,4.533,0,0,0,96.4,4.685,4.534,4.534,0,0,0,95.03,1.373a4.684,4.684,0,0,0-6.625,0,4.534,4.534,0,0,0-1.373,3.313A4.533,4.533,0,0,0,88.4,8a4.535,4.535,0,0,0,3.313,1.373Zm0,0" transform="translate(-83.725 0)" fill="#057a7f"/><path d="M16.19,252.878a11.573,11.573,0,0,0-.158-1.229,9.684,9.684,0,0,0-.3-1.236,6.1,6.1,0,0,0-.508-1.153,4.35,4.35,0,0,0-.766-1,3.378,3.378,0,0,0-1.1-.691,3.8,3.8,0,0,0-1.4-.254,1.426,1.426,0,0,0-.762.323c-.228.149-.5.321-.793.511a4.546,4.546,0,0,1-1.026.452,3.986,3.986,0,0,1-2.511,0,4.535,4.535,0,0,1-1.026-.452c-.3-.189-.562-.361-.794-.512a1.424,1.424,0,0,0-.761-.323,3.8,3.8,0,0,0-1.4.255,3.375,3.375,0,0,0-1.1.691,4.35,4.35,0,0,0-.766,1A6.116,6.116,0,0,0,.5,250.413a9.708,9.708,0,0,0-.3,1.236,11.531,11.531,0,0,0-.158,1.23c-.026.372-.039.759-.039,1.149a3.23,3.23,0,0,0,.959,2.444,3.454,3.454,0,0,0,2.472.9H12.8a3.453,3.453,0,0,0,2.472-.9,3.229,3.229,0,0,0,.959-2.444c0-.392-.013-.779-.039-1.149Zm0,0" transform="translate(0 -237.92)" fill="#057a7f"/></g></svg>