<svg xmlns="http://www.w3.org/2000/svg" width="21.006" height="21" viewBox="0 0 21.006 21"><g transform="translate(-664.998 -234.998)" opacity="0.13"><path d="M17494.18,1954h-9.682a10.5,10.5,0,1,1,10.5-10.5v9.677A.823.823,0,0,1,17494.18,1954Zm-10-6.924a1.1,1.1,0,0,0,0,2.2,1.1,1.1,0,1,0,0-2.2Zm.141-6.7c.793,0,1.287.374,1.287.975,0,.628-.521,1.031-.982,1.385-.1.076-.2.154-.287.23a2.629,2.629,0,0,0-.961,2.169c0,.728.191.962.791.962.7,0,.842-.32.842-.588a1.792,1.792,0,0,1,.8-1.787,3.377,3.377,0,0,0,1.6-2.617c0-1.388-1.252-2.358-3.047-2.358-1.92,0-2.814,1.142-2.814,1.914a.82.82,0,0,0,.855.817c.324,0,.457-.2.611-.421A1.317,1.317,0,0,1,17484.318,1940.372Z" transform="translate(-16808.998 -1698.002)" fill="#057a7f"/></g></svg>