<svg xmlns="http://www.w3.org/2000/svg" width="26" height="26" viewBox="0 0 26 26"><g transform="translate(-0.309)"><path d="M13,26A13,13,0,0,1,3.808,3.808,13,13,0,1,1,22.192,22.192,12.915,12.915,0,0,1,13,26ZM13,1.832A11.169,11.169,0,1,0,24.17,13,11.181,11.181,0,0,0,13,1.832Z" transform="translate(0.309 0)" fill="#06797f"/><path d="M251.051,572.926a3.32,3.32,0,0,0,2.065-3.07v-.163a3.319,3.319,0,0,0-3.315-3.315h-4.819v1.28H249.8a2.038,2.038,0,0,1,2.035,2.035v.163a2.038,2.038,0,0,1-2.035,2.035h-.936l.627.976h0l4.146,6.454h1.521Z" transform="translate(-236.768 -559.542)" fill="#06797f" stroke="#06797f" stroke-width="0.5"/></g></svg>