<svg xmlns="http://www.w3.org/2000/svg" width="23.002" height="18.777" viewBox="0 0 23.002 18.777"><g transform="translate(0 0)"><path d="M.024,58.484a.382.382,0,0,0,.03-.2c-.01-.053.024-.1.1-.132s.117-.061.117-.081.056-.034.169-.044l.169-.015H5.188a2.259,2.259,0,0,0,1.658-.69,2.26,2.26,0,0,0,.689-1.657V45.34a2.26,2.26,0,0,0-.689-1.658,2.26,2.26,0,0,0-1.658-.69H.494a.443.443,0,0,1-.3-.1.487.487,0,0,1-.147-.286A2.469,2.469,0,0,1,0,42.266a3.65,3.65,0,0,1,.007-.389q.015-.235.015-.293a.452.452,0,0,1,.139-.33.452.452,0,0,1,.33-.139H5.188a4.07,4.07,0,0,1,2.985,1.24A4.069,4.069,0,0,1,9.413,45.34V55.667a4.069,4.069,0,0,1-1.239,2.985,4.068,4.068,0,0,1-2.985,1.24H.494a.445.445,0,0,1-.3-.1.487.487,0,0,1-.147-.286A2.473,2.473,0,0,1,0,59.166a3.646,3.646,0,0,1,.007-.389Q.025,58.542.024,58.484Z" transform="translate(13.589 -41.115)" fill="#edf1f4"/><path d="M109.912,58.505l7.98-7.98a.939.939,0,0,1,1.6.66V55.41h6.572a.952.952,0,0,1,.939.939v5.633a.952.952,0,0,1-.939.939h-6.572v4.225a.934.934,0,0,1-1.6.66l-7.98-7.98a.921.921,0,0,1,0-1.321Z" transform="translate(-109.633 -49.777)" fill="#fff"/></g></svg>