<svg xmlns="http://www.w3.org/2000/svg" width="58.308" height="58.202" viewBox="0 0 58.308 58.202"><g transform="translate(0.1 0.1)"><path d="M30.429,1.831a6.25,6.25,0,0,0-9.591,7.928L8.669,39.554A6.251,6.251,0,0,0,1.828,49.737l6.435,6.435A6.252,6.252,0,0,0,18.446,49.33L24.635,46.8l2.419,2.419a9.089,9.089,0,0,0,6.28,2.422,7.947,7.947,0,0,0,2.995-.554l5.931-2.423a4.493,4.493,0,0,0,1.554-7.713L42.4,39.546l5.837-2.384a6.206,6.206,0,0,0,3.51,1.078h0a6.249,6.249,0,0,0,4.418-10.669Zm8.334,35.531-.017.007L24.406,43.225l-.017.007-8.087,3.3L11.465,41.7,23.4,12.476,45.522,34.6ZM14.7,53.769a2.851,2.851,0,0,1-4.032,0L4.231,47.334A2.851,2.851,0,1,1,8.263,43.3L14.7,49.737a2.85,2.85,0,0,1,0,4.032ZM41.41,43.359a1.506,1.506,0,0,1,.57,1.24,1.506,1.506,0,0,1-1.006.923l-5.932,2.423a5.744,5.744,0,0,1-5.586-1.125l-1.41-1.409,10.944-4.47Zm12.356-9.353a2.831,2.831,0,0,1-2.015.835h0a2.835,2.835,0,0,1-2.017-.835L23.993,8.265h0a2.851,2.851,0,0,1,4.032-4.031l25.74,25.74A2.855,2.855,0,0,1,53.766,34.006Zm0,0" transform="translate(0)" fill="#1a9d9f" stroke="#1a9d9f" stroke-width="0.2"/><path d="M415.1,11.167a1.694,1.694,0,0,0,1.2-.5L424.073,2.9a1.7,1.7,0,1,0-2.4-2.4L413.9,8.265a1.7,1.7,0,0,0,1.2,2.9Zm0,0" transform="translate(-366.572 0)" fill="#1a9d9f" stroke="#1a9d9f" stroke-width="0.2"/><path d="M346.94,6.018a1.7,1.7,0,0,0,1.2-.5l2.62-2.62a1.7,1.7,0,0,0-2.4-2.4l-2.62,2.62a1.7,1.7,0,0,0,1.2,2.9Zm0,0" transform="translate(-306.13 0)" fill="#1a9d9f" stroke="#1a9d9f" stroke-width="0.2"/><path d="M461.965,114.106l-2.62,2.62a1.7,1.7,0,0,0,2.4,2.4l2.62-2.62a1.7,1.7,0,0,0-2.4-2.4Zm0,0" transform="translate(-406.867 -100.739)" fill="#1a9d9f" stroke="#1a9d9f" stroke-width="0.2"/></g></svg>