<svg xmlns="http://www.w3.org/2000/svg" width="38.708" height="34.617" viewBox="0 0 38.708 34.617"><g transform="translate(0 0)"><path d="M72.583,25.709l4.68-5.657L69.17,10.27,62,10l.266,7.169Zm0,0" transform="translate(-57.909 -10.004)" fill="#fdfdfd" fill-rule="evenodd" opacity="0.73"/><path d="M134.968,20.053l-4.68,5.657-5.655,6.835,1.338,1.72,1.72,1.338,7.277-6.021,4.68-3.872,10.317-8.536L150.231,10l-7.169.266Zm0,0" transform="translate(-115.614 -10.004)" fill="#fdfdfd" fill-rule="evenodd"/><path d="M260.68,209.621,256,213.493l7.277,6.021,1.72-1.338,1.338-1.72Zm0,0" transform="translate(-236.645 -193.916)" fill="#fdfdfd" fill-rule="evenodd" opacity="0.73"/><path d="M317.229,265.229l-1.72,1.338-2.817,2.191,1.714,1.714,3.7-1.68,1.849-.84,2.521-5.546-1.714-1.714-2.191,2.817Zm0,0" transform="translate(-288.877 -240.968)" fill="#fdfdfd" fill-rule="evenodd" opacity="0.73"/><path d="M384.161,329.473l-.84,1.849-1.849.84,6.794,6.794,2.689-2.689Zm0,0" transform="translate(-352.246 -304.339)" fill="#fdfdfd" fill-rule="evenodd" opacity="0.73"/><path d="M81.955,266.567l-1.72-1.338-1.338-1.72-2.191-2.817-1.714,1.714,2.521,5.546,1.849.84,3.7,1.68,1.714-1.714Zm0,0" transform="translate(-69.879 -240.968)" fill="#fdfdfd" fill-rule="evenodd"/><path d="M19.483,332.161l-1.849-.84-.84-1.849L10,336.266l2.689,2.689Zm0,0" transform="translate(-10 -304.338)" fill="#fdfdfd" fill-rule="evenodd"/></g></svg>