<svg id="Component_9_1" data-name="Component 9 – 1" xmlns="http://www.w3.org/2000/svg" width="28" height="28" viewBox="0 0 28 28">
  <g id="Group_10342" data-name="Group 10342" transform="translate(-0.237)">
    <circle id="Ellipse_437" data-name="Ellipse 437" cx="14" cy="14" r="14" transform="translate(0.237)" fill="#a40508"/>
    <g id="Ellipse_438" data-name="Ellipse 438" transform="translate(1.237 1)" fill="red" stroke="#fbfbfb" stroke-width="1">
      <circle cx="13" cy="13" r="13" stroke="none"/>
      <circle cx="13" cy="13" r="12.5" fill="none"/>
    </g>
    <g id="swords" transform="translate(5.987 7.644)">
      <g id="Group_10263" data-name="Group 10263" transform="translate(0 0)">
        <path id="Path_14265" data-name="Path 14265" d="M66.319,16.412l1.91-2.308-3.3-3.992L62,10l.109,2.925Zm0,0" transform="translate(-60.331 -10.004)" fill="#fdfdfd" fill-rule="evenodd" opacity="0.73"/>
        <path id="Path_14266" data-name="Path 14266" d="M128.85,14.1l-1.91,2.308L124.633,19.2l.546.7.7.546,2.969-2.457,1.91-1.58,4.21-3.483L135.078,10l-2.925.108Zm0,0" transform="translate(-120.953 -10.004)" fill="#fdfdfd" fill-rule="evenodd"/>
        <path id="Path_14267" data-name="Path 14267" d="M257.909,209.621,256,211.2l2.969,2.457.7-.546.546-.7Zm0,0" transform="translate(-248.102 -203.213)" fill="#fdfdfd" fill-rule="evenodd" opacity="0.73"/>
        <path id="Path_14268" data-name="Path 14268" d="M314.543,262.543l-.7.546-1.15.894.7.7L314.9,264l.754-.343,1.029-2.263-.7-.7-.894,1.15Zm0,0" transform="translate(-302.974 -252.644)" fill="#fdfdfd" fill-rule="evenodd" opacity="0.73"/>
        <path id="Path_14269" data-name="Path 14269" d="M382.569,329.473l-.343.754-.754.343,2.772,2.772,1.1-1.1Zm0,0" transform="translate(-369.547 -319.217)" fill="#fdfdfd" fill-rule="evenodd" opacity="0.73"/>
        <path id="Path_14270" data-name="Path 14270" d="M77.833,263.089l-.7-.546-.546-.7-.894-1.15-.7.7,1.029,2.263.754.343,1.509.686.7-.7Zm0,0" transform="translate(-72.906 -252.644)" fill="#fdfdfd" fill-rule="evenodd"/>
        <path id="Path_14271" data-name="Path 14271" d="M13.869,330.569l-.754-.343-.343-.754L10,332.244l1.1,1.1Zm0,0" transform="translate(-10 -319.217)" fill="#fdfdfd" fill-rule="evenodd"/>
      </g>
    </g>
  </g>
</svg>
