<svg id="swords" xmlns="http://www.w3.org/2000/svg" width="34.617" height="34.617" viewBox="0 0 34.617 34.617">
  <g id="Group_10263" data-name="Group 10263">
    <path id="Path_14266" data-name="Path 14266" d="M134.968,20.053l-4.68,5.657-5.655,6.835,1.338,1.72,1.72,1.338,7.277-6.021,4.68-3.872,10.317-8.536L150.231,10l-7.169.266Zm0,0" transform="translate(-115.614 -10.004)" fill="#01a8ab" fill-rule="evenodd"/>
    <path id="Path_14270" data-name="Path 14270" d="M81.955,266.567l-1.72-1.338-1.338-1.72-2.191-2.817-1.714,1.714,2.521,5.546,1.849.84,3.7,1.68,1.714-1.714Zm0,0" transform="translate(-69.879 -240.968)" fill="#01a8ab" fill-rule="evenodd"/>
    <path id="Path_14271" data-name="Path 14271" d="M19.483,332.161l-1.849-.84-.84-1.849L10,336.266l2.689,2.689Zm0,0" transform="translate(-10 -304.338)" fill="#01a8ab" fill-rule="evenodd"/>
  </g>
</svg>
