<svg id="Component_17_1" data-name="Component 17 – 1" xmlns="http://www.w3.org/2000/svg" width="34.617" height="34.617" viewBox="0 0 34.617 34.617">
  <path id="Path_14406" data-name="Path 14406" d="M139.9,20.053l4.68,5.657,5.655,6.835-1.338,1.72-1.72,1.338L139.9,29.582l-4.68-3.872L124.9,17.173,124.633,10l7.169.266Zm0,0" transform="translate(-124.633 -10.004)" fill="#a6d5d6" fill-rule="evenodd"/>
  <path id="Path_14407" data-name="Path 14407" d="M77.809,266.567l1.72-1.338,1.338-1.72,2.191-2.817,1.714,1.714-2.521,5.546-1.849.84-3.7,1.68-1.714-1.714Zm0,0" transform="translate(-55.269 -240.969)" fill="#a6d5d6" fill-rule="evenodd"/>
  <path id="Path_14408" data-name="Path 14408" d="M10,332.161l1.849-.84.84-1.849,6.794,6.794-2.689,2.689Zm0,0" transform="translate(15.135 -304.338)" fill="#a6d5d6" fill-rule="evenodd"/>
</svg>
