<svg xmlns="http://www.w3.org/2000/svg" width="20.852" height="20.852" viewBox="0 0 20.852 20.852"><path d="M8.96,0H.814A.814.814,0,0,0,0,.815V8.96a.814.814,0,0,0,.815.815H8.96a.814.814,0,0,0,.815-.815V.815A.814.814,0,0,0,8.96,0ZM20.35,11.14a.815.815,0,0,0-.888.176l-8.145,8.145a.815.815,0,0,0,.576,1.391h8.145a.814.814,0,0,0,.815-.815V11.892a.814.814,0,0,0-.5-.753ZM15.965,9.775a4.887,4.887,0,1,0-4.887-4.887A4.893,4.893,0,0,0,15.965,9.775ZM9.536,12.468l-3.5,3.5,3.5,3.5a.815.815,0,0,1-1.152,1.152l-3.5-3.5-3.5,3.5A.815.815,0,1,1,.239,19.462l3.5-3.5-3.5-3.5A.815.815,0,0,1,1.39,11.316l3.5,3.5,3.5-3.5a.815.815,0,0,1,1.152,1.152Zm0,0" transform="translate(0)" fill="#057a7f" opacity="0.13"/></svg>