<svg id="Component_7_1" data-name="Component 7 – 1" xmlns="http://www.w3.org/2000/svg" width="29.477" height="25.615" viewBox="0 0 29.477 25.615">
  <g id="video-camera" transform="translate(0 -21.802)">
    <g id="Group_10281" data-name="Group 10281" transform="translate(0 21.802)">
      <g id="Group_10280" data-name="Group 10280" transform="translate(0 0)">
        <path id="Path_14292" data-name="Path 14292" d="M261.536,164.845a1.2,1.2,0,0,0-1.665-.425l-4.039,2.338-1.027.6v5.6l.957.567c.035,0,.035.035.071.035l3.968,2.3a1.09,1.09,0,0,0,.673.213,1.2,1.2,0,0,0,1.2-1.2v-4.747l.035-4.677A.927.927,0,0,0,261.536,164.845Z" transform="translate(-232.235 -151.63)" fill="#e60019"/>
        <path id="Path_14293" data-name="Path 14293" d="M5.7,33.21a5.7,5.7,0,1,0-5.7-5.7A5.7,5.7,0,0,0,5.7,33.21Zm0-8.042a2.338,2.338,0,1,1-2.338,2.338A2.292,2.292,0,0,1,5.7,25.168Z" transform="translate(0 -21.802)" fill="#e60019"/>
        <path id="Path_14294" data-name="Path 14294" d="M33.288,150.556a6.79,6.79,0,0,1-3.047.744,6.625,6.625,0,0,1-3.685-1.1H22.517a6.625,6.625,0,0,1-3.685,1.1,6.356,6.356,0,0,1-3.047-.744A2.77,2.77,0,0,0,14.4,152.93v8.645a2.88,2.88,0,0,0,2.87,2.87H31.835a2.88,2.88,0,0,0,2.87-2.87V152.93A2.882,2.882,0,0,0,33.288,150.556Z" transform="translate(-13.128 -138.829)" fill="#e60019"/>
        <path id="Path_14295" data-name="Path 14295" d="M134.508,33.21a5.7,5.7,0,1,0-5.7-5.7A5.7,5.7,0,0,0,134.508,33.21Zm0-8.042a2.338,2.338,0,1,1-2.338,2.338A2.336,2.336,0,0,1,134.508,25.168Z" transform="translate(-117.395 -21.802)" fill="#e60019"/>
      </g>
    </g>
  </g>
</svg>
