<svg xmlns="http://www.w3.org/2000/svg" width="36.108" height="31.03" viewBox="0 0 36.108 31.03">
  <g id="photo" transform="translate(0 -27.517)">
    <path id="Path_14290" data-name="Path 14290" d="M35.746,33.446a2.474,2.474,0,0,0-1.535-1.13L14.992,27.589a2.491,2.491,0,0,0-3.014,1.824L11.4,31.765,1.79,34.815a2.573,2.573,0,0,0-1.716,3.06L4.7,56.667a2.47,2.47,0,0,0,2.392,1.881,2.493,2.493,0,0,0,.644-.085l14.8-3.959L28.4,55.947a2.491,2.491,0,0,0,3.014-1.824L36.035,35.33A2.474,2.474,0,0,0,35.746,33.446ZM7.311,55.71,2.806,37.4l7.818-2.481L7.356,48.206A2.494,2.494,0,0,0,9.18,51.22l7.773,1.912ZM30.972,44.328,28.343,40.28a1.7,1.7,0,0,0-2.511-.409l-5.6,4.452a.942.942,0,0,1-.594.2.961.961,0,0,1-.739-.338l-2.12-2.523a2.285,2.285,0,0,0-1.742-.772,2.132,2.132,0,0,0-.946.214l-2.443,1.217L14.6,30.343l18.682,4.595Z" transform="translate(0 0)" fill="#fff"/>
    <path id="Path_14291" data-name="Path 14291" d="M189.4,97.7a2.482,2.482,0,1,0-1.818-3A2.492,2.492,0,0,0,189.4,97.7Z" transform="translate(-170.208 -59.266)" fill="#fea701"/>
  </g>
</svg>
