<svg xmlns="http://www.w3.org/2000/svg" width="15.371" height="20.209" viewBox="0 0 15.371 20.209"><g transform="translate(-41.895)"><path d="M108.6,9.884c2.247,0,4.069-2.213,4.069-4.942S112.074,0,108.6,0s-4.069,2.213-4.069,4.942S106.357,9.884,108.6,9.884Z" transform="translate(-59.023)" fill="#fff"/><path d="M41.9,300.457c0-.166,0-.047,0,0Z" transform="translate(0 -283.028)" fill="#fff"/><path d="M308.085,301.637c0-.046,0-.316,0,0Z" transform="translate(-250.82 -284.078)" fill="#fff"/><path d="M57.269,184.707c-.075-4.755-.7-6.109-5.448-6.967a3.338,3.338,0,0,1-4.456,0c-4.7.848-5.359,2.183-5.445,6.812-.007.378-.01.4-.012.354,0,.082,0,.234,0,.5,0,0,1.131,2.281,7.684,2.281s7.684-2.281,7.684-2.281c0-.17,0-.289,0-.369A3.055,3.055,0,0,1,57.269,184.707Z" transform="translate(-0.012 -167.477)" fill="#fff"/></g></svg>