<svg id="Component_9_1" data-name="Component 9 – 1" xmlns="http://www.w3.org/2000/svg" width="245" height="247" viewBox="0 0 245 247">
  <g id="Component_7_1" data-name="Component 7 – 1">
    <g id="Component_8_1" data-name="Component 8 – 1">
      <rect id="Rectangle_1295" data-name="Rectangle 1295" width="245" height="232" rx="10" fill="#edf1f4" opacity="0.27"/>
    </g>
  </g>
  <path id="Rectangle_1369" data-name="Rectangle 1369" d="M10,0H235a10,10,0,0,1,10,10v7a0,0,0,0,1,0,0H0a0,0,0,0,1,0,0V10A10,10,0,0,1,10,0Z" fill="#f2cd19"/>
  <path id="Rectangle_1370" data-name="Rectangle 1370" d="M0,0H245a0,0,0,0,1,0,0V7a10,10,0,0,1-10,10H10A10,10,0,0,1,0,7V0A0,0,0,0,1,0,0Z" transform="translate(0 230)" fill="#f2cd19"/>
</svg>
