<svg xmlns="http://www.w3.org/2000/svg" width="350" height="320" viewBox="0 0 350 320">
  <g id="Group_11586" data-name="Group 11586" transform="translate(-549 -424)">
    <g id="Group_11587" data-name="Group 11587" transform="translate(-15)">
      <g id="Group_11583" data-name="Group 11583">
        <rect id="Rectangle_1360" data-name="Rectangle 1360" width="350" height="320" rx="10" transform="translate(564 424)" fill="#f7f8fa"/>
        <text id="Post_the_greatest_content_on_your_favorite_topics" data-name="Post the greatest content
on your favorite topics" transform="translate(739 655)" fill="#5e6778" font-size="18" font-family="Poppins-Regular, Poppins"><tspan x="-113.58" y="0">Post the greatest content</tspan><tspan x="-100.449" y="27">on your favorite topics</tspan></text>
        <g id="_002-advertising" data-name="002-advertising" transform="translate(682 490)">
          <g id="Group_11553" data-name="Group 11553" transform="translate(0 0)">
            <g id="Group_11552" data-name="Group 11552">
              <path id="Path_16129" data-name="Path 16129" d="M107.3,43.091A26.4,26.4,0,0,0,66.383,9.709a13.528,13.528,0,0,1-13.928,4.786,33.868,33.868,0,0,0-13.394-.958A34.241,34.241,0,0,0,9.753,42.576,33.748,33.748,0,0,0,13,62.322a13.192,13.192,0,0,0-1.509,26.273l2.035,20.878a3.773,3.773,0,0,0,3.773,3.773H28.309a3.773,3.773,0,0,0,2.864-1.321,3.856,3.856,0,0,0,.83-3.207l-5.044-20H27.9a47.089,47.089,0,0,1,6.237.449,41.427,41.427,0,0,0,37.626,24.075q1.868,0,3.773-.168a41.808,41.808,0,0,0,37.541-37.954A41.19,41.19,0,0,0,106.9,49.79,5.755,5.755,0,0,1,107.3,43.091ZM11.33,84.76a9.432,9.432,0,0,1,0-18.487Zm16.978,24.713-11.017-.189-2-20.562h7.77ZM15.1,84.948V66.084h3.773V84.948Zm12.792,0H22.649V66.084H27.9A50.807,50.807,0,0,0,44,63.469l8.831-2.943v29.98L44,87.563A50.814,50.814,0,0,0,27.9,84.948ZM109.3,74.82A37.669,37.669,0,0,1,38.779,90.008c1.354.323,2.7.69,4.031,1.132l20.751,6.916a1.878,1.878,0,0,0,2.477-1.788V86.835a7.546,7.546,0,0,0,7.546-7.546V71.743A7.546,7.546,0,0,0,66.038,64.2V54.765a1.886,1.886,0,0,0-2.483-1.79L42.8,59.89A47.1,47.1,0,0,1,27.9,62.311H17.3A30.148,30.148,0,0,1,51.437,18.13,17.293,17.293,0,0,0,69.3,12.1a22.625,22.625,0,0,1,35.066,28.6,9.532,9.532,0,0,0-.67,11.085A37.449,37.449,0,0,1,109.3,74.82Zm-52.7,16.944v-32.5l5.659-1.886V93.651Zm9.432-8.7V67.97a3.773,3.773,0,0,1,3.773,3.773v7.546A3.773,3.773,0,0,1,66.038,83.062Z" transform="translate(0 -0.041)" fill="#5e6778"/>
            </g>
          </g>
          <g id="Group_11555" data-name="Group 11555" transform="translate(26.422 77.362)">
            <g id="Group_11554" data-name="Group 11554">
              <rect id="Rectangle_1354" data-name="Rectangle 1354" width="7.546" height="3.773" fill="#5e6778"/>
            </g>
          </g>
          <g id="Group_11557" data-name="Group 11557" transform="translate(26.422 69.816)">
            <g id="Group_11556" data-name="Group 11556">
              <rect id="Rectangle_1355" data-name="Rectangle 1355" width="7.546" height="3.773" fill="#5e6778"/>
            </g>
          </g>
          <g id="Group_11559" data-name="Group 11559" transform="translate(81.13 16.995)">
            <g id="Group_11558" data-name="Group 11558">
              <path id="Path_16130" data-name="Path 16130" d="M358.824,80.5a1.888,1.888,0,0,0-.523-.523l-11.319-7.546A1.886,1.886,0,0,0,344.049,74V89.089a1.886,1.886,0,0,0,2.933,1.57L358.3,83.112A1.886,1.886,0,0,0,358.824,80.5Zm-11,5.067v-8.04l6.037,4.02Z" transform="translate(-344.049 -72.11)" fill="#5e6778"/>
            </g>
          </g>
          <g id="Group_11561" data-name="Group 11561" transform="translate(69.811 9.449)">
            <g id="Group_11560" data-name="Group 11560">
              <path id="Path_16131" data-name="Path 16131" d="M313.027,40.112A16.978,16.978,0,1,0,330.005,57.09,16.978,16.978,0,0,0,313.027,40.112Zm0,30.183A13.205,13.205,0,1,1,326.232,57.09,13.205,13.205,0,0,1,313.027,70.3Z" transform="translate(-296.049 -40.112)" fill="#5e6778"/>
            </g>
          </g>
          <g id="Group_11563" data-name="Group 11563" transform="translate(20.763 20.768)">
            <g id="Group_11562" data-name="Group 11562">
              <path id="Path_16132" data-name="Path 16132" d="M116.346,101.317H114.46a1.887,1.887,0,0,1-1.886-1.886V93.771a5.659,5.659,0,0,0-11.319,0v5.659a1.887,1.887,0,0,1-1.886,1.886,1.887,1.887,0,0,0-1.886-1.886H89.935a1.887,1.887,0,0,0-1.886,1.886v20.751a1.887,1.887,0,0,0,1.886,1.886h7.546a1.887,1.887,0,0,0,1.886-1.886h16.978a5.659,5.659,0,0,0,5.659-5.659v-9.432A5.66,5.66,0,0,0,116.346,101.317ZM95.595,120.182H91.822V103.2h3.773Zm22.638-3.773a1.887,1.887,0,0,1-1.886,1.886H99.368V105.09a5.659,5.659,0,0,0,5.659-5.659V93.771a1.886,1.886,0,0,1,3.773,0v5.659a5.659,5.659,0,0,0,5.659,5.659h1.886a1.887,1.887,0,0,1,1.886,1.886Z" transform="translate(-88.049 -88.112)" fill="#5e6778"/>
            </g>
          </g>
          <g id="Group_11565" data-name="Group 11565" transform="translate(82.367 66.04)">
            <g id="Group_11564" data-name="Group 11564">
              <path id="Path_16133" data-name="Path 16133" d="M370.921,282.559l-.8-.807a5.68,5.68,0,0,0-7.14-.706l-2.039,1.36-2.039-1.36a5.676,5.676,0,0,0-7.14.706l-.807.807a5.659,5.659,0,0,0,0,8l8.651,8.649a1.886,1.886,0,0,0,2.667,0l8.651-8.649A5.659,5.659,0,0,0,370.921,282.559Zm-2.664,5.333h0l-7.318,7.316-7.316-7.308a1.886,1.886,0,0,1,0-2.667l.806-.806a1.886,1.886,0,0,1,2.381-.236l3.084,2.056a1.886,1.886,0,0,0,2.094,0l3.086-2.056a1.886,1.886,0,0,1,2.379.234v-.008l.8.806A1.886,1.886,0,0,1,368.257,287.892Z" transform="translate(-349.294 -280.1)" fill="#5e6778"/>
            </g>
          </g>
          <g id="Group_11567" data-name="Group 11567" transform="translate(71.756 50.496)">
            <g id="Group_11566" data-name="Group 11566" transform="translate(0 0)">
              <rect id="Rectangle_1356" data-name="Rectangle 1356" width="7.778" height="3.771" transform="translate(0 7.545) rotate(-75.948)" fill="#5e6778"/>
            </g>
          </g>
          <g id="Group_11569" data-name="Group 11569" transform="translate(76.511 56.81)">
            <g id="Group_11568" data-name="Group 11568" transform="translate(0 0)">
              <rect id="Rectangle_1357" data-name="Rectangle 1357" width="8.436" height="3.773" transform="translate(0 3.773) rotate(-26.565)" fill="#5e6778"/>
            </g>
          </g>
          <g id="Group_11571" data-name="Group 11571" transform="translate(71.746 93.882)">
            <g id="Group_11570" data-name="Group 11570" transform="translate(0 0)">
              <rect id="Rectangle_1358" data-name="Rectangle 1358" width="3.771" height="7.778" transform="translate(0 0.914) rotate(-14.035)" fill="#5e6778"/>
            </g>
          </g>
          <g id="Group_11573" data-name="Group 11573" transform="translate(76.51 88.878)">
            <g id="Group_11572" data-name="Group 11572" transform="translate(0 0)">
              <rect id="Rectangle_1359" data-name="Rectangle 1359" width="3.773" height="8.436" transform="translate(0 3.375) rotate(-63.435)" fill="#5e6778"/>
            </g>
          </g>
          <g id="Group_11575" data-name="Group 11575" transform="translate(1.898 5.676)">
            <g id="Group_11574" data-name="Group 11574">
              <path id="Path_16134" data-name="Path 16134" d="M8.049,69.387h3.773c0-25.6,15.18-41.5,39.616-41.5V24.112C24.674,24.112,8.049,41.467,8.049,69.387Z" transform="translate(-8.049 -24.112)" fill="#5e6778"/>
            </g>
          </g>
        </g>
        <g id="Rectangle_1383" data-name="Rectangle 1383" transform="translate(577 436)" fill="none" stroke="#fff" stroke-width="3">
          <rect width="324" height="296" rx="10" stroke="none"/>
          <rect x="1.5" y="1.5" width="321" height="293" rx="8.5" fill="none"/>
        </g>
      </g>
    </g>
  </g>
</svg>
