<svg id="Group_11627" data-name="Group 11627" xmlns="http://www.w3.org/2000/svg" width="350" height="320" viewBox="0 0 350 320">
  <g id="Group_11584" data-name="Group 11584" transform="translate(-949 -424)">
    <rect id="Rectangle_1361" data-name="Rectangle 1361" width="350" height="320" rx="10" transform="translate(949 424)" fill="#f7f8fa"/>
    <text id="Vote_for_the_best" data-name="Vote for the best" transform="translate(1124 668)" fill="#5e6778" font-size="18" font-family="Poppins-Regular, Poppins"><tspan x="-74.241" y="0">Vote for the best</tspan></text>
    <g id="_003-voting" data-name="003-voting" transform="translate(1075 482)">
      <path id="Path_16135" data-name="Path 16135" d="M77,37.539l7.4-7.719,1.14,1.151a4.85,4.85,0,0,0,3.447,1.446h.023A4.849,4.849,0,0,0,92.441,31l5.387-5.335a4.889,4.889,0,0,0,.032-6.906l-7.523-7.594a1.826,1.826,0,0,0-2.594,2.57l7.523,7.594a1.232,1.232,0,0,1-.008,1.741l-5.386,5.336a1.226,1.226,0,0,1-.866.357H89a1.225,1.225,0,0,1-.869-.365l-2.357-2.379c-.032-.037-.063-.074-.1-.11l-5.437-5.478-9.265-9.352a1.232,1.232,0,0,1,.008-1.741l5.386-5.336a1.234,1.234,0,0,1,1.742.008l4.973,5.021a1.826,1.826,0,0,0,2.594-2.57L80.7,1.444A4.888,4.888,0,0,0,73.8,1.413L68.41,6.748a4.888,4.888,0,0,0-.97,5.559l-7.864-.968A12.681,12.681,0,0,0,48.851,15.2L36.344,28.431H26.865a5.418,5.418,0,0,0-5.412,5.413V54.313a1.826,1.826,0,1,0,3.651,0V33.843a1.762,1.762,0,0,1,1.761-1.761h19.8a7.006,7.006,0,0,0,6.153,10.36H65.5a15.959,15.959,0,0,0,6.757-1.516V74.212H25.106v-12.6a1.826,1.826,0,0,0-3.652,0v3.043H11.419a5.085,5.085,0,0,0-4.671,3.07L.826,81.448A3.9,3.9,0,0,0,.5,83.032c0,.019,0,.039,0,.058v33.052a5.572,5.572,0,0,0,5.566,5.566H91.3a5.572,5.572,0,0,0,5.566-5.566V83.06c0-.02,0-.04,0-.06a3.894,3.894,0,0,0-.3-1.51L90.816,67.782a5.072,5.072,0,0,0-4.692-3.123H75.909V38.565q.565-.486,1.086-1.026Zm9.13,30.771a1.429,1.429,0,0,1,1.322.881L93.188,82.9a.262.262,0,0,1-.242.363H85.322a1.826,1.826,0,1,0,0,3.651h7.624c.089,0,.177,0,.265-.009v29.237a1.916,1.916,0,0,1-1.914,1.914H6.066a1.916,1.916,0,0,1-1.914-1.914V86.906c.087.007.175.009.265.009H77.612a1.826,1.826,0,0,0,0-3.652H4.417a.262.262,0,0,1-.24-.367L10.1,69.177a1.435,1.435,0,0,1,1.319-.866H21.453v5.958H20.075a1.826,1.826,0,1,0,0,3.651H77.206a1.826,1.826,0,0,0,0-3.651h-1.3V68.311Zm-33.3-29.52a3.356,3.356,0,1,1,0-6.713h7.635a1.826,1.826,0,1,0,0-3.652H41.374L51.506,17.708a9.015,9.015,0,0,1,7.623-2.744l12,1.476,6.472,6.52,4.225,4.264-7.465,7.787a12.331,12.331,0,0,1-8.859,3.78H52.821Zm0,0" transform="translate(-0.501 0)" fill="#5e6778"/>
      <path id="Path_16136" data-name="Path 16136" d="M159.6,221.281a1.818,1.818,0,0,0,1.291-.535l15.095-15.094a1.826,1.826,0,0,0-2.582-2.582l-13.8,13.8-5.526-5.526a1.826,1.826,0,1,0-2.582,2.582l6.817,6.817A1.822,1.822,0,0,0,159.6,221.281Zm0,0" transform="translate(-115.189 -154.391)" fill="#5e6778"/>
      <path id="Path_16137" data-name="Path 16137" d="M67.181,397.637a4.478,4.478,0,0,0-4.474,4.473v5.741a4.478,4.478,0,0,0,4.474,4.474h57.84a4.478,4.478,0,0,0,4.474-4.474V402.11a4.478,4.478,0,0,0-4.474-4.473Zm58.662,4.473v5.741a.823.823,0,0,1-.822.822H67.181a.823.823,0,0,1-.822-.822V402.11a.823.823,0,0,1,.822-.822h57.84A.823.823,0,0,1,125.842,402.11Zm0,0" transform="translate(-47.92 -303.114)" fill="#5e6778"/>
    </g>
  </g>
  <g id="Group_11625" data-name="Group 11625" transform="translate(13 12)">
    <g id="Rectangle_1384" data-name="Rectangle 1384" fill="none" stroke="#fff" stroke-width="3">
      <rect width="324" height="296" rx="10" stroke="none"/>
      <rect x="1.5" y="1.5" width="321" height="293" rx="8.5" fill="none"/>
    </g>
  </g>
</svg>
