<svg xmlns="http://www.w3.org/2000/svg" width="350" height="320" viewBox="0 0 350 320">
  <g id="Group_11586" data-name="Group 11586" transform="translate(-1355.32 -424)">
    <g id="Group_11587" data-name="Group 11587" transform="translate(549 424)">
      <g id="Group_11585" data-name="Group 11585" transform="translate(806.32)">
        <rect id="Rectangle_1362" data-name="Rectangle 1362" width="350" height="320" rx="10" fill="#f7f8fa"/>
        <text id="Win_battles_cross_levels_and_become_a_trustable_citizen_by_contributing_to_global_knowledge" data-name="Win battles,
cross levels and become a
trustable citizen by contributing
to global knowledge" transform="translate(175 211)" fill="#5e6778" font-size="18" font-family="Poppins-Regular, Poppins"><tspan x="-52.155" y="0">Win battles,</tspan><tspan x="-120.672" y="22">cross levels and become a</tspan><tspan x="-142.299" y="44">trustable citizen by contributing</tspan><tspan x="-91.359" y="66">to global knowledge</tspan></text>
        <g id="Group_11582" data-name="Group 11582" transform="translate(99 43)">
          <g id="_005-swords" data-name="005-swords" transform="translate(40.475 57.497)">
            <path id="Path_16140" data-name="Path 16140" d="M439.123,57.432a1.371,1.371,0,0,1-.529-.105,1.41,1.41,0,0,1-.24-.127,1.431,1.431,0,0,1-.21-.173,1.382,1.382,0,0,1-.3-1.508,1.412,1.412,0,0,1,.127-.24,1.35,1.35,0,0,1,.172-.21,1.376,1.376,0,0,1,.45-.3,1.379,1.379,0,0,1,.8-.079,1.4,1.4,0,0,1,.5.206,1.371,1.371,0,0,1,.21.172,1.449,1.449,0,0,1,.173.21,1.41,1.41,0,0,1,.127.24,1.382,1.382,0,0,1-.3,1.508,1.328,1.328,0,0,1-.21.173,1.39,1.39,0,0,1-.5.206A1.383,1.383,0,0,1,439.123,57.432Zm0,0" transform="translate(-377.199 -47.095)" fill="#5e6778" stroke="#5e6778" stroke-width="0.5"/>
            <path id="Path_16141" data-name="Path 16141" d="M56.564,57.432a1.371,1.371,0,0,1-.531-.105A1.416,1.416,0,0,1,55.8,57.2a1.407,1.407,0,0,1-.383-.383,1.387,1.387,0,0,1-.207-.5,1.422,1.422,0,0,1,0-.541,1.42,1.42,0,0,1,.079-.259,1.477,1.477,0,0,1,.128-.24,1.42,1.42,0,0,1,.173-.21,1.382,1.382,0,0,1,.21-.172,1.415,1.415,0,0,1,.238-.127,1.391,1.391,0,0,1,.259-.079,1.362,1.362,0,0,1,.541,0,1.392,1.392,0,0,1,.259.079,1.378,1.378,0,0,1,.749.749,1.377,1.377,0,0,1,.078.259,1.314,1.314,0,0,1,0,.541,1.377,1.377,0,0,1-.078.259,1.422,1.422,0,0,1-.128.239,1.367,1.367,0,0,1-.171.21,1.409,1.409,0,0,1-.211.173,1.469,1.469,0,0,1-.239.127,1.371,1.371,0,0,1-.529.105Zm0,0" transform="translate(-47.609 -47.095)" fill="#5e6778" stroke="#5e6778" stroke-width="0.5"/>
            <path id="Path_16142" data-name="Path 16142" d="M70.241,55.356l-1.279-1.279a3.892,3.892,0,0,0-4.6-.67l-5.427-5.428L60.6,46.31a3.9,3.9,0,0,0,0-5.514l-1.263-1.263a3.9,3.9,0,0,0-5.513,0l-1.151,1.151L48.425,36.1l22.5-20.433a1.385,1.385,0,0,0,.453-1.052l-.26-13A1.384,1.384,0,0,0,69.758.261l-13-.26a1.368,1.368,0,0,0-1.053.453L35.932,22.237,16.167.455A1.386,1.386,0,0,0,15.114,0l-13,.26A1.384,1.384,0,0,0,.762,1.618l-.26,13a1.383,1.383,0,0,0,.454,1.052L23.4,36.042l-4.206,4.631-1.148-1.148a3.887,3.887,0,0,0-5.5,0L11.268,40.8a3.892,3.892,0,0,0,0,5.5l1.677,1.677L7.517,53.407a3.893,3.893,0,0,0-4.6.67L1.635,55.355a3.892,3.892,0,0,0,0,5.5l8.9,8.9a3.887,3.887,0,0,0,5.5,0l1.279-1.279a3.894,3.894,0,0,0,.668-4.6l5.428-5.429,1.676,1.677a3.887,3.887,0,0,0,5.5,0l1.279-1.279a3.893,3.893,0,0,0,0-5.5l-1.149-1.15L35.871,47.5l5.284,4.7-1.13,1.13a3.9,3.9,0,0,0,0,5.514l1.263,1.263a3.9,3.9,0,0,0,5.513,0l1.669-1.669L53.9,63.871a3.894,3.894,0,0,0,.668,4.6l1.278,1.279a3.888,3.888,0,0,0,5.5,0l8.9-8.9a3.891,3.891,0,0,0,0-5.5ZM50.713,42.643l-2.81,2.81L43.252,40.8l3.123-2.837ZM3.283,14.042,3.5,3,14.54,2.783,34.062,24.3l-3.479,3.832L14.366,11.909a1.384,1.384,0,0,0-1.958,1.958L28.719,30.181l-3.459,3.81ZM57.336,2.783,68.373,3l.221,11.039L28.75,50.232l-2.819-2.82L59.469,13.867a1.385,1.385,0,1,0-1.958-1.958L23.972,45.454l-2.819-2.82ZM15.352,66.515l-1.279,1.279a1.118,1.118,0,0,1-1.582,0l-8.9-8.9a1.12,1.12,0,0,1,0-1.582l1.279-1.279a1.118,1.118,0,0,1,1.582,0l.2.2h0l8.5,8.505h0l.2.2a1.12,1.12,0,0,1,0,1.581Zm.782-4.716L9.588,55.253,14.9,49.937l6.545,6.547ZM29.9,56.881,28.622,58.16a1.118,1.118,0,0,1-1.582,0L13.226,44.343a1.12,1.12,0,0,1,0-1.581L14.5,41.483a1.118,1.118,0,0,1,1.582,0L29.9,55.3A1.12,1.12,0,0,1,29.9,56.881Zm8.032-11.249L41.2,42.664l4.747,4.748-2.829,2.83Zm6.911,12.521a1.129,1.129,0,0,1-1.6,0L41.984,56.89a1.131,1.131,0,0,1,0-1.6l13.8-13.8a1.129,1.129,0,0,1,1.6,0l1.263,1.263a1.131,1.131,0,0,1,0,1.6Zm12.13-8.216,5.315,5.316L55.743,61.8l-5.314-5.315ZM68.283,58.9l-8.9,8.9a1.118,1.118,0,0,1-1.582,0l-1.279-1.279a1.121,1.121,0,0,1,0-1.582l.2-.2v0l8.7-8.7a1.119,1.119,0,0,1,1.583,0l1.278,1.279a1.119,1.119,0,0,1,0,1.581Zm0,0" transform="translate(-0.498 -0.001)" fill="#5e6778" stroke="#5e6778" stroke-width="0.5"/>
          </g>
          <g id="_006-group" data-name="006-group" transform="translate(0 0)">
            <g id="Group_11577" data-name="Group 11577" transform="translate(48.376 0)">
              <g id="Group_11576" data-name="Group 11576" transform="translate(0 0)">
                <g id="Subtraction_7" data-name="Subtraction 7" fill="#5e6778">
                  <path d="M 27.10698890686035 74.41473388671875 L 25.4224853515625 72.68088531494141 L 25.4224853515625 62.45099639892578 L 25.4224853515625 62.34744644165039 L 25.34926605224609 62.27421569824219 L 15.94516563415527 52.8701286315918 L 15.82375526428223 52.74872589111328 L 15.66685485839844 52.81844711303711 L 9.002534866333008 55.78005599975586 L 8.288684844970703 55.04529571533203 L 8.214095115661621 54.96852874755859 L 8.107065200805664 54.96951675415039 L 0.9987830519676208 55.03528594970703 C 1.126687288284302 54.97265243530273 1.255600333213806 54.91246795654297 1.38527524471283 54.85486602783203 L 14.28412532806396 49.12185668945312 C 15.28517532348633 48.67671585083008 15.93197536468506 47.68126678466797 15.93197536468506 46.58579635620117 L 15.93197536468506 43.04339599609375 L 15.93197536468506 42.92294692993164 L 15.83777523040771 42.84787750244141 C 11.37456512451172 39.29139709472656 8.814785003662109 33.99498748779297 8.814785003662109 28.31669616699219 L 8.814785003662109 27.33659744262695 L 8.814785003662109 27.18700790405273 L 8.682965278625488 27.11629676818848 C 8.485215187072754 27.01020622253418 8.294445037841797 26.88683700561523 8.115964889526367 26.74960708618164 C 7.052565097808838 25.92761611938477 6.442385196685791 24.6399974822998 6.442385196685791 23.2172966003418 L 6.442385196685791 18.82709693908691 C 6.442385196685791 8.583646774291992 14.77603530883789 0.2499969601631165 25.01948547363281 0.2499969601631165 L 29.76427459716797 0.2499969601631165 C 40.00772476196289 0.2499969601631165 48.34137344360352 8.583646774291992 48.34137344360352 18.82709693908691 L 48.34137344360352 19.3112964630127 C 48.34137344360352 20.89130783081055 47.48180389404297 22.34759712219238 46.09810638427734 23.11185646057129 L 45.96897506713867 23.18317604064941 L 45.96897506713867 23.33069610595703 L 45.96897506713867 28.31669616699219 C 45.96897506713867 33.99527740478516 43.40887451171875 39.29167556762695 38.94510650634766 42.84786605834961 L 38.85088348388672 42.92292785644531 L 38.85088348388672 43.04339599609375 L 38.85088348388672 46.58579635620117 C 38.85088348388672 47.68145751953125 39.49807357788086 48.67692565917969 40.49969482421875 49.12187576293945 L 53.39844512939453 54.8548469543457 C 53.7720832824707 55.02091979980469 54.13783645629883 55.20767593383789 54.49227905273438 55.4131965637207 L 47.13068389892578 55.4131965637207 L 47.03058624267578 55.4131965637207 L 46.95814514160156 55.4822883605957 L 46.37119674682617 56.04206085205078 L 39.11780548095703 52.81845855712891 L 38.96090698242188 52.74872589111328 L 38.83949661254883 52.8701286315918 L 29.43539619445801 62.27421569824219 L 29.36217498779297 62.34744644165039 L 29.36217498779297 62.45099639892578 L 29.36217498779297 72.263916015625 L 27.10698890686035 74.41473388671875 Z M 19.87078475952148 45.30603790283203 L 19.87078475952148 45.68219757080078 L 19.87078475952148 46.58579635620117 C 19.87078475952148 47.78649520874023 19.5436954498291 48.97163772583008 18.92486572265625 50.01308822631836 L 18.82559585571289 50.18014526367188 L 18.9629955291748 50.31756591796875 L 27.21418571472168 58.56967544555664 L 27.39096450805664 58.74646759033203 L 27.5677547454834 58.56968688964844 L 35.81985473632812 50.31757736206055 L 35.9572639465332 50.18015670776367 L 35.85799407958984 50.01309585571289 C 35.23858642578125 48.97063827514648 34.91117477416992 47.78549575805664 34.91117477416992 46.58579635620117 L 34.91117477416992 45.68310546875 L 34.91117477416992 45.30688858032227 L 34.56433486938477 45.4526252746582 C 32.28700637817383 46.40951538085938 29.87384605407715 46.89469528198242 27.39187431335449 46.89469528198242 C 24.91105461120605 46.89469528198242 22.49727439880371 46.40920639038086 20.21759605407715 45.45170593261719 L 19.87078475952148 45.30603790283203 Z M 15.52887535095215 21.10121726989746 L 15.52904510498047 21.10121726989746 C 16.07740592956543 21.10125732421875 16.60518455505371 21.33209609985352 16.97705459594727 21.73455619812012 C 17.71359443664551 22.5324764251709 17.66377449035645 23.78146743774414 16.86592483520508 24.5186767578125 C 15.6022253036499 25.68314743041992 14.27167510986328 26.54705619812012 12.91146564483643 27.0861873626709 L 12.75358486175537 27.14876747131348 L 12.75358486175537 27.3185977935791 L 12.75358486175537 28.31669616699219 C 12.75358486175537 36.38828659057617 19.3202953338623 42.95500564575195 27.39187431335449 42.95500564575195 C 35.46296691894531 42.95500564575195 42.02927398681641 36.38828659057617 42.02927398681641 28.31669616699219 L 42.02927398681641 24.30539703369141 L 42.02927398681641 24.02353668212891 L 41.74943542480469 24.05718612670898 C 40.10469436645508 24.25491714477539 38.46454620361328 24.35518646240234 36.87453460693359 24.35519790649414 C 33.53549575805664 24.3552360534668 30.43707466125488 23.91626739501953 27.66534614562988 23.05047607421875 C 24.20937538146973 21.97096633911133 21.25388526916504 20.22043609619141 18.88096618652344 17.8475170135498 C 18.50959587097168 17.47615623474121 18.3050651550293 16.98150634765625 18.3050651550293 16.45469665527344 C 18.3050651550293 15.92788696289062 18.50958442687988 15.43324661254883 18.88095474243164 15.06188678741455 C 19.25290489196777 14.68992710113525 19.74755477905273 14.48508739471436 20.27378463745117 14.48508739471436 C 20.79999542236328 14.48508739471436 21.29464530944824 14.68992710113525 21.6666145324707 15.06188678741455 C 23.68101501464844 17.07628631591797 28.33014488220215 20.45564651489258 36.83400344848633 20.45564651489258 C 39.1247444152832 20.45564651489258 41.56945419311523 20.20220756530762 44.10022354125977 19.70235633850098 C 44.27577590942383 19.66614723205566 44.40168380737305 19.50185775756836 44.40168380737305 19.3112964630127 L 44.40168380737305 18.82709693908691 C 44.40168380737305 10.75601673126221 37.83537673950195 4.189706802368164 29.76427459716797 4.189706802368164 L 25.01948547363281 4.189706802368164 C 16.94789505004883 4.189706802368164 10.38118553161621 10.75601673126221 10.38118553161621 18.82709693908691 L 10.38118553161621 23.21819686889648 C 10.38118553161621 23.37338638305664 10.41680526733398 23.47519683837891 10.44668483734131 23.53326606750488 L 10.52615547180176 23.68774604797363 L 10.698655128479 23.66712760925293 C 10.73065280914307 23.66330337524414 10.7623348236084 23.65704536437988 10.79287052154541 23.64850997924805 C 11.90836906433105 23.35723114013672 13.0525016784668 22.67597007751465 14.19366550445557 21.62357711791992 C 14.5586051940918 21.28669738769531 15.03275489807129 21.10121726989746 15.52887535095215 21.10121726989746 Z" stroke="none"/>
                  <path d="M 27.11369705200195 74.06285858154297 L 29.11217498779297 72.15686798095703 L 29.11217498779297 62.45099639892578 L 29.11217498779297 62.24388885498047 L 29.25862503051758 62.09744644165039 L 38.66272354125977 52.69335556030273 L 38.90553665161133 52.45053863525391 L 39.21933364868164 52.58999633789062 L 46.31977844238281 55.74562835693359 L 46.78560638427734 55.30136871337891 L 46.93048477172852 55.1631965637207 L 47.13068389892578 55.1631965637207 L 53.47254943847656 55.1631965637207 C 53.41421890258789 55.13604736328125 53.35565948486328 55.10940551757812 53.29691696166992 55.08329772949219 L 40.398193359375 49.35034561157227 C 39.30637359619141 48.86532592773438 38.60088348388672 47.78016662597656 38.60088348388672 46.58579635620117 L 38.60088348388672 43.04339599609375 L 38.60088348388672 42.80245590209961 L 38.78933334350586 42.65232849121094 C 43.19321441650391 39.14385604858398 45.71897506713867 33.91871643066406 45.71897506713867 28.31669616699219 L 45.71897506713867 23.33069610595703 L 45.71897506713867 23.03566741943359 L 45.97723388671875 22.89301681518555 C 47.28128433227539 22.1727466583252 48.09137344360352 20.80030632019043 48.09137344360352 19.3112964630127 L 48.09137344360352 18.82709693908691 C 48.09137344360352 8.72149658203125 39.86987686157227 0.4999969601631165 29.76427459716797 0.4999969601631165 L 25.01948547363281 0.4999969601631165 C 14.91388511657715 0.4999969601631165 6.692385196685791 8.72149658203125 6.692385196685791 18.82709693908691 L 6.692385196685791 23.2172966003418 C 6.692385196685791 24.56199645996094 7.267175197601318 25.77752685546875 8.268355369567871 26.55141639709473 C 8.43608570098877 26.68038749694824 8.615345001220703 26.79631614685059 8.801145553588867 26.89599609375 L 9.064785003662109 27.03741645812988 L 9.064785003662109 27.33659744262695 L 9.064785003662109 28.31669616699219 C 9.064785003662109 33.91843795776367 11.59022521972656 39.14358520507812 15.99356555938721 42.6523551940918 L 16.18197441101074 42.80248641967773 L 16.18197441101074 43.04339599609375 L 16.18197441101074 46.58579635620117 C 16.18197441101074 47.77993774414062 15.47691535949707 48.86505508422852 14.38565540313721 49.35030746459961 L 2.182029962539673 54.77432632446289 L 8.104744911193848 54.71952819824219 L 8.318815231323242 54.71754837036133 L 8.467995643615723 54.87109756469727 L 9.060346603393555 55.48080062866211 L 15.56533527374268 52.58999633789062 L 15.87912559509277 52.45054626464844 L 16.12193489074707 52.69335556030273 L 25.52603530883789 62.09744644165039 L 25.6724853515625 62.24388885498047 L 25.6724853515625 62.45099639892578 L 25.6724853515625 72.57944488525391 L 27.11369705200195 74.06285858154297 M 19.62078475952148 44.92987823486328 L 20.31440544128418 45.22120666503906 C 22.56327438354492 46.16576766967773 24.9444751739502 46.64469528198242 27.39187431335449 46.64469528198242 C 29.84040451049805 46.64469528198242 32.22098541259766 46.16607666015625 34.46748352050781 45.22214508056641 L 35.16117477416992 44.9306755065918 L 35.16117477416992 45.68310546875 L 35.16117477416992 46.58579635620117 C 35.16117477416992 47.74057769775391 35.47645568847656 48.88155746459961 36.07291412353516 49.8853874206543 L 36.27145385742188 50.21951675415039 L 35.99662399291992 50.49434661865234 L 27.74452590942383 58.74645614624023 L 27.39095497131348 59.10003662109375 L 27.03740501403809 58.74643707275391 L 18.78621482849121 50.49432754516602 L 18.51141548156738 50.21949768066406 L 18.70994567871094 49.8853874206543 C 19.30582618713379 48.88254547119141 19.62078475952148 47.7415657043457 19.62078475952148 46.58579635620117 L 19.62078475952148 45.68219757080078 L 19.62078475952148 44.92987823486328 M 15.52887535095215 21.35121726989746 C 15.09579563140869 21.35121726989746 14.68186569213867 21.51314735412598 14.36315536499023 21.80735778808594 C 13.19238090515137 22.88705825805664 12.01331043243408 23.58764457702637 10.8585147857666 23.88974189758301 C 10.81618690490723 23.9014778137207 10.77242374420166 23.91009712219238 10.72831535339355 23.91536712646484 L 10.38332557678223 23.95659637451172 L 10.22437477111816 23.64763641357422 C 10.18186569213867 23.56500625610352 10.13118553161621 23.42342758178711 10.13118553161621 23.21819686889648 L 10.13118553161621 18.82709693908691 C 10.13118553161621 10.61816692352295 16.81004524230957 3.939707040786743 25.01948547363281 3.939707040786743 L 29.76427459716797 3.939707040786743 C 37.97322463989258 3.939707040786743 44.65168380737305 10.61816692352295 44.65168380737305 18.82709693908691 L 44.65168380737305 19.3112964630127 C 44.65168380737305 19.61988639831543 44.44188690185547 19.88714790344238 44.14866638183594 19.94761657714844 C 41.60197448730469 20.45060729980469 39.14096450805664 20.70564651489258 36.83400344848633 20.70564651489258 C 28.24004554748535 20.70564651489258 23.53158569335938 17.2804069519043 21.48983573913574 15.23866653442383 C 21.16509437561035 14.91392707824707 20.73322486877441 14.73508739471436 20.27378463745117 14.73508739471436 C 19.81433486938477 14.73508739471436 19.38246536254883 14.91392707824707 19.05773544311523 15.23866653442383 C 18.73358535766602 15.56280708312988 18.5550651550293 15.99466705322266 18.5550651550293 16.45469665527344 C 18.5550651550293 16.91472625732422 18.73358535766602 17.34659767150879 19.05773544311523 17.67074775695801 C 21.40178489685059 20.01479721069336 24.32288551330566 21.7445068359375 27.7398853302002 22.81184768676758 C 30.48746490478516 23.67008781433105 33.56080627441406 24.1052360534668 36.87453460693359 24.10519790649414 C 38.45460510253906 24.10518646240234 40.084716796875 24.00552749633789 41.71959686279297 23.80896759033203 L 42.27927398681641 23.7416877746582 L 42.27927398681641 24.30539703369141 L 42.27927398681641 28.31669616699219 C 42.27927398681641 36.52613830566406 35.60081481933594 43.20500564575195 27.39187431335449 43.20500564575195 C 19.18244552612305 43.20500564575195 12.50358486175537 36.52613830566406 12.50358486175537 28.31669616699219 L 12.50358486175537 27.3185977935791 L 12.50358486175537 26.97893714904785 L 12.81934547424316 26.8537769317627 C 14.15091514587402 26.32599639892578 15.45546531677246 25.47842788696289 16.69626617431641 24.33506774902344 C 17.39291572570801 23.69135665893555 17.43643569946289 22.60079765319824 16.7934455871582 21.90421676635742 C 16.46874618530273 21.55280685424805 16.00787544250488 21.35124778747559 15.52904510498047 21.35121726989746 L 15.52887535095215 21.35121726989746 M 27.10028457641602 74.76659393310547 L 27.09959602355957 74.76588439941406 L 25.1724853515625 72.78233337402344 L 25.1724853515625 62.45099639892578 L 15.76838493347168 53.04690551757812 L 8.944725036621094 56.07932662963867 L 8.109375 55.21950531005859 L 5.244140538707143e-06 55.29453659057617 C 0.4162852466106415 55.0439567565918 0.848385214805603 54.81979751586914 1.283785223960876 54.62639617919922 L 14.18258571624756 48.89340591430664 C 15.09343528747559 48.48837661743164 15.68197536468506 47.58259582519531 15.68197536468506 46.58579635620117 L 15.68197536468506 43.04339599609375 C 11.15903568267822 39.43931579589844 8.564785003662109 34.07135772705078 8.564785003662109 28.31669616699219 L 8.564785003662109 27.33659744262695 C 8.354385375976562 27.22372627258301 8.151935577392578 27.09261703491211 7.963585376739502 26.94779777526855 C 6.837955474853516 26.07770729064941 6.192385196685791 24.71798706054688 6.192385196685791 23.2172966003418 L 6.192385196685791 18.82709693908691 C 6.192385196685791 8.445806503295898 14.63818550109863 -3.033447228517616e-06 25.01948547363281 -3.033447228517616e-06 L 29.76427459716797 -3.033447228517616e-06 C 40.14558410644531 -3.033447228517616e-06 48.59137344360352 8.445806503295898 48.59137344360352 18.82709693908691 L 48.59137344360352 19.3112964630127 C 48.59137344360352 20.98229789733887 47.68232345581055 22.52243614196777 46.21897506713867 23.33069610595703 L 46.21897506713867 28.31669616699219 C 46.21897506713867 34.07181549072266 43.62453460693359 39.43950653076172 39.10088348388672 43.04339599609375 L 39.10088348388672 46.58579635620117 C 39.10088348388672 47.58275604248047 39.68977355957031 48.488525390625 40.6011848449707 48.89340591430664 L 53.49998474121094 54.62639617919922 C 54.14788436889648 54.91437530517578 54.7725944519043 55.26322555541992 55.35675430297852 55.6631965637207 L 47.13068389892578 55.6631965637207 L 46.42261505126953 56.33848571777344 L 39.01627349853516 53.04690551757812 L 29.61217498779297 62.45099639892578 L 29.61217498779297 72.37094879150391 L 27.10100555419922 74.76590728759766 L 27.10028457641602 74.76659393310547 Z M 20.12078475952148 45.68219757080078 L 20.12078475952148 46.58579635620117 C 20.12078475952148 47.83141708374023 19.78155517578125 49.06072616577148 19.13978576660156 50.14079666137695 L 27.39097595214844 58.39290618896484 L 35.64307403564453 50.14079666137695 C 35.00066375732422 49.05964660644531 34.66117477416992 47.82992553710938 34.66117477416992 46.58579635620117 L 34.66117477416992 45.68310546875 C 32.3522834777832 46.65325546264648 29.90607452392578 47.14469528198242 27.39187431335449 47.14469528198242 C 24.87762451171875 47.14469528198242 22.4312744140625 46.65263748168945 20.12078475952148 45.68219757080078 Z M 15.52887535095215 20.85121726989746 L 15.52904510498047 20.85121726989746 C 16.14691543579102 20.85125732421875 16.74163436889648 21.11138725280762 17.16067504882812 21.56489753723145 C 17.99074554443359 22.46414756774902 17.93463516235352 23.8715763092041 17.03558540344238 24.70229721069336 C 15.74898529052734 25.88786697387695 14.39242553710938 26.76811790466309 13.00358486175537 27.3185977935791 L 13.00358486175537 28.31669616699219 C 13.00358486175537 36.25044631958008 19.45814514160156 42.70500564575195 27.39187431335449 42.70500564575195 C 35.32511520385742 42.70500564575195 41.77927398681641 36.25044631958008 41.77927398681641 28.31669616699219 L 41.77927398681641 24.30539703369141 C 40.12186431884766 24.50465774536133 38.47129440307617 24.60518646240234 36.87453460693359 24.60519790649414 C 33.51018524169922 24.6052360534668 30.38668441772461 24.16243743896484 27.59080505371094 23.28910636901855 C 24.09587478637695 22.19742774963379 21.10597610473633 20.42608642578125 18.70418548583984 18.0242977142334 C 17.83869552612305 17.15881729125977 17.83869552612305 15.75057697296143 18.70418548583984 14.88510704040527 C 19.12334442138672 14.4659366607666 19.6807746887207 14.23508739471436 20.27378463745117 14.23508739471436 C 20.86679458618164 14.23508739471436 21.4242057800293 14.4659366607666 21.84338569641113 14.88510704040527 C 23.8304443359375 16.87215614318848 28.42023468017578 20.20564651489258 36.83400344848633 20.20564651489258 C 39.10852432250977 20.20564651489258 41.53693389892578 19.95379638671875 44.05178451538086 19.45709609985352 C 44.10873413085938 19.44534683227539 44.15168380737305 19.38266754150391 44.15168380737305 19.3112964630127 L 44.15168380737305 18.82709693908691 C 44.15168380737305 10.8938570022583 37.69751358032227 4.439706802368164 29.76427459716797 4.439706802368164 L 25.01948547363281 4.439706802368164 C 17.08573532104492 4.439706802368164 10.63118553161621 10.8938570022583 10.63118553161621 18.82709693908691 L 10.63118553161621 23.21819686889648 C 10.63118553161621 23.3329963684082 10.65761566162109 23.39679718017578 10.66898536682129 23.41889762878418 C 10.68764495849609 23.41666603088379 10.70710563659668 23.41301727294922 10.72748565673828 23.40719604492188 C 11.80355548858643 23.12671661376953 12.9127254486084 22.46479606628418 14.02418518066406 21.43979644775391 C 14.43534564971924 21.06024742126465 14.96972560882568 20.85121726989746 15.52887535095215 20.85121726989746 Z" stroke="none" fill="#fff"/>
                </g>
              </g>
            </g>
            <g id="Group_11579" data-name="Group 11579" transform="translate(0 11.862)">
              <g id="Group_11578" data-name="Group 11578">
                <g id="Path_16144" data-name="Path 16144" transform="translate(0 -132.265)" fill="#5e6778">
                  <path d="M 23.57215881347656 217.1197662353516 C 22.48603630065918 217.1197662353516 21.60241508483887 216.2361602783203 21.60241508483887 215.1500549316406 L 21.60241508483887 192.3444671630859 L 21.60241508483887 192.2409210205078 L 21.5291919708252 192.1677093505859 L 16.10208129882812 186.7402648925781 L 15.94814777374268 186.5863342285156 L 15.77451419830322 186.7176361083984 C 15.43270301818848 186.9761199951172 15.07548046112061 187.1991882324219 14.71273612976074 187.3806762695312 L 7.03516960144043 191.2193450927734 C 6.635191917419434 191.4196166992188 6.260502815246582 191.6729431152344 5.921369552612305 191.9723663330078 L 5.713069915771484 192.1562652587891 L 5.917881011962891 192.3440399169922 C 5.928480625152588 192.3537750244141 5.939258575439453 192.3632202148438 5.950069904327393 192.3726959228516 C 5.9619140625 192.383056640625 5.97391414642334 192.393310546875 5.985269546508789 192.4046783447266 L 11.01811408996582 197.4375 C 12.7343921661377 199.1540679931641 13.67960262298584 201.4360809326172 13.67960262298584 203.8631286621094 L 13.67960262298584 215.1497344970703 C 13.67960262298584 216.2358703613281 12.79598045349121 217.1195068359375 11.70986938476562 217.1195068359375 C 10.62374782562256 217.1195068359375 9.74012565612793 216.2358703613281 9.74012565612793 215.1497344970703 L 9.74012565612793 203.8631286621094 C 9.74012565612793 202.4883728027344 9.204669952392578 201.1956024169922 8.232392311096191 200.2229919433594 L 4.61625862121582 196.6068725585938 L 4.189480781555176 196.1800994873047 L 4.189480781555176 196.7836456298828 L 4.189480781555176 215.1497344970703 C 4.189480781555176 216.2358703613281 3.305858612060547 217.1195068359375 2.219736337661743 217.1195068359375 C 1.133625268936157 217.1195068359375 0.2500030398368835 216.2358703613281 0.2500030398368835 215.1497344970703 L 0.2500030398368835 195.8235321044922 C 0.2500030398368835 192.3594665527344 2.174769639968872 189.2448883056641 5.273158550262451 187.6952819824219 L 12.95076942443848 183.8566284179688 C 13.89696979522705 183.3833770751953 14.48474788665771 182.4321899414062 14.48474788665771 181.3742065429688 L 14.48474788665771 176.4928436279297 L 14.48474788665771 176.3618011474609 L 14.37698078155518 176.2872467041016 C 9.987780570983887 173.2506561279297 7.367369651794434 168.2664642333984 7.367369651794434 162.9545135498047 L 7.367369651794434 158.2095794677734 C 7.367369651794434 155.4595794677734 8.072669982910156 152.7414855957031 9.407013893127441 150.34912109375 C 10.69983673095703 148.0312347412109 12.56345844268799 146.0425109863281 14.79642486572266 144.5979309082031 L 14.95600318908691 144.4947052001953 L 14.89921379089355 144.3133392333984 C 14.62439155578613 143.4355010986328 14.48504734039307 142.5233154296875 14.48504734039307 141.6021118164062 C 14.48504734039307 136.5914611816406 18.56150245666504 132.5149993896484 23.57215881347656 132.5149993896484 C 28.58281326293945 132.5149993896484 32.65927124023438 136.5914611816406 32.65927124023438 141.6021118164062 C 32.65927124023438 142.5177612304688 32.51969146728516 143.4298553466797 32.24440383911133 144.3130645751953 L 32.18792343139648 144.4942626953125 L 32.34728240966797 144.5973510742188 C 34.58043670654297 146.0420989990234 36.4442024230957 148.0309143066406 37.73710250854492 150.3488311767578 C 39.07157135009766 152.7412719726562 39.77693557739258 155.45947265625 39.77693557739258 158.2095794677734 L 39.77693557739258 162.9553985595703 C 39.77693557739258 168.2673645019531 37.15652465820312 173.2515563964844 32.76732635498047 176.2881317138672 L 32.6595573425293 176.3626861572266 L 32.6595573425293 176.4937286376953 L 32.6595573425293 181.3750762939453 C 32.6595573425293 182.4329223632812 33.24745941162109 183.384033203125 34.1938362121582 183.8572235107422 L 36.31085968017578 184.9158630371094 C 36.78150177001953 185.151123046875 37.1323127746582 185.5555419921875 37.29870223999023 186.0546569824219 C 37.46509170532227 186.5537872314453 37.42710113525391 187.0878448486328 37.19173812866211 187.5584564208984 C 36.8557014465332 188.2302856445312 36.17995834350586 188.6476440429688 35.42823791503906 188.6476440429688 C 35.1213493347168 188.6476440429688 34.82549285888672 188.5774688720703 34.54890441894531 188.4390716552734 L 32.43182373046875 187.38037109375 C 32.0698356628418 187.1995239257812 31.7126579284668 186.9764709472656 31.37012481689453 186.7173614501953 L 31.19648170471191 186.5859985351562 L 31.04252433776855 186.7399597167969 L 25.61511421203613 192.1673889160156 L 25.54189109802246 192.2406005859375 L 25.54189109802246 192.3441619873047 L 25.54189109802246 215.1500549316406 C 25.54189109802246 216.2361602783203 24.65826988220215 217.1197662353516 23.57215881347656 217.1197662353516 Z M 18.42451477050781 178.3249053955078 L 18.42451477050781 178.6649475097656 L 18.42451477050781 181.37451171875 C 18.42451477050781 181.9475250244141 18.34929275512695 182.5255737304688 18.20092582702637 183.0926208496094 L 18.16463661193848 183.2313079833984 L 18.2660026550293 183.3326721191406 L 23.3953800201416 188.4620666503906 L 23.57215881347656 188.6388549804688 L 23.74893569946289 188.4620666503906 L 28.87830352783203 183.3326721191406 L 28.97968101501465 183.2312774658203 L 28.94338035583496 183.0925903320312 C 28.79501342773438 182.5258026123047 28.71977996826172 181.9477691650391 28.71977996826172 181.37451171875 L 28.71977996826172 178.6649475097656 L 28.71977996826172 178.3249053955078 L 28.39521408081055 178.4263305664062 C 26.83876991271973 178.9127044677734 25.2160587310791 179.1593170166016 23.57215881347656 179.1593170166016 C 21.92825889587402 179.1593170166016 20.3055362701416 178.9127044677734 18.74908065795898 178.4263305664062 L 18.42451477050781 178.3249053955078 Z M 18.70271492004395 158.6095886230469 L 18.53293609619141 158.7461242675781 C 15.81481456756592 160.9321441650391 13.20859146118164 161.8586273193359 11.50086975097656 162.2509307861328 L 11.30684757232666 162.2955017089844 L 11.30684757232666 162.4945831298828 L 11.30684757232666 162.9545135498047 C 11.30684757232666 169.7176208496094 16.80904769897461 175.2198028564453 23.57215881347656 175.2198028564453 C 26.7256031036377 175.2198028564453 29.72392463684082 174.0206756591797 32.01480484008789 171.8433074951172 C 34.29703521728516 169.6741638183594 35.64775848388672 166.7567291259766 35.81814575195312 163.6284332275391 L 35.8363151550293 163.2947540283203 L 35.51108169555664 163.3715209960938 C 34.08973693847656 163.7070007324219 32.66926956176758 163.8771209716797 31.28914833068848 163.8771209716797 C 28.36610221862793 163.8771209716797 25.55220222473145 163.1507110595703 22.92560386657715 161.7180938720703 C 21.4659252166748 160.9219665527344 20.09844779968262 159.9264221191406 18.86118125915527 158.7590942382812 L 18.70271492004395 158.6095886230469 Z M 18.8288688659668 153.8678741455078 C 18.87481498718262 153.8678741455078 18.92135810852051 153.8695068359375 18.96721458435059 153.8727111816406 C 19.53659248352051 153.9131774902344 20.06003570556641 154.1985626220703 20.4030704498291 154.6556549072266 C 20.56891441345215 154.8728332519531 24.51269149780273 159.9347229003906 31.27909278869629 159.9341888427734 C 32.71133804321289 159.93408203125 34.18550491333008 159.7050323486328 35.66064834594727 159.2533874511719 L 35.83745956420898 159.1992645263672 L 35.83745956420898 159.0143432617188 L 35.83745956420898 158.2098846435547 C 35.83745956420898 151.4467926025391 30.33526992797852 145.9446105957031 23.57215881347656 145.9446105957031 C 20.35628128051758 145.9446105957031 17.31540298461914 147.1853485107422 15.00966930389404 149.4382629394531 C 12.70828056335449 151.6869354248047 11.39612483978271 154.6905364990234 11.31491374969482 157.8957672119141 L 11.3059253692627 158.2505340576172 L 11.64300346374512 158.1395721435547 C 13.06885814666748 157.6701965332031 15.23104763031006 156.6481628417969 17.43451499938965 154.4447021484375 C 17.80112457275391 154.0781097412109 18.30934715270996 153.8678741455078 18.8288688659668 153.8678741455078 Z M 23.57214736938477 142.0048217773438 C 25.18509101867676 142.0048217773438 26.78212547302246 142.2439880371094 28.31888008117676 142.7156829833984 L 28.58880233764648 142.7985229492188 L 28.63835906982422 142.5205535888672 C 28.69238090515137 142.2174530029297 28.71977996826172 141.908447265625 28.71977996826172 141.6021118164062 C 28.71977996826172 138.7636871337891 26.41057014465332 136.4544677734375 23.57215881347656 136.4544677734375 C 20.7337474822998 136.4544677734375 18.42452430725098 138.7636871337891 18.42451477050781 141.6021118164062 C 18.42451477050781 141.8875122070312 18.45339202880859 142.1873474121094 18.51279258728027 142.5187530517578 L 18.56254768371582 142.7963256835938 L 18.8321590423584 142.7136535644531 C 20.36599159240723 142.2433166503906 21.96074676513672 142.0048217773438 23.57214736938477 142.0048217773438 Z" stroke="none"/>
                  <path d="M 23.57215881347656 132.7649993896484 C 18.6993579864502 132.7649993896484 14.73504829406738 136.7293090820312 14.73504829406738 141.6021118164062 C 14.73504829406738 142.4979553222656 14.87054824829102 143.385009765625 15.13780212402344 144.2386322021484 L 15.25135803222656 144.6013641357422 L 14.93222618103027 144.8078308105469 C 12.73343658447266 146.2303009033203 10.89834785461426 148.1885681152344 9.625358581542969 150.4709014892578 C 8.311725616455078 152.8261260986328 7.61737060546875 155.5021209716797 7.61737060546875 158.2095794677734 L 7.61737060546875 162.9545135498047 C 7.61737060546875 168.1844024658203 10.19750213623047 173.0917510986328 14.51922607421875 176.0816497802734 L 14.7347469329834 176.2307586669922 L 14.7347469329834 176.4928436279297 L 14.7347469329834 181.3742065429688 C 14.7347469329834 182.5274810791016 14.09402465820312 183.5643463134766 13.06257057189941 184.0802307128906 L 5.384990692138672 187.9188690185547 C 2.371826171875 189.4258575439453 0.5000038146972656 192.4547424316406 0.5000038146972656 195.8235321044922 L 0.5000038146972656 215.1497344970703 C 0.5000038146972656 216.0980224609375 1.271469116210938 216.8695068359375 2.219738006591797 216.8695068359375 C 3.168003082275391 216.8695068359375 3.939479827880859 216.0980224609375 3.939479827880859 215.1497344970703 L 3.939479827880859 196.7836456298828 L 3.939479827880859 195.5765533447266 L 4.793037414550781 196.4300994873047 L 8.409191131591797 200.0462493896484 C 9.428668975830078 201.0660858154297 9.99012565612793 202.4216003417969 9.99012565612793 203.8631286621094 L 9.99012565612793 215.1497344970703 C 9.99012565612793 216.0980224609375 10.7616024017334 216.8695068359375 11.70986938476562 216.8695068359375 C 12.65813636779785 216.8695068359375 13.42960357666016 216.0980224609375 13.42960357666016 215.1497344970703 L 13.42960357666016 203.8631286621094 C 13.42960357666016 201.5028533935547 12.51039123535156 199.2836151123047 10.84133720397949 197.6142883300781 L 5.808525085449219 192.5814666748047 C 5.801124572753906 192.5740966796875 5.793159484863281 192.5675811767578 5.785434722900391 192.5608215332031 C 5.773181915283203 192.5500946044922 5.760959625244141 192.5393524169922 5.748924255371094 192.5283203125 L 5.339313507080078 192.1527557373047 L 5.755901336669922 191.7849578857422 C 6.111213684082031 191.4712371826172 6.503925323486328 191.2057495117188 6.923370361328125 190.9957427978516 L 14.60087013244629 187.1571197509766 C 14.95001411437988 186.9824066162109 15.29414749145508 186.7674560546875 15.62371444702148 186.5182342529297 L 15.97100257873535 186.2555999755859 L 16.27886962890625 186.5634918212891 L 21.70598030090332 191.9909210205078 L 21.85241508483887 192.1373748779297 L 21.85241508483887 192.3444671630859 L 21.85241508483887 215.1500549316406 C 21.85241508483887 216.0983123779297 22.62389183044434 216.8697662353516 23.57215881347656 216.8697662353516 C 24.52042388916016 216.8697662353516 25.29189300537109 216.0983123779297 25.29189300537109 215.1500549316406 L 25.29189300537109 192.3441619873047 L 25.29189300537109 192.1370544433594 L 25.43833541870117 191.9906005859375 L 30.86574745178223 186.5631713867188 L 31.17366981506348 186.2552490234375 L 31.52095794677734 186.5179748535156 C 31.85120391845703 186.7678070068359 32.19522476196289 186.9827117919922 32.54363632202148 187.1567687988281 L 34.66078186035156 188.2154998779297 C 34.90232467651367 188.3363647460938 35.16052627563477 188.3976440429688 35.42822647094727 188.3976440429688 C 36.08467102050781 188.3976440429688 36.67473602294922 188.0332336425781 36.96814727783203 187.4466094970703 C 37.17363739013672 187.0357666015625 37.20679092407227 186.5694885253906 37.0615348815918 186.1337280273438 C 36.9162712097168 185.6979675292969 36.60999298095703 185.3448791503906 36.19903564453125 185.1394653320312 L 34.08202362060547 184.080810546875 C 33.0504150390625 183.5650024414062 32.4095573425293 182.5282287597656 32.4095573425293 181.3750762939453 L 32.4095573425293 176.4937286376953 L 32.4095573425293 176.2316436767578 L 32.62509155273438 176.0825347900391 C 36.94680404663086 173.0926513671875 39.52693557739258 168.185302734375 39.52693557739258 162.9553985595703 L 39.52693557739258 158.2095794677734 C 39.52693557739258 155.5019989013672 38.83252716064453 152.8259124755859 37.51876831054688 150.4706115722656 C 36.24570465087891 148.188232421875 34.41046905517578 146.2298889160156 32.21149063110352 144.8072662353516 L 31.89278030395508 144.6010589599609 L 32.0057258605957 144.2386627197266 C 32.27350234985352 143.3795776367188 32.40927124023438 142.4925079345703 32.40927124023438 141.6021118164062 C 32.40927124023438 136.7293090820312 28.4449577331543 132.7649993896484 23.57215881347656 132.7649993896484 M 28.78538131713867 143.1203765869141 L 28.24552536010742 142.9546661376953 C 26.73253631591797 142.4902801513672 25.16018104553223 142.2548217773438 23.57214736938477 142.2548217773438 C 21.98560333251953 142.2548217773438 20.41550254821777 142.4896087646484 18.90545845031738 142.9526672363281 L 18.36622619628906 143.1180267333984 L 18.26671409606934 142.5628509521484 C 18.20466995239258 142.2167205810547 18.17451477050781 141.9024658203125 18.17451477050781 141.6021118164062 C 18.17452430725098 138.6258392333984 20.59589195251465 136.2044677734375 23.57214736938477 136.2044677734375 C 26.54841423034668 136.2044677734375 28.96977996826172 138.6258392333984 28.96977996826172 141.6021118164062 C 28.96977996826172 141.9231109619141 28.94108200073242 142.2468872070312 28.88447952270508 142.5644226074219 L 28.78538131713867 143.1203765869141 M 31.2790584564209 160.1841888427734 C 28.45334625244141 160.1841888427734 25.67508125305176 159.2911834716797 23.24461364746094 157.6016998291016 C 21.36713600158691 156.296630859375 20.31899261474609 154.9574737548828 20.2031135559082 154.8057098388672 C 19.90359115600586 154.4066009521484 19.44656944274902 154.1574096679688 18.94974708557129 154.1221008300781 C 18.90965843200684 154.1192779541016 18.86900329589844 154.1178588867188 18.82890319824219 154.1178588867188 C 18.37518119812012 154.1178588867188 17.93136978149414 154.3014221191406 17.61129188537598 154.6214752197266 C 15.3730583190918 156.8597106933594 13.17281341552734 157.8991546630859 11.7211799621582 158.3770294189453 L 11.04702568054199 158.5989532470703 L 11.06499099731445 157.8894348144531 C 11.14786911010742 154.6187438964844 12.48672485351562 151.5538787841797 14.83495903015137 149.2594451904297 C 17.18766975402832 146.9606323242188 20.29059219360352 145.6946105957031 23.57214736938477 145.6946105957031 C 30.47311401367188 145.6946105957031 36.08745956420898 151.3089447021484 36.08745956420898 158.2098846435547 L 36.08745956420898 159.0143432617188 L 36.08745956420898 159.3841552734375 L 35.73383712768555 159.492431640625 C 34.23456954956055 159.9514465332031 32.73577117919922 160.1841888427734 31.2790584564209 160.1841888427734 M 31.28914642333984 163.6271209716797 C 32.64995956420898 163.6271209716797 34.05109405517578 163.4592590332031 35.45364761352539 163.1282043457031 L 36.1041259765625 162.9746551513672 L 36.06776809692383 163.6420135498047 C 35.89389038085938 166.8342895507812 34.51569366455078 169.8112335205078 32.18702697753906 172.0245208740234 C 29.84947967529297 174.2462463378906 26.78999328613281 175.4698028564453 23.57214736938477 175.4698028564453 C 16.67119216918945 175.4698028564453 11.05684661865234 169.85546875 11.05684661865234 162.9545135498047 L 11.05684661865234 162.4945831298828 L 11.05684661865234 162.0964202880859 L 11.44490242004395 162.0072784423828 C 13.1270923614502 161.6208343505859 15.69512557983398 160.7075653076172 18.37625885009766 158.5513000488281 L 18.7158031463623 158.2782287597656 L 19.03273582458496 158.5772552490234 C 20.25440216064453 159.7298583984375 21.60442543029785 160.7127532958984 23.04531478881836 161.4986114501953 C 25.63478088378906 162.9109802246094 28.40840339660645 163.6271209716797 31.28914642333984 163.6271209716797 M 23.57214736938477 178.9093170166016 C 25.19073677062988 178.9093170166016 26.78837013244629 178.6665344238281 28.32064819335938 178.1876983642578 L 28.96977996826172 177.98486328125 L 28.96977996826172 178.6649475097656 L 28.96977996826172 181.37451171875 C 28.96977996826172 181.9264221191406 29.04227066040039 182.483154296875 29.18522644042969 183.0292663574219 L 29.25784683227539 183.3066864013672 L 29.05508041381836 183.5094451904297 L 23.92570304870605 188.6388549804688 L 23.57214736938477 188.9924011230469 L 23.21859169006348 188.6388549804688 L 18.08922576904297 183.5094451904297 L 17.8864917755127 183.3067016601562 L 17.95907020568848 183.0293273925781 C 18.10202598571777 182.4829406738281 18.17451477050781 181.9261779785156 18.17451477050781 181.37451171875 L 18.17451477050781 178.6649475097656 L 18.17451477050781 177.98486328125 L 18.82364654541016 178.1876983642578 C 20.35593605041504 178.6665344238281 21.95356941223145 178.9093170166016 23.57214736938477 178.9093170166016 M 23.57215881347656 132.2649993896484 C 28.72076988220215 132.2649993896484 32.90927124023438 136.4535064697266 32.90927124023438 141.6021118164062 C 32.90927124023438 142.5483093261719 32.76305770874023 143.4891815185547 32.48308181762695 144.387451171875 C 37.01755905151367 147.3210296630859 40.02693557739258 152.4187622070312 40.02693557739258 158.2095794677734 L 40.02693557739258 162.9553985595703 C 40.02693557739258 168.562744140625 37.20550155639648 173.5216674804688 32.9095573425293 176.4937286376953 L 32.9095573425293 181.3750762939453 C 32.9095573425293 182.3375701904297 33.44437026977539 183.2029724121094 34.30563735961914 183.6336059570312 L 36.42266845703125 184.6922607421875 C 37.51922607421875 185.2403869628906 37.96376037597656 186.5737152099609 37.41533660888672 187.6702728271484 C 37.02644729614258 188.4477691650391 36.24243545532227 188.8976440429688 35.42822647094727 188.8976440429688 C 35.09437942504883 188.8976440429688 34.75579071044922 188.8221435546875 34.43703460693359 188.6626434326172 L 32.32000350952148 187.6039733886719 C 31.92665863037109 187.4074554443359 31.56084823608398 187.1751098632812 31.21930313110352 186.9167327880859 L 25.79189300537109 192.3441619873047 L 25.79189300537109 215.1500549316406 C 25.79189300537109 216.3759155273438 24.79804611206055 217.3697662353516 23.57215881347656 217.3697662353516 C 22.34626960754395 217.3697662353516 21.35241508483887 216.3759155273438 21.35241508483887 215.1500549316406 L 21.35241508483887 192.3444671630859 L 15.92530250549316 186.9170379638672 C 15.58404731750488 187.1751098632812 15.21793556213379 187.4074554443359 14.8246021270752 187.6042633056641 L 7.146968841552734 191.4429473876953 C 6.756881713867188 191.6382751464844 6.402614593505859 191.8809661865234 6.086826324462891 192.1597747802734 C 6.111679077148438 192.1825561523438 6.137725830078125 192.2035827636719 6.161991119384766 192.2278442382812 L 11.19489097595215 197.2607269287109 C 12.95824813842773 199.0243835449219 13.92960357666016 201.3690185546875 13.92960357666016 203.8631286621094 L 13.92960357666016 215.1497344970703 C 13.92960357666016 216.3756561279297 12.93575859069824 217.3695068359375 11.70986938476562 217.3695068359375 C 10.48398017883301 217.3695068359375 9.49012565612793 216.3756561279297 9.49012565612793 215.1497344970703 L 9.49012565612793 203.8631286621094 C 9.49012565612793 202.5546722412109 8.98046875 201.324951171875 8.055580139160156 200.3997344970703 L 4.439479827880859 196.7836456298828 L 4.439479827880859 215.1497344970703 C 4.439479827880859 216.3756561279297 3.445625305175781 217.3695068359375 2.219738006591797 217.3695068359375 C 0.9938468933105469 217.3695068359375 3.814697265625e-06 216.3756561279297 3.814697265625e-06 215.1497344970703 L 3.814697265625e-06 195.8235321044922 C 3.814697265625e-06 192.2639465332031 1.977638244628906 189.06396484375 5.161334991455078 187.4716796875 L 12.83897018432617 183.6330108642578 C 13.69993591308594 183.2024078369141 14.2347469329834 182.3369750976562 14.2347469329834 181.3742065429688 L 14.2347469329834 176.4928436279297 C 9.938814163208008 173.5207672119141 7.11737060546875 168.5621643066406 7.11737060546875 162.9545135498047 L 7.11737060546875 158.2095794677734 C 7.11737060546875 152.4190673828125 10.1264591217041 147.3213348388672 14.66063690185547 144.3880310058594 C 14.38006973266602 143.4918518066406 14.23504829406738 142.5601501464844 14.23504829406738 141.6021118164062 C 14.23504829406738 136.4538269042969 18.42354774475098 132.2649993896484 23.57215881347656 132.2649993896484 Z M 28.39223670959473 142.4766845703125 C 28.44314765930176 142.1910705566406 28.46977996826172 141.8995819091797 28.46977996826172 141.6021118164062 C 28.46977996826172 138.9017028808594 26.27283668518066 136.7044677734375 23.57214736938477 136.7044677734375 C 20.87146949768066 136.7044677734375 18.67452430725098 138.9014282226562 18.67451477050781 141.6021118164062 C 18.67451477050781 141.8989562988281 18.70767021179199 142.1889953613281 18.75886917114258 142.4746398925781 C 20.28190231323242 142.0075988769531 21.89788055419922 141.7548217773438 23.57214736938477 141.7548217773438 C 25.2487907409668 141.7548217773438 26.86683654785156 142.0084838867188 28.39223670959473 142.4766845703125 Z M 31.2790641784668 159.6841888427734 C 32.60610198974609 159.6841888427734 34.04532623291016 159.4864807128906 35.58745956420898 159.0143432617188 L 35.58745956420898 158.2098846435547 C 35.58745956420898 151.584716796875 30.19733619689941 146.1946105957031 23.57214736938477 146.1946105957031 C 17.05027008056641 146.1946105957031 11.72910308837891 151.4186859130859 11.5648365020752 157.902099609375 C 13.06361389160156 157.4087219238281 15.13891410827637 156.3867492675781 17.25773620605469 154.2679290771484 C 17.6757640838623 153.8499298095703 18.24192810058594 153.6178588867188 18.82890701293945 153.6178588867188 C 18.88068008422852 153.6178588867188 18.93268203735352 153.6196746826172 18.98469161987305 153.6233215332031 C 19.62634658813477 153.6689300537109 20.2167911529541 153.9909362792969 20.60302543640137 154.5055999755859 C 20.7990608215332 154.7622833251953 24.6535758972168 159.6841888427734 31.2790641784668 159.6841888427734 Z M 31.28914642333984 164.1271209716797 C 27.77130317687988 164.1271209716797 24.89126968383789 163.0749969482422 22.8058910369873 161.9375762939453 C 21.04283714294434 160.9759826660156 19.65830230712891 159.8548583984375 18.68961334228516 158.9409332275391 C 15.95163726806641 161.1429138183594 13.3270149230957 162.0879364013672 11.55684661865234 162.4945831298828 L 11.55684661865234 162.9545135498047 C 11.55684661865234 169.5797119140625 16.94696998596191 174.9698028564453 23.57214736938477 174.9698028564453 C 29.97565841674805 174.9698028564453 35.22430419921875 169.9342498779297 35.56851577758789 163.6148223876953 C 34.05642700195312 163.9717407226562 32.62602615356445 164.1271209716797 31.28914642333984 164.1271209716797 Z M 23.57214736938477 179.4093170166016 C 21.86739158630371 179.4093170166016 20.22212600708008 179.1485595703125 18.67451477050781 178.6649475097656 L 18.67451477050781 181.37451171875 C 18.67451477050781 181.9868621826172 18.59253692626953 182.5835418701172 18.44278144836426 183.1558990478516 L 23.57214736938477 188.2852935791016 L 28.7015266418457 183.1558990478516 C 28.5517692565918 182.5838165283203 28.46977996826172 181.9868621826172 28.46977996826172 181.37451171875 L 28.46977996826172 178.6649475097656 C 26.92218017578125 179.1485595703125 25.27691459655762 179.4093170166016 23.57214736938477 179.4093170166016 Z" stroke="none" fill="#fff"/>
                </g>
              </g>
            </g>
            <g id="Group_11581" data-name="Group 11581" transform="translate(106.762 16.608)">
              <g id="Group_11580" data-name="Group 11580">
                <g id="Path_16145" data-name="Path 16145" transform="translate(-360.726 -148.298)" fill="#5e6778">
                  <path d="M 377.1807861328125 228.4075775146484 C 376.0946655273438 228.4075775146484 375.2110595703125 227.5239562988281 375.2110595703125 226.4378509521484 L 375.2110595703125 196.5148773193359 L 375.2110595703125 196.4113159179688 L 375.1378479003906 196.3380889892578 L 369.7104187011719 190.9106903076172 L 369.5564575195312 190.7567291259766 L 369.3828125 190.8880767822266 C 369.0411987304688 191.1464691162109 368.6839599609375 191.3695526123047 368.321044921875 191.5511169433594 C 368.0444641113281 191.6892852783203 367.7486572265625 191.7593841552734 367.4420471191406 191.7593841552734 C 366.6902770996094 191.7593841552734 366.0145568847656 191.3419189453125 365.6785583496094 190.669921875 C 365.4431762695312 190.1993103027344 365.4052124023438 189.6652374267578 365.5715942382812 189.1661071777344 C 365.7379760742188 188.6670074462891 366.0887756347656 188.2625732421875 366.5593872070312 188.0273284912109 C 367.5057678222656 187.5544891357422 368.0937194824219 186.6033782958984 368.0937194824219 185.5451965332031 L 368.0937194824219 182.3993988037109 L 368.0937194824219 182.2870483398438 L 368.0097045898438 182.2124481201172 C 365.0474243164062 179.5824432373047 363.3484802246094 175.8128204345703 363.3484802246094 171.8701324462891 L 363.3484802246094 169.3411254882812 L 363.3484802246094 169.0809020996094 L 363.0884704589844 169.0913238525391 C 363.0126647949219 169.0943603515625 362.9629211425781 169.094970703125 362.9457702636719 169.094970703125 C 361.8596496582031 169.094970703125 360.9760437011719 168.2113494873047 360.9760437011719 167.1252288818359 L 360.9760437011719 162.3803253173828 C 360.9760437011719 154.7531585693359 367.1811828613281 148.5480041503906 374.808349609375 148.5480041503906 L 379.5532836914062 148.5480041503906 C 387.180419921875 148.5480041503906 393.3855590820312 154.7531585693359 393.3855590820312 162.3803253173828 L 393.3855590820312 167.1252288818359 C 393.3855590820312 168.2113494873047 392.501953125 169.094970703125 391.4158325195312 169.094970703125 C 391.3914794921875 169.094970703125 391.3673400878906 169.0946197509766 391.3431701660156 169.0942687988281 C 391.3165893554688 169.0938720703125 391.2899780273438 169.0934906005859 391.2631225585938 169.0934906005859 L 391.0131225585938 169.0934906005859 L 391.0131225585938 169.3434906005859 L 391.0131225585938 171.8701477050781 C 391.0131225585938 175.8128356933594 389.3143005371094 179.5823516845703 386.3522338867188 182.2121429443359 L 386.2682189941406 182.2867279052734 L 386.2682189941406 182.3990936279297 L 386.2682189941406 185.544921875 C 386.2682189941406 186.6026763916016 386.8559875488281 187.5537719726562 387.8021545410156 188.0270233154297 L 400.2247009277344 194.2384490966797 C 403.3232421875 195.7878723144531 405.2478942871094 198.9022064208984 405.2475891113281 202.3660736083984 L 405.2475891113281 226.4372406005859 C 405.2475891113281 227.5233459472656 404.3639831542969 228.4069671630859 403.2778625488281 228.4069671630859 C 402.1917114257812 228.4069671630859 401.3080749511719 227.5233459472656 401.3080749511719 226.4372406005859 L 401.3080749511719 202.3660888671875 C 401.3080749511719 201.9278564453125 401.2508239746094 201.4860229492188 401.1378479003906 201.0528564453125 L 401.0277404785156 200.6305847167969 L 400.7191467285156 200.9391479492188 L 397.2654724121094 204.3927764892578 C 396.2931823730469 205.3650665283203 395.7577209472656 206.6578369140625 395.7577209472656 208.0329437255859 L 395.7577209472656 226.4372406005859 C 395.7577209472656 227.5233459472656 394.8741149902344 228.4069671630859 393.7879943847656 228.4069671630859 C 392.7018737792969 228.4069671630859 391.8182678222656 227.5233459472656 391.8182678222656 226.4372406005859 L 391.8182678222656 208.0329437255859 C 391.8182678222656 205.6058959960938 392.7634887695312 203.3238983154297 394.4797668457031 201.6073150634766 L 398.125732421875 197.9613189697266 L 398.3710021972656 197.7160491943359 L 398.0607604980469 197.5609283447266 L 386.0401306152344 191.5504760742188 C 385.6780700683594 191.3695831298828 385.3208923339844 191.1465301513672 384.9784545898438 190.8874664306641 L 384.8048095703125 190.7561187744141 L 384.6508483886719 190.9100799560547 L 379.2237548828125 196.3374938964844 L 379.1505432128906 196.4107208251953 L 379.1505432128906 196.5142669677734 L 379.1505432128906 226.4378509521484 C 379.1505432128906 227.5239562988281 378.2669067382812 228.4075775146484 377.1807861328125 228.4075775146484 Z M 372.0331726074219 184.7124633789062 L 372.0331726074219 185.072265625 L 372.0331726074219 185.544921875 C 372.0331726074219 186.1179809570312 371.9579467773438 186.6960296630859 371.8095703125 187.2630310058594 L 371.7732543945312 187.4017181396484 L 371.8746337890625 187.5030975341797 L 377.0039978027344 192.6324768066406 L 377.1807861328125 192.8092498779297 L 377.3575744628906 192.6324768066406 L 382.4869689941406 187.5030975341797 L 382.58837890625 187.4016723632812 L 382.552001953125 187.262939453125 C 382.4036560058594 186.6970062255859 382.3284301757812 186.1189880371094 382.3284301757812 185.544921875 L 382.3284301757812 185.072265625 L 382.3284301757812 184.7124633789062 L 381.9912414550781 184.8379669189453 C 380.4504699707031 185.4114074707031 378.8320007324219 185.7021636962891 377.1807861328125 185.7021636962891 C 375.5295715332031 185.7021636962891 373.9111328125 185.4114074707031 372.370361328125 184.8379669189453 L 372.0331726074219 184.7124633789062 Z M 372.7132873535156 164.8128662109375 L 372.5851135253906 164.9220581054688 C 370.9956970214844 166.2761840820312 369.266357421875 167.3317565917969 367.4451904296875 168.0594787597656 L 367.2879638671875 168.1222991943359 L 367.2879638671875 168.2916259765625 L 367.2879638671875 171.8701324462891 C 367.2879638671875 177.3250579833984 371.7258605957031 181.7629699707031 377.1807861328125 181.7629699707031 C 382.6357116699219 181.7629699707031 387.0736389160156 177.3250579833984 387.0736694335938 171.8701324462891 L 387.0736694335938 169.1141204833984 L 387.0736694335938 168.8880615234375 L 386.8487548828125 168.8653869628906 C 379.9989318847656 168.1746978759766 375.1458435058594 166.0785827636719 372.8626403808594 164.8905792236328 L 372.7132873535156 164.8128662109375 Z M 372.4364929199219 160.4102935791016 C 372.8261413574219 160.4102935791016 373.2037048339844 160.5247192382812 373.5284423828125 160.7411956787109 C 373.5885620117188 160.7805786132812 379.4821166992188 164.5719757080078 389.1826477050781 165.0953369140625 L 389.4461059570312 165.1095581054688 L 389.4461059570312 164.845703125 L 389.4461059570312 162.3800048828125 C 389.4461059570312 156.9250793457031 385.0082092285156 152.4871826171875 379.5532836914062 152.4871826171875 L 374.808349609375 152.4871826171875 C 369.43701171875 152.4871826171875 365.0517578125 156.7901306152344 364.9186401367188 162.1300048828125 L 364.91552734375 162.1300048828125 L 364.9152221679688 162.3800048828125 L 364.9152221679688 164.4488067626953 L 364.9152221679688 164.7942199707031 L 365.2433471679688 164.686279296875 C 366.6713562011719 164.2165069580078 368.8367004394531 163.1934204101562 371.0428771972656 160.9872894287109 C 371.4151916503906 160.6152191162109 371.9101257324219 160.4102935791016 372.4364929199219 160.4102935791016 Z" stroke="none"/>
                  <path d="M 377.1807861328125 228.1575775146484 C 378.1290588378906 228.1575775146484 378.9005432128906 227.3861236572266 378.9005432128906 226.4378509521484 L 378.9005432128906 196.5142669677734 L 378.9005432128906 196.3071746826172 L 379.0469665527344 196.1607208251953 L 384.4740600585938 190.7333068847656 L 384.781982421875 190.4253692626953 L 385.1292724609375 190.6880950927734 C 385.4595031738281 190.9378967285156 385.8035278320312 191.1528015136719 386.1519165039062 191.3268737792969 L 398.1725463867188 197.3373413085938 L 398.7930297851562 197.6475677490234 L 398.302490234375 198.1381072998047 L 394.6565551757812 201.7840881347656 C 392.9874877929688 203.4534454345703 392.0682678222656 205.6726684570312 392.0682678222656 208.0329437255859 L 392.0682678222656 226.4372406005859 C 392.0682678222656 227.385498046875 392.8397216796875 228.1569671630859 393.7879943847656 228.1569671630859 C 394.7362670898438 228.1569671630859 395.5077209472656 227.385498046875 395.5077209472656 226.4372406005859 L 395.5077209472656 208.0329437255859 C 395.5077209472656 206.591064453125 396.0691833496094 205.2355041503906 397.0887145996094 204.2159881591797 L 400.5423889160156 200.7623901367188 L 401.1595153808594 200.1452484130859 L 401.3797607421875 200.9897766113281 C 401.4980773925781 201.4435272216797 401.5580749511719 201.9065856933594 401.5580749511719 202.3660888671875 L 401.5580749511719 226.4372406005859 C 401.5580749511719 227.385498046875 402.3295593261719 228.1569671630859 403.2778625488281 228.1569671630859 C 404.2261352539062 228.1569671630859 404.9975891113281 227.385498046875 404.9975891113281 226.4372406005859 L 404.9975891113281 202.3660430908203 C 404.9978942871094 198.9974822998047 403.1261596679688 195.9688568115234 400.1129150390625 194.4620666503906 L 387.6903381347656 188.2506103515625 C 386.658935546875 187.7347564697266 386.0182189941406 186.6979827880859 386.0182189941406 185.544921875 L 386.0182189941406 182.3990936279297 L 386.0182189941406 182.1743774414062 L 386.186279296875 182.0251922607422 C 389.0949096679688 179.4428100585938 390.7631225585938 175.7414398193359 390.7631225585938 171.8701477050781 L 390.7631225585938 169.3434906005859 L 390.7631225585938 168.8434906005859 L 391.2631225585938 168.8434906005859 C 391.2911987304688 168.8434906005859 391.3190002441406 168.8438873291016 391.3468017578125 168.8442840576172 C 391.3697509765625 168.8446197509766 391.3927001953125 168.844970703125 391.4158325195312 168.844970703125 C 392.3641052246094 168.844970703125 393.1355590820312 168.0735015869141 393.1355590820312 167.1252288818359 L 393.1355590820312 162.3803253173828 C 393.1355590820312 154.8910064697266 387.0425720214844 148.7980041503906 379.5532836914062 148.7980041503906 L 374.808349609375 148.7980041503906 C 367.3190307617188 148.7980041503906 361.2260437011719 154.8910064697266 361.2260437011719 162.3803253173828 L 361.2260437011719 167.1252288818359 C 361.2260437011719 168.0735015869141 361.9975280761719 168.844970703125 362.9457702636719 168.844970703125 C 362.9617004394531 168.844970703125 363.0079956054688 168.8443450927734 363.0784912109375 168.8415222167969 L 363.5984802246094 168.8207244873047 L 363.5984802246094 169.3411254882812 L 363.5984802246094 171.8701324462891 C 363.5984802246094 175.7413940429688 365.2668151855469 179.4428863525391 368.1756896972656 182.0254974365234 L 368.3437194824219 182.1746826171875 L 368.3437194824219 182.3993988037109 L 368.3437194824219 185.5451965332031 C 368.3437194824219 186.6986999511719 367.7027893066406 187.7355041503906 366.6711730957031 188.2509460449219 C 366.2602844238281 188.4563293457031 365.9540100097656 188.8094177246094 365.8087463378906 189.2451782226562 C 365.6634826660156 189.6809539794922 365.6966552734375 190.1472015380859 365.9021606445312 190.5581207275391 C 366.195556640625 191.1448822021484 366.7855834960938 191.5093841552734 367.4420471191406 191.5093841552734 C 367.7095336914062 191.5093841552734 367.9677429199219 191.4481506347656 368.2091979980469 191.3275451660156 C 368.5584716796875 191.1528015136719 368.902587890625 190.9378662109375 369.2320251464844 190.6886901855469 L 369.5792846679688 190.4260101318359 L 369.8871765136719 190.7339019775391 L 375.3146057128906 196.1613311767578 L 375.4610595703125 196.3077697753906 L 375.4610595703125 196.5148773193359 L 375.4610595703125 226.4378509521484 C 375.4610595703125 227.3861236572266 376.2325134277344 228.1575775146484 377.1807861328125 228.1575775146484 M 371.7831726074219 184.3526611328125 L 372.4575805664062 184.6036682128906 C 373.9703063964844 185.1666870117188 375.5594482421875 185.4521636962891 377.1807861328125 185.4521636962891 C 378.8021545410156 185.4521636962891 380.3912658691406 185.1666870117188 381.9040222167969 184.6036682128906 L 382.5784301757812 184.3526611328125 L 382.5784301757812 185.072265625 L 382.5784301757812 185.544921875 C 382.5784301757812 186.0976409912109 382.6509094238281 186.6543273925781 382.7938232421875 187.1995391845703 L 382.8665771484375 187.4770202636719 L 382.6637268066406 187.6798858642578 L 377.5343322753906 192.8092346191406 L 377.1807861328125 193.1627807617188 L 376.8272399902344 192.8092346191406 L 371.6978759765625 187.6798858642578 L 371.4951171875 187.4771423339844 L 371.5677185058594 187.1997528076172 C 371.710693359375 186.6534118652344 371.7831726074219 186.0966339111328 371.7831726074219 185.544921875 L 371.7831726074219 185.072265625 L 371.7831726074219 184.3526611328125 M 372.6793212890625 164.5133972167969 L 372.9780578613281 164.6688232421875 C 375.245361328125 165.8485412597656 380.0655822753906 167.9301452636719 386.8738403320312 168.6166381835938 L 387.3236694335938 168.6619873046875 L 387.3236694335938 169.1141204833984 L 387.3236694335938 171.8701324462891 C 387.3236389160156 177.4629211425781 382.7735595703125 182.0129699707031 377.1807861328125 182.0129699707031 C 371.5880126953125 182.0129699707031 367.0379638671875 177.4629211425781 367.0379638671875 171.8701324462891 L 367.0379638671875 168.2916259765625 L 367.0379638671875 167.9529876708984 L 367.3524475097656 167.8273315429688 C 369.1483154296875 167.1097106933594 370.8542785644531 166.0682220458984 372.4230041503906 164.7317657470703 L 372.6793212890625 164.5133972167969 M 372.4364929199219 160.6602935791016 C 371.9768676757812 160.6602935791016 371.5447082519531 160.8392333984375 371.2196655273438 161.1640777587891 C 368.9786987304688 163.4049682617188 366.7752990722656 164.4454803466797 365.3214721679688 164.9237670898438 L 364.6652221679688 165.1396636962891 L 364.6652221679688 164.4488067626953 L 364.6652221679688 162.3800048828125 L 364.66552734375 161.8800048828125 L 364.6777038574219 161.8800048828125 C 364.9391784667969 156.5185241699219 369.3831787109375 152.2371826171875 374.808349609375 152.2371826171875 L 379.5532836914062 152.2371826171875 C 385.1460571289062 152.2371826171875 389.6961059570312 156.7872314453125 389.6961059570312 162.3800048828125 L 389.6961059570312 164.845703125 L 389.6961059570312 165.3733978271484 L 389.1691589355469 165.3449859619141 C 379.4035949707031 164.8180999755859 373.4522399902344 160.9901428222656 373.3897705078125 160.94921875 C 373.1062316894531 160.7602081298828 372.776611328125 160.6602935791016 372.4364929199219 160.6602935791016 M 377.1807861328125 228.6575775146484 C 375.9549255371094 228.6575775146484 374.9610595703125 227.6637115478516 374.9610595703125 226.4378509521484 L 374.9610595703125 196.5148773193359 L 369.5336303710938 191.0874633789062 C 369.1924133300781 191.3455505371094 368.8262939453125 191.577880859375 368.4329223632812 191.7746887207031 C 368.1141662597656 191.9339141845703 367.7756042480469 192.0093841552734 367.4420471191406 192.0093841552734 C 366.6278686523438 192.0093841552734 365.8438415527344 191.5595245361328 365.4549560546875 190.7817230224609 C 364.9065246582031 189.6851654052734 365.35107421875 188.3518371582031 366.4476013183594 187.8037109375 C 367.3088684082031 187.3733978271484 367.8437194824219 186.5079650878906 367.8437194824219 185.5451965332031 L 367.8437194824219 182.3993988037109 C 364.9358520507812 179.8176879882812 363.0984802246094 176.0553741455078 363.0984802246094 171.8701324462891 L 363.0984802246094 169.3411254882812 C 363.0173645019531 169.3443756103516 362.964111328125 169.344970703125 362.9457702636719 169.344970703125 C 361.7198791503906 169.344970703125 360.7260437011719 168.3511047363281 360.7260437011719 167.1252288818359 L 360.7260437011719 162.3803253173828 C 360.7260437011719 154.6154022216797 367.0434265136719 148.2980041503906 374.808349609375 148.2980041503906 L 379.5532836914062 148.2980041503906 C 387.3182067871094 148.2980041503906 393.6355590820312 154.6154022216797 393.6355590820312 162.3803253173828 L 393.6355590820312 167.1252288818359 C 393.6355590820312 168.3511047363281 392.6417541503906 169.344970703125 391.4158325195312 169.344970703125 C 391.3646545410156 169.344970703125 391.3143615722656 169.3434906005859 391.2631225585938 169.3434906005859 L 391.2631225585938 171.8701477050781 C 391.2631225585938 176.0550994873047 389.4260864257812 179.8174133300781 386.5182189941406 182.3990936279297 L 386.5182189941406 185.544921875 C 386.5182189941406 186.5074157714844 387.0530395507812 187.372802734375 387.9140014648438 187.8034362792969 L 400.3365173339844 194.0148468017578 C 403.5202026367188 195.6068572998047 405.4978942871094 198.8068237304688 405.4975891113281 202.3660888671875 L 405.4975891113281 226.4372406005859 C 405.4975891113281 227.6631317138672 404.5037231445312 228.6569671630859 403.2778625488281 228.6569671630859 C 402.0519409179688 228.6569671630859 401.0580749511719 227.6631317138672 401.0580749511719 226.4372406005859 L 401.0580749511719 202.3660888671875 C 401.0580749511719 201.9363555908203 401.0006713867188 201.5175628662109 400.8959350585938 201.1159362792969 L 397.4422607421875 204.5695495605469 C 396.5170593261719 205.4947509765625 396.0077209472656 206.7247619628906 396.0077209472656 208.0329437255859 L 396.0077209472656 226.4372406005859 C 396.0077209472656 227.6631317138672 395.0138854980469 228.6569671630859 393.7879943847656 228.6569671630859 C 392.5621032714844 228.6569671630859 391.5682678222656 227.6631317138672 391.5682678222656 226.4372406005859 L 391.5682678222656 208.0329437255859 C 391.5682678222656 205.5388336181641 392.5396118164062 203.1942138671875 394.302978515625 201.4305572509766 L 397.9489440917969 197.7845458984375 L 385.9283142089844 191.7740783691406 C 385.5350036621094 191.5775604248047 385.169189453125 191.3452301025391 384.82763671875 191.0868530273438 L 379.4005432128906 196.5142669677734 L 379.4005432128906 226.4378509521484 C 379.4005432128906 227.6637115478516 378.4067077636719 228.6575775146484 377.1807861328125 228.6575775146484 Z M 372.2831726074219 185.072265625 L 372.2831726074219 185.544921875 C 372.2831726074219 186.1572570800781 372.2012023925781 186.7539520263672 372.0514221191406 187.3263244628906 L 377.1807861328125 192.4556884765625 L 382.3101806640625 187.3263244628906 C 382.1601257324219 186.7539367675781 382.0784301757812 186.1572570800781 382.0784301757812 185.544921875 L 382.0784301757812 185.072265625 C 380.5524291992188 185.6402130126953 378.9024353027344 185.9521636962891 377.1807861328125 185.9521636962891 C 375.4591369628906 185.9521636962891 373.8091735839844 185.6402130126953 372.2831726074219 185.072265625 Z M 372.7472534179688 165.1123657226562 C 370.9039611816406 166.6827545166016 369.0926513671875 167.6703948974609 367.5379638671875 168.2916259765625 L 367.5379638671875 171.8701324462891 C 367.5379638671875 177.1874389648438 371.8638000488281 181.5129699707031 377.1807861328125 181.5129699707031 C 382.497802734375 181.5129699707031 386.8236389160156 177.1871490478516 386.8236694335938 171.8701324462891 L 386.8236694335938 169.1141204833984 C 379.9551696777344 168.4215545654297 375.0782775878906 166.3252410888672 372.7472534179688 165.1123657226562 Z M 372.4364929199219 160.1602935791016 C 372.8629760742188 160.1602935791016 373.2915344238281 160.2828063964844 373.6671142578125 160.5331878662109 C 373.7236328125 160.5701904296875 379.5467529296875 164.3250885009766 389.1961059570312 164.845703125 L 389.1961059570312 162.3800048828125 C 389.1961059570312 157.0630035400391 384.8703002929688 152.7371826171875 379.5532836914062 152.7371826171875 L 374.808349609375 152.7371826171875 C 369.4913024902344 152.7371826171875 365.16552734375 157.0630035400391 365.16552734375 162.3800048828125 L 365.1652221679688 162.3800048828125 L 365.1652221679688 164.4488067626953 C 366.6613159179688 163.9566192626953 368.7422180175781 162.9343566894531 370.8661193847656 160.8105163574219 C 371.2952270507812 160.3816680908203 371.8634948730469 160.1602935791016 372.4364929199219 160.1602935791016 Z" stroke="none" fill="#fff"/>
                </g>
              </g>
            </g>
          </g>
        </g>
        <g id="Rectangle_1385" data-name="Rectangle 1385" transform="translate(13 12)" fill="none" stroke="#fff" stroke-width="3">
          <rect width="324" height="296" rx="10" stroke="none"/>
          <rect x="1.5" y="1.5" width="321" height="293" rx="8.5" fill="none"/>
        </g>
      </g>
    </g>
  </g>
</svg>
