<svg xmlns="http://www.w3.org/2000/svg" xmlns:xlink="http://www.w3.org/1999/xlink" width="114.983" height="118.595" viewBox="0 0 114.983 118.595">
  <defs>
    <linearGradient id="linear-gradient" y1="0.5" x2="1" y2="0.5" gradientUnits="objectBoundingBox">
      <stop offset="0" stop-color="#ffb300"/>
      <stop offset="0.138" stop-color="#d48720"/>
      <stop offset="0.23" stop-color="#ffca38"/>
      <stop offset="0.331" stop-color="#edae2c"/>
      <stop offset="0.382" stop-color="#d4861b"/>
      <stop offset="0.431" stop-color="#ebaa31"/>
      <stop offset="0.471" stop-color="#f9bf3f"/>
      <stop offset="0.497" stop-color="#ffc845"/>
      <stop offset="0.648" stop-color="#e19108"/>
      <stop offset="0.709" stop-color="#d6aa0b"/>
      <stop offset="0.794" stop-color="#ffc327"/>
      <stop offset="0.82" stop-color="#fed742"/>
      <stop offset="0.849" stop-color="#ffa900"/>
      <stop offset="0.897" stop-color="#f8e700"/>
      <stop offset="1" stop-color="#f70"/>
    </linearGradient>
    <linearGradient id="linear-gradient-2" x1="0.506" y1="0.839" x2="-0.051" y2="-0.004" gradientUnits="objectBoundingBox">
      <stop offset="0" stop-color="#b84300"/>
      <stop offset="0.479" stop-color="#ffbd1c"/>
      <stop offset="1" stop-color="#fff493"/>
    </linearGradient>
    <linearGradient id="linear-gradient-3" x1="216.287" y1="0.839" x2="215.73" y2="-0.004" gradientUnits="objectBoundingBox">
      <stop offset="0" stop-color="#fff493"/>
      <stop offset="0.521" stop-color="#ffbd1c"/>
      <stop offset="1" stop-color="#b84300"/>
    </linearGradient>
    <linearGradient id="linear-gradient-4" x1="0.98" y1="0.388" x2="0.19" y2="0.495" gradientUnits="objectBoundingBox">
      <stop offset="0" stop-color="#f07500"/>
      <stop offset="1" stop-color="#fff493"/>
    </linearGradient>
    <linearGradient id="linear-gradient-5" x1="0.5" y1="0" x2="0.5" y2="1" xlink:href="#linear-gradient-3"/>
    <linearGradient id="linear-gradient-6" x1="1.09" y1="0.784" x2="0.094" y2="0.001" xlink:href="#linear-gradient-2"/>
    <linearGradient id="linear-gradient-7" x1="-0.135" y1="0.229" x2="0.95" y2="1.033" xlink:href="#linear-gradient-2"/>
    <linearGradient id="linear-gradient-10" x1="0.957" y1="-0.002" x2="0.315" y2="0.663" xlink:href="#linear-gradient-2"/>
    <radialGradient id="radial-gradient" cx="0.47" cy="0.592" r="0.514" gradientTransform="matrix(0.772, 0.58, -0.55, 0.814, 6.494, 2.829)" gradientUnits="objectBoundingBox">
      <stop offset="0" stop-color="#6f2c00"/>
      <stop offset="0.206" stop-color="#b84300"/>
      <stop offset="0.533" stop-color="#fca01f"/>
      <stop offset="1" stop-color="#fff493"/>
    </radialGradient>
  </defs>
  <g id="Group_11607" data-name="Group 11607" transform="translate(-6090.768 -1397.529)">
    <path id="Path_16149" data-name="Path 16149" d="M-267.805,147.878a8.423,8.423,0,0,0,4.674,4.668,10.1,10.1,0,0,0,7.481.423q-4.39-5.878-12.154-5.091Zm-11.925,0c-6.082-.486-10.151,1.321-12.218,5.471a12.373,12.373,0,0,0,7.581-.866,9.648,9.648,0,0,0,4.637-4.6Zm21.171-1.911q1.235,2.582,5.624,3.57c2.991.644,5.414.306,7.27-1.056a10.69,10.69,0,0,0-5.607-3.052,11.292,11.292,0,0,0-7.288.539Zm-30.481,0a12.109,12.109,0,0,0-7.545-.539,9.079,9.079,0,0,0-5.6,3.433,11.124,11.124,0,0,0,7.517.612q4.074-.982,5.624-3.506Zm39.188-3.855c1.152,1.637,3.347,2.492,6.612,2.577,3.375.042,5.542-.813,6.53-2.577a11.514,11.514,0,0,0-6.53-1.722,11.881,11.881,0,0,0-6.612,1.722Zm-61.346.665a10.414,10.414,0,0,0,6.548,1.785,11.221,11.221,0,0,0,6.594-1.785c-1.152-1.711-3.329-2.535-6.529-2.451-3.137.042-5.332.866-6.612,2.451Zm34.7,3.189c-.951-5.2-4.17-8.174-9.63-8.967,1.307,5.28,4.508,8.28,9.63,8.967Zm14.431-9.262c-5.268,1.637-8.368,4.71-9.319,9.262a11.649,11.649,0,0,0,6.722-3,7.924,7.924,0,0,0,2.6-6.263Zm-.32,7.984q6.928-2.107,8.029-10.561-7.2,1.694-8.029,10.561Zm-22.836-.317c-1.052-5.8-3.731-9.221-8-10.245a11.351,11.351,0,0,0,2.461,7.065,8.455,8.455,0,0,0,5.542,3.179Zm43.394-7.066a12.544,12.544,0,0,0,7.463.612q4.074-.791,5.369-3.506a12.18,12.18,0,0,0-7.39-.538c-2.634.559-4.444,1.721-5.442,3.432ZM-305.767,137a10.517,10.517,0,0,0-5.917-3.189c-3.055-.7-5.35-.275-6.932,1.3a9.675,9.675,0,0,0,5.88,2.936A9.386,9.386,0,0,0-305.767,137Zm52.1,4.478q2.648-.776,4.546-4.288a8.351,8.351,0,0,0,.576-7.552q-6.612,5.149-5.122,11.84Zm-40.193.317q.754-8.491-5.8-12.157a11.86,11.86,0,0,0,1.052,7.552,10.427,10.427,0,0,0,4.747,4.6Zm58.749-11.174q8.971.855,12.218-5.091a11.693,11.693,0,0,0-7.582.6,9.253,9.253,0,0,0-4.636,4.489Zm-77.379-.317c-3.182-4.373-7.242-5.967-12.236-4.774.549,1.721,2,3.084,4.38,4.108a11.547,11.547,0,0,0,7.856.666Zm67.145,6.7a12.679,12.679,0,0,0,3.073-5.334,10.7,10.7,0,0,0-.165-7.118c-1.856.6-3.164,2.387-3.9,5.344-.777,2.978-.439,5.344,1,7.108Zm-59.746-12.769a10.6,10.6,0,0,0-.384,7.477c.722,2.608,2,4.362,3.9,5.291a12.6,12.6,0,0,0,.055-7.488,9.594,9.594,0,0,0-3.576-5.281Zm66.459-6.084c-1.3,1.32-2.021,3.38-2.149,6.211-.165,2.788.338,4.963,1.546,6.558,1.636-1,2.569-3.084,2.78-6.21.21-3.095-.53-5.281-2.177-6.559Zm-69.66,12.769a13.1,13.1,0,0,0,1.409-6.939c-.165-2.788-1.07-4.721-2.716-5.83-1.226,1.637-1.774,3.96-1.6,6.939.21,3.126,1.18,5.059,2.908,5.83Zm78.677-8.28q8.753-.507,10.938-7.382c-5.9.253-9.52,2.7-10.938,7.382Zm-99.6-7.382c1.729,4.721,5.478,7.171,11.295,7.382-1.774-4.848-5.542-7.3-11.295-7.382Zm96.089,8.66a13.434,13.434,0,0,0,.8-7.235c-.439-2.831-1.472-4.668-3.073-5.534a9.794,9.794,0,0,0-1.052,7.129c.484,2.873,1.6,4.742,3.328,5.64ZM-312.8,111.145a9.645,9.645,0,0,0-2.661,5.83,10.3,10.3,0,0,0,1.061,6.939c1.683-1.13,2.752-3.147,3.2-6.02.457-2.936-.082-5.2-1.6-6.749Zm86.706,2.514c5.268-.771,8.469-3.77,9.63-8.967-5.012.581-8.24,3.559-9.63,8.967Zm-95.412-.306a12.565,12.565,0,0,0-9.621-8.956,8.962,8.962,0,0,0,2.945,6.379,8.328,8.328,0,0,0,6.676,2.577Zm92.212,2.6a12.577,12.577,0,0,0-.439-7.7,8.482,8.482,0,0,0-4.07-4.774c-1.116,5.365.375,9.516,4.508,12.473ZM-314.4,103.478c-3.923,3.221-5.313,7.372-4.216,12.473a9.144,9.144,0,0,0,4.4-5.175,8.612,8.612,0,0,0-.183-7.3Zm80.917-7.679a10.8,10.8,0,0,0,1.765,7.552,9.313,9.313,0,0,0,5.012,3.623c-.037-5.45-2.314-9.178-6.777-11.174Zm-81.237,0q-7.27,4.594-5.789,11.47a14.673,14.673,0,0,0,4.865-4.594,7.346,7.346,0,0,0,.924-6.876Zm90.548,8.6a11.674,11.674,0,0,0,5.661-3.876,8.423,8.423,0,0,0,1.756-7c-4.746,2.451-7.207,6.084-7.416,10.879Zm-99.565,0q-.246-8.112-7.709-10.879.384,8.3,7.709,10.879Zm89.011-16.286c.375,5.365,3.237,8.661,8.633,9.9-.823-5.291-3.7-8.576-8.633-9.9Zm-86.414,10.2q7.476-3.2,8.341-9.886c-.082-.253-.32-.359-.677-.317a12.061,12.061,0,0,0-5.816,3.939c-1.683,2.112-2.3,4.214-1.848,6.263Zm96.968-3.5a9.187,9.187,0,0,0,4.755-4.3,10.5,10.5,0,0,0,1.033-7.192,6.907,6.907,0,0,0-4.444,3.8,14.5,14.5,0,0,0-1.344,7.689Zm-99.565,0q.7-8.9-5.789-11.807c-.466,5.787,1.473,9.706,5.789,11.807Zm86.1-13.751a12.2,12.2,0,0,0,3.768,5.767,8.678,8.678,0,0,0,6.786,1.9q-3.635-7.573-10.554-7.668Zm-72.577,0q-7.9.348-10.3,7.963,8.025-.412,10.3-7.963Zm68.7-6.706q2.332,6.322,11.587,6.389-2.757-6.828-11.587-6.389Zm-76.116,6.389a14.025,14.025,0,0,0,7.042-1.531,9.219,9.219,0,0,0,4.508-4.858,13.2,13.2,0,0,0-7.837,1.531,7.624,7.624,0,0,0-3.713,4.858Zm94.736-7.984a10.86,10.86,0,0,0-3.2,5.6,9.416,9.416,0,0,0,.677,7.171,9.615,9.615,0,0,0,3.511-5.64c.787-2.958.467-5.323-.987-7.129ZM-322.11,85.533a11.736,11.736,0,0,0,.421-7.361,8.42,8.42,0,0,0-3.649-5.408,10.279,10.279,0,0,0-.421,7.319,9.456,9.456,0,0,0,3.649,5.45Zm8.633-12.769a15.692,15.692,0,0,0,7.773-.253,7.325,7.325,0,0,0,4.738-3.918,14.973,14.973,0,0,0-7.71.232,7.652,7.652,0,0,0-4.8,3.939Zm66.532-3.506q4.609,5.418,12.822,3.506c-.942-1.89-2.78-3.253-5.5-4.109-2.863-.908-5.3-.7-7.326.6Zm18.263-5.756a10.118,10.118,0,0,0-2.113,6.305,10.989,10.989,0,0,0,1.5,6.77c1.683-1.109,2.634-3.232,2.826-6.326.164-3.189-.576-5.45-2.213-6.749Zm-89.934,13.075a11.25,11.25,0,0,0,1.683-6.9c-.128-2.851-.988-4.922-2.588-6.178-1.244,1.627-1.774,3.939-1.619,6.939s1.006,5.07,2.524,6.136Zm65.562-12.114c1.152,1.447,3.283,2.3,6.42,2.6,3.246.232,5.478-.422,6.722-1.975a12.446,12.446,0,0,0-6.493-2.345q-4.253-.412-6.649,1.722Zm-41.8-.359a9.43,9.43,0,0,0-6.658-1.3,12.947,12.947,0,0,0-6.173,2.281q1.742,2.392,6.786,1.975c3.31-.3,5.313-1.278,6.045-2.957Zm34.7-2.831a11.587,11.587,0,0,0,7.225,1.172c2.908-.327,4.911-1.256,5.99-2.767a9.837,9.837,0,0,0-7.17-1.4c-2.88.359-4.883,1.363-6.045,3Zm-27.591,0c-1.015-1.764-3.082-2.788-6.173-3.063-3.036-.285-5.377.3-7.042,1.785a11.983,11.983,0,0,0,6.173,2.45,10.429,10.429,0,0,0,7.042-1.172Zm53.948,7.319a12.692,12.692,0,0,0,.8-7.382c-.466-2.789-1.454-4.668-3.036-5.7a9.917,9.917,0,0,0-1.033,7.3c.484,2.872,1.582,4.806,3.265,5.788Zm-78.073-13.086c-1.555,1.215-2.552,3.253-2.972,6.083-.485,2.936-.037,5.281,1.372,7a11.361,11.361,0,0,0,2.89-6.147,9.033,9.033,0,0,0-1.289-6.939Zm31.853,3.506c-3.219-3.823-7.4-5.08-12.538-3.823.53,1.68,2.149,3.021,4.874,4.013a9.49,9.49,0,0,0,7.664-.19Zm12.511.3a11.753,11.753,0,0,0,7.481-.106,8.4,8.4,0,0,0,5.057-4.013,13.5,13.5,0,0,0-7.518.19,7.9,7.9,0,0,0-5.02,3.929Zm-4.8,88.886q22.154-3.089,34.377-15.979,15.049-15.906,13.444-37.4-.974-13.83-10.91-25.865-9.891-12.088-20.86-15.346,15.117,8.459,22.461,17.86,9.725,12.61,8.7,29.72a46.877,46.877,0,0,1-12.218,29.245,50.753,50.753,0,0,1-26.348,15.536,41.07,41.07,0,0,1-19.26.317A52.882,52.882,0,0,1-309.663,131.3a45.3,45.3,0,0,1-12.767-28.2q-1.482-17.363,7.9-30.523,7.518-10.567,22.9-19.285Q-323.866,68.941-323.417,99.6q.315,19.169,14.806,33.6,11.921,11.866,33.39,15.282-9.918,4.943-10.3,14.744a6.031,6.031,0,0,0,1.856-3.316,25.178,25.178,0,0,1,1.052-3.749q2.524-4.848,8.99-7.3a13.273,13.273,0,0,1,7.106,5.7,71.993,71.993,0,0,1,4.125,8.66q.507-8.649-9.923-15.029Zm31.789-86.6a13.1,13.1,0,0,0-.375-7.572,7.457,7.457,0,0,0-4.133-4.583,11.827,11.827,0,0,0,.484,7.414,9.545,9.545,0,0,0,4.024,4.742Zm-62.654-12.473a11.958,11.958,0,0,0-4.189,12.473,8.9,8.9,0,0,0,4.38-5.09,8.141,8.141,0,0,0-.192-7.383Zm46.915,3.189a12.209,12.209,0,0,0-5.14-4.056,9.233,9.233,0,0,0-7.39-.116,12.9,12.9,0,0,0,5.121,4,9.6,9.6,0,0,0,7.408.169Zm-22.854-4.784q-8.944-.856-12.154,5.091a12.7,12.7,0,0,0,7.664-.6,7.8,7.8,0,0,0,4.49-4.489Zm30.865,8.6c.165-5.577-2.067-9.389-6.722-11.491-.338,5.154,1.92,9,6.722,11.491Zm-44.977-11.491c-4.087,2.218-6.219,5.935-6.429,11.174a8.314,8.314,0,0,0,5.314-3.919c1.637-2.492,2.021-4.911,1.115-7.255Z" transform="translate(6422.215 1352.9)" fill="url(#linear-gradient)"/>
    <g id="Group_11604" data-name="Group 11604" transform="translate(6117.736 1433.01)">
      <g id="Group_11601" data-name="Group 11601" transform="translate(8.655 -6.674)">
        <g id="Group_11364" data-name="Group 11364" transform="translate(0 0)">
          <g id="Group_11363" data-name="Group 11363">
            <g id="Group_11362" data-name="Group 11362">
              <path id="Path_16015" data-name="Path 16015" d="M690.586,175.621V155.08l6.675,13.524Z" transform="translate(-668.988 -155.08)" fill="url(#linear-gradient-2)"/>
              <path id="Path_16016" data-name="Path 16016" d="M670.043,175.621V155.08L663.369,168.6Z" transform="translate(-648.444 -155.08)" fill="url(#linear-gradient-3)"/>
              <path id="Path_16017" data-name="Path 16017" d="M712.186,212.4l-21.6,4.848,6.675-7.017Z" transform="translate(-668.988 -196.708)" fill="url(#linear-gradient-4)"/>
              <path id="Path_16018" data-name="Path 16018" d="M602.506,212.4l21.6,4.848-6.674-7.017Z" transform="translate(-602.506 -196.708)" fill="url(#linear-gradient-5)"/>
              <path id="Path_16019" data-name="Path 16019" d="M703.936,259.39l-2.551-14.864-10.8-5.678Z" transform="translate(-668.988 -218.307)" fill="url(#linear-gradient-6)"/>
              <path id="Path_16020" data-name="Path 16020" d="M690.586,238.848v13.524l13.35,7.018Z" transform="translate(-668.988 -218.307)" fill="url(#linear-gradient-7)"/>
              <path id="Path_16021" data-name="Path 16021" d="M636.149,259.39l2.549-14.864,10.8-5.678Z" transform="translate(-627.899 -218.307)" fill="url(#linear-gradient-5)"/>
              <path id="Path_16022" data-name="Path 16022" d="M649.5,238.848v13.524l-13.349,7.018Z" transform="translate(-627.899 -218.307)" fill="url(#linear-gradient-5)"/>
              <path id="Path_16023" data-name="Path 16023" d="M712.186,219.078l-10.8,10.526-10.8-5.678Z" transform="translate(-668.988 -203.385)" fill="url(#linear-gradient-10)"/>
              <path id="Path_16024" data-name="Path 16024" d="M602.506,219.078,613.3,229.6l10.8-5.678Z" transform="translate(-602.506 -203.385)" fill="url(#linear-gradient-5)"/>
            </g>
            <path id="Path_16025" data-name="Path 16025" d="M624.491,175.662l21.213-4.409-20.986,5.087,12.736,20.3-13.311-19.877-13.388,19.756,12.805-20.171-21.055-5.1,21.27,4.415.329-19.952Z" transform="translate(-602.506 -155.56)" fill="url(#radial-gradient)" style="mix-blend-mode: screen;isolation: isolate"/>
          </g>
        </g>
      </g>
      <g id="Group_11602" data-name="Group 11602" transform="translate(-4 12.759)">
        <g id="Group_11364-2" data-name="Group 11364" transform="translate(0 0)">
          <g id="Group_11363-2" data-name="Group 11363" transform="translate(0 0)">
            <g id="Group_11362-2" data-name="Group 11362">
              <path id="Path_16015-2" data-name="Path 16015" d="M690.586,164.617V155.08l3.1,6.279Z" transform="translate(-680.559 -155.08)" fill="url(#linear-gradient-2)"/>
              <path id="Path_16016-2" data-name="Path 16016" d="M666.467,164.617V155.08l-3.1,6.279Z" transform="translate(-656.439 -155.08)" fill="url(#linear-gradient-3)"/>
              <path id="Path_16017-2" data-name="Path 16017" d="M700.614,211.239l-10.028,2.251,3.1-3.258Z" transform="translate(-680.559 -203.953)" fill="url(#linear-gradient-4)"/>
              <path id="Path_16018-2" data-name="Path 16018" d="M602.506,211.239l10.028,2.251-3.1-3.258Z" transform="translate(-602.506 -203.953)" fill="url(#linear-gradient-5)"/>
              <path id="Path_16019-2" data-name="Path 16019" d="M696.784,248.385l-1.184-6.9-5.014-2.636Z" transform="translate(-680.559 -229.311)" fill="url(#linear-gradient-6)"/>
              <path id="Path_16020-2" data-name="Path 16020" d="M690.586,238.848v6.279l6.2,3.258Z" transform="translate(-680.559 -229.311)" fill="url(#linear-gradient-7)"/>
              <path id="Path_16021-2" data-name="Path 16021" d="M636.148,248.385l1.184-6.9,5.014-2.636Z" transform="translate(-632.318 -229.311)" fill="url(#linear-gradient-5)"/>
              <path id="Path_16022-2" data-name="Path 16022" d="M642.346,238.848v6.279l-6.2,3.258Z" transform="translate(-632.318 -229.311)" fill="url(#linear-gradient-5)"/>
              <path id="Path_16023-2" data-name="Path 16023" d="M700.614,219.078l-5.014,4.887-5.014-2.636Z" transform="translate(-680.559 -211.792)" fill="url(#linear-gradient-10)"/>
              <path id="Path_16024-2" data-name="Path 16024" d="M602.506,219.078l5.014,4.887,5.014-2.636Z" transform="translate(-602.506 -211.792)" fill="url(#linear-gradient-5)"/>
            </g>
            <path id="Path_16025-2" data-name="Path 16025" d="M612.713,164.977l9.849-2.047-9.743,2.362,5.913,9.426-6.18-9.228-6.216,9.172,5.945-9.365-9.775-2.367,9.875,2.05.153-9.263Z" transform="translate(-602.506 -155.644)" fill="url(#radial-gradient)" style="mix-blend-mode: screen;isolation: isolate"/>
          </g>
        </g>
      </g>
      <g id="Group_11603" data-name="Group 11603" transform="translate(45.296 12.759)">
        <g id="Group_11364-3" data-name="Group 11364" transform="translate(0 0)">
          <g id="Group_11363-3" data-name="Group 11363" transform="translate(0 0)">
            <g id="Group_11362-3" data-name="Group 11362">
              <path id="Path_16015-3" data-name="Path 16015" d="M690.586,164.617V155.08l3.1,6.279Z" transform="translate(-680.559 -155.08)" fill="url(#linear-gradient-2)"/>
              <path id="Path_16016-3" data-name="Path 16016" d="M666.467,164.617V155.08l-3.1,6.279Z" transform="translate(-656.439 -155.08)" fill="url(#linear-gradient-3)"/>
              <path id="Path_16017-3" data-name="Path 16017" d="M700.614,211.239l-10.028,2.251,3.1-3.258Z" transform="translate(-680.559 -203.953)" fill="url(#linear-gradient-4)"/>
              <path id="Path_16018-3" data-name="Path 16018" d="M602.506,211.239l10.028,2.251-3.1-3.258Z" transform="translate(-602.506 -203.953)" fill="url(#linear-gradient-5)"/>
              <path id="Path_16019-3" data-name="Path 16019" d="M696.784,248.385l-1.184-6.9-5.014-2.636Z" transform="translate(-680.559 -229.311)" fill="url(#linear-gradient-6)"/>
              <path id="Path_16020-3" data-name="Path 16020" d="M690.586,238.848v6.279l6.2,3.258Z" transform="translate(-680.559 -229.311)" fill="url(#linear-gradient-7)"/>
              <path id="Path_16021-3" data-name="Path 16021" d="M636.148,248.385l1.184-6.9,5.014-2.636Z" transform="translate(-632.318 -229.311)" fill="url(#linear-gradient-5)"/>
              <path id="Path_16022-3" data-name="Path 16022" d="M642.346,238.848v6.279l-6.2,3.258Z" transform="translate(-632.318 -229.311)" fill="url(#linear-gradient-5)"/>
              <path id="Path_16023-3" data-name="Path 16023" d="M700.614,219.078l-5.014,4.887-5.014-2.636Z" transform="translate(-680.559 -211.792)" fill="url(#linear-gradient-10)"/>
              <path id="Path_16024-3" data-name="Path 16024" d="M602.506,219.078l5.014,4.887,5.014-2.636Z" transform="translate(-602.506 -211.792)" fill="url(#linear-gradient-5)"/>
            </g>
            <path id="Path_16025-3" data-name="Path 16025" d="M612.713,164.977l9.849-2.047-9.743,2.362,5.913,9.426-6.18-9.228-6.216,9.172,5.945-9.365-9.775-2.367,9.875,2.05.153-9.263Z" transform="translate(-602.506 -155.644)" fill="url(#radial-gradient)" style="mix-blend-mode: screen;isolation: isolate"/>
          </g>
        </g>
      </g>
    </g>
  </g>
</svg>
