<svg id="Component_9_1" data-name="Component 9 – 1" xmlns="http://www.w3.org/2000/svg" width="68.406" height="71.071" viewBox="0 0 68.406 71.071">
  <path id="Path_16026" data-name="Path 16026" d="M2686.92,312.463a64.963,64.963,0,0,1-14.638-11.894l-.546-.945-.16.175c-.054-.058-.108-.116-.161-.175l-.546.945a64.948,64.948,0,0,1-14.638,11.894,65.679,65.679,0,0,1-18.858,7.039l5.671,9.8a74.966,74.966,0,0,0,18.614-7.462,71.359,71.359,0,0,0,9.918-7.009,71.309,71.309,0,0,0,9.917,7.009,74.964,74.964,0,0,0,18.614,7.462l5.671-9.8A65.69,65.69,0,0,1,2686.92,312.463Z" transform="translate(-2637.372 -299.624)" fill="#21c3c5"/>
  <path id="Path_16027" data-name="Path 16027" d="M2568.609,401.763a115.689,115.689,0,0,0-53.425,0l-5.2,12.754a101.2,101.2,0,0,1,63.833,0Z" transform="translate(-2507.765 -343.447)" fill="#057a7f"/>
  <g id="Group_11365" data-name="Group 11365" transform="translate(16.979 20.323)">
    <g id="Group_11364" data-name="Group 11364" transform="translate(0 0)">
      <g id="Group_11363" data-name="Group 11363">
        <g id="Group_11362" data-name="Group 11362">
          <path id="Path_16015" data-name="Path 16015" d="M690.586,171.406V155.08l5.305,10.749Z" transform="translate(-673.42 -155.08)" fill="#21c3c5"/>
          <path id="Path_16016" data-name="Path 16016" d="M668.673,171.406V155.08l-5.3,10.749Z" transform="translate(-651.507 -155.08)" fill="#21c3c5"/>
          <path id="Path_16017" data-name="Path 16017" d="M707.753,211.956l-17.167,3.853,5.305-5.577Z" transform="translate(-673.42 -199.483)" fill="#21c3c5"/>
          <path id="Path_16018" data-name="Path 16018" d="M602.506,211.956l17.166,3.853-5.3-5.577Z" transform="translate(-602.506 -199.483)" fill="#21c3c5"/>
          <path id="Path_16019" data-name="Path 16019" d="M701.2,255.175l-2.027-11.814-8.583-4.513Z" transform="translate(-673.42 -222.522)" fill="#21c3c5"/>
          <path id="Path_16020" data-name="Path 16020" d="M690.586,238.848V249.6l10.61,5.578Z" transform="translate(-673.42 -222.522)" fill="#21c3c5"/>
          <path id="Path_16021" data-name="Path 16021" d="M636.149,255.175l2.026-11.814,8.583-4.513Z" transform="translate(-629.592 -222.522)" fill="#21c3c5"/>
          <path id="Path_16022" data-name="Path 16022" d="M646.758,238.848V249.6l-10.61,5.578Z" transform="translate(-629.592 -222.522)" fill="#21c3c5"/>
          <path id="Path_16023" data-name="Path 16023" d="M707.753,219.078l-8.584,8.366-8.583-4.513Z" transform="translate(-673.42 -206.605)" fill="#21c3c5"/>
          <path id="Path_16024" data-name="Path 16024" d="M602.506,219.078l8.583,8.366,8.583-4.513Z" transform="translate(-602.506 -206.605)" fill="#21c3c5"/>
        </g>
        <path id="Path_16025" data-name="Path 16025" d="M619.979,171.569l16.86-3.5-16.679,4.043,10.122,16.137-10.579-15.8-10.641,15.7,10.178-16.032-16.734-4.051,16.905,3.509.262-15.858Z" transform="translate(-602.506 -155.592)" fill="#21c3c5" style="mix-blend-mode: screen;isolation: isolate"/>
      </g>
    </g>
  </g>
</svg>
