<svg id="Group_11441" data-name="Group 11441" xmlns="http://www.w3.org/2000/svg" width="68.406" height="48.924" viewBox="0 0 68.406 48.924">
  <path id="Path_16009" data-name="Path 16009" d="M2686.92,312.463a64.963,64.963,0,0,1-14.638-11.894l-.546-.945-.16.175c-.054-.058-.108-.116-.161-.175l-.546.945a64.948,64.948,0,0,1-14.638,11.894,65.679,65.679,0,0,1-18.858,7.039l5.671,9.8a74.966,74.966,0,0,0,18.614-7.462,71.359,71.359,0,0,0,9.918-7.009,71.309,71.309,0,0,0,9.917,7.009,74.964,74.964,0,0,0,18.614,7.462l5.671-9.8A65.69,65.69,0,0,1,2686.92,312.463Z" transform="translate(-2637.372 -299.624)" fill="#21c3c5"/>
  <path id="Path_16010" data-name="Path 16010" d="M2568.609,401.763a115.689,115.689,0,0,0-53.425,0l-5.2,12.754a101.2,101.2,0,0,1,63.833,0Z" transform="translate(-2507.765 -365.593)" fill="#057b7f"/>
</svg>
