<svg id="Component_6_1" data-name="Component 6 – 1" xmlns="http://www.w3.org/2000/svg" width="340" height="92.232" viewBox="0 0 340 92.232">
  <text id="LEVELS_OF_THE" data-name="LEVELS OF THE" transform="translate(170 51)" fill="#5e6778" font-size="49" font-family="Poppins-SemiBold, Poppins" font-weight="600"><tspan x="-169.516" y="0">LEVELS OF THE</tspan></text>
  <g id="Group_11323" data-name="Group 11323" transform="translate(-179.319 -524.96)">
    <g id="Path_1" data-name="Path 1" transform="translate(0 0)" fill="#ff001b">
      <path d="M 285.1939392089844 616.1923828125 L 283.3630676269531 616.1923828125 L 277.6267700195312 616.1923828125 L 277.08056640625 616.1923828125 L 276.785400390625 615.7328491210938 L 261.1505737304688 591.39208984375 L 260.6084289550781 590.5480346679688 L 260.6090087890625 590.5477294921875 L 258.7874450683594 587.7119750976562 L 257.7979125976562 586.1715087890625 L 259.6288146972656 586.1715087890625 L 263.1579895019531 586.1715087890625 C 266.8391723632812 586.1715087890625 269.8340148925781 583.1766357421875 269.8340148925781 579.4954833984375 L 269.8340148925781 578.8793334960938 C 269.8340148925781 575.1981811523438 266.8391723632812 572.203369140625 263.1579895019531 572.203369140625 L 244.9819946289062 572.203369140625 L 243.9819946289062 572.203369140625 L 243.9819946289062 571.203369140625 L 243.9819946289062 566.376953125 L 243.9819946289062 565.376953125 L 244.9819946289062 565.376953125 L 263.1579895019531 565.376953125 C 270.6032409667969 565.376953125 276.6603698730469 571.43408203125 276.6603698730469 578.8793334960938 L 276.6603698730469 579.4954833984375 C 276.6603698730469 582.2273559570312 275.8449401855469 584.86083984375 274.3022155761719 587.1112670898438 C 273.02392578125 588.9760131835938 271.3214416503906 590.4765014648438 269.3336791992188 591.500732421875 L 284.2044372558594 614.6519775390625 L 285.1939392089844 616.1923828125 Z" stroke="none"/>
      <path d="M 283.3630676269531 615.1923828125 L 267.8713989257812 591.0745239257812 C 272.4355163574219 589.2098388671875 275.6603698730469 584.7224731445312 275.6603698730469 579.4954833984375 L 275.6603698730469 578.8793334960938 C 275.6603698730469 571.985595703125 270.0517883300781 566.376953125 263.1579895019531 566.376953125 L 244.9819946289062 566.376953125 L 244.9819946289062 571.203369140625 L 263.1579895019531 571.203369140625 C 267.3905944824219 571.203369140625 270.8340148925781 574.6467895507812 270.8340148925781 578.8793334960938 L 270.8340148925781 579.4954833984375 C 270.8340148925781 583.72802734375 267.3905944824219 587.1715087890625 263.1579895019531 587.1715087890625 L 259.6288146972656 587.1715087890625 L 261.9925231933594 590.8512573242188 L 261.991943359375 590.8516235351562 L 277.6267700195312 615.1923828125 L 283.3630676269531 615.1923828125 M 287.0247802734375 617.1923828125 L 283.3630676269531 617.1923828125 L 277.6267700195312 617.1923828125 L 276.5343627929688 617.1923828125 L 275.9440002441406 616.2732543945312 L 260.3091735839844 591.9324951171875 L 259.2249145507812 590.2445068359375 L 259.2254638671875 590.244140625 L 257.9460754394531 588.25244140625 L 255.9670257568359 585.1715087890625 L 259.6288146972656 585.1715087890625 L 263.1579895019531 585.1715087890625 C 266.2877502441406 585.1715087890625 268.8340148925781 582.625244140625 268.8340148925781 579.4954833984375 L 268.8340148925781 578.8793334960938 C 268.8340148925781 575.7495727539062 266.2877502441406 573.203369140625 263.1579895019531 573.203369140625 L 244.9819946289062 573.203369140625 L 242.9819946289062 573.203369140625 L 242.9819946289062 571.203369140625 L 242.9819946289062 566.376953125 L 242.9819946289062 564.376953125 L 244.9819946289062 564.376953125 L 263.1579895019531 564.376953125 C 271.1546325683594 564.376953125 277.6603698730469 570.8826904296875 277.6603698730469 578.8793334960938 L 277.6603698730469 579.4954833984375 C 277.6603698730469 582.4300537109375 276.7843627929688 585.2590942382812 275.1270446777344 587.6766967773438 C 273.9640502929688 589.3732299804688 272.4737854003906 590.7890625 270.7471313476562 591.8508911132812 L 285.0458374023438 614.1115112304688 L 287.0247802734375 617.1923828125 Z" stroke="none" fill="#fff"/>
    </g>
    <g id="Group_1" data-name="Group 1" transform="translate(288.419 585.214)">
      <rect id="Rectangle_1" data-name="Rectangle 1" width="11.013" height="1.885" transform="translate(0 8.85)" fill="#5e6778"/>
      <rect id="Rectangle_2" data-name="Rectangle 2" width="11.013" height="1.885" transform="translate(0 0.079)" fill="#5e6778"/>
      <rect id="Rectangle_3" data-name="Rectangle 3" width="11.013" height="1.885" transform="translate(0 17.621)" fill="#5e6778"/>
      <path id="Path_2" data-name="Path 2" d="M1374.459,886.464h-6.3v1.885h6.3a3.409,3.409,0,0,1,0,6.818h-6.3v10.724h1.885v-8.839h4.41a5.294,5.294,0,1,0,0-10.588Z" transform="translate(-1345.501 -886.464)" fill="#5e6778"/>
      <path id="Path_3" data-name="Path 3" d="M2242.926,892.726a5.3,5.3,0,0,0-5.294-5.294h-6.084v1.885h6.084a3.409,3.409,0,1,1,0,6.817h-6.084v2.021h6.084a3.409,3.409,0,1,1,0,6.818h-6.084v1.885h6.084a37.315,37.315,0,0,1,5.294-14.133Z" transform="translate(-2158.073 -887.375)" fill="#5e6778"/>
      <path id="Path_4" data-name="Path 4" d="M1776.053,898.016a6.053,6.053,0,0,1-6.047,6.047h0a6.054,6.054,0,0,1-6.047-6.047V886.464h-1.885v11.552a7.932,7.932,0,1,0,15.864,0V886.464h-1.885Z" transform="translate(-1716.229 -886.464)" fill="#5e6778"/>
      <path id="Path_5" data-name="Path 5" d="M2630.055,887.432h-1.885v19.427h11.013v-1.885h-9.128Z" transform="translate(-2531.354 -887.375)" fill="#5e6778"/>
      <rect id="Rectangle_4" data-name="Rectangle 4" width="1.885" height="19.427" transform="translate(119.343 0.057)" fill="#5e6778"/>
      <path id="Path_6" data-name="Path 6" d="M3238.091,887.432h-2.468l-8.2,9.713,8.2,9.713h2.468l-8.2-9.713Z" transform="translate(-3095.338 -887.375)" fill="#5e6778"/>
      <rect id="Rectangle_5" data-name="Rectangle 5" width="11.013" height="1.885" transform="translate(154.107 8.828)" fill="#5e6778"/>
      <rect id="Rectangle_6" data-name="Rectangle 6" width="11.013" height="1.885" transform="translate(154.107 0.057)" fill="#5e6778"/>
      <rect id="Rectangle_7" data-name="Rectangle 7" width="11.013" height="1.885" transform="translate(154.107 17.598)" fill="#5e6778"/>
    </g>
  </g>
</svg>
